# Blender 4.3.0
# www.blender.org
mtllib R_grip.mtl
o R_grip
v -0.015685 0.002681 0.084013
v -0.011970 -0.013675 0.079009
v -0.012540 -0.013743 0.076646
v -0.011141 -0.014840 0.077434
v -0.010313 -0.015332 0.078635
v -0.009585 -0.015859 0.082235
v -0.011015 -0.014804 0.086046
v -0.016263 0.002872 0.091475
v -0.015750 0.004016 0.090458
v -0.015080 0.004921 0.088679
v -0.014726 0.005111 0.084813
v -0.015182 0.004514 0.083040
v -0.015948 0.003312 0.081712
v -0.016894 0.000621 0.080356
v -0.016337 -0.001778 0.082586
v -0.016763 0.000288 0.091957
v -0.009686 -0.015730 0.080371
v -0.011488 -0.013870 0.081305
v -0.016056 -0.001977 0.085402
v -0.015618 0.002479 0.086365
v -0.014713 0.005252 0.086782
v -0.017131 -0.003356 0.079094
v -0.016475 -0.003666 0.091350
v -0.016636 -0.006994 0.077862
v -0.015854 -0.006637 0.081068
v -0.015427 -0.006675 0.084083
v -0.015408 -0.007767 0.090064
v -0.015584 -0.009940 0.076964
v -0.013932 -0.010965 0.088868
v -0.014232 -0.011979 0.076513
v -0.014196 -0.010598 0.079820
v -0.013720 -0.010665 0.082669
v -0.012471 -0.013096 0.087712
v -0.015827 0.002453 0.088801
v -0.016139 -0.002015 0.088331
v -0.015297 -0.007019 0.087052
v -0.013431 -0.011110 0.085448
v -0.011221 -0.014209 0.083627
v -0.010089 -0.015581 0.084286
v -0.005732 0.006646 0.080533
v -0.005808 0.003790 0.079187
v -0.005886 0.000186 0.078144
v -0.005946 -0.003350 0.077149
v -0.005993 -0.006904 0.076191
v -0.006018 -0.009767 0.075687
v -0.006034 -0.012496 0.075908
v -0.006038 -0.014358 0.076902
v -0.006037 -0.015221 0.078300
v -0.006036 -0.015909 0.080302
v -0.006037 -0.016092 0.082474
v -0.006039 -0.015558 0.084955
v -0.006037 -0.014304 0.087119
v -0.006028 -0.012222 0.088927
v -0.006011 -0.009749 0.090195
v -0.005970 -0.006044 0.091425
v -0.005900 -0.001300 0.092585
v -0.005818 0.003276 0.093111
v -0.005740 0.006711 0.092623
v -0.005695 0.008416 0.091306
v -0.005663 0.009249 0.089150
v -0.005653 0.009307 0.086815
v -0.005662 0.008865 0.084349
v -0.005686 0.008077 0.082172
v -0.016654 -0.006718 0.076947
v -0.017043 -0.002948 0.078171
v -0.016631 0.001115 0.079421
v -0.015584 0.003895 0.080799
v -0.014644 0.005304 0.082350
v -0.014121 0.006036 0.084484
v -0.014119 0.006237 0.086816
v -0.014563 0.005892 0.089066
v -0.015341 0.004868 0.091147
v -0.015956 0.003481 0.092384
v -0.016534 0.000577 0.092950
v -0.016226 -0.003659 0.092336
v -0.015122 -0.007954 0.090991
v -0.013567 -0.011283 0.089717
v -0.012015 -0.013481 0.088517
v -0.010471 -0.015244 0.086802
v -0.009353 -0.016217 0.084713
v -0.008758 -0.016591 0.082274
v -0.008893 -0.016427 0.080107
v -0.009628 -0.015924 0.078100
v -0.010567 -0.015323 0.076726
v -0.012192 -0.013997 0.075772
v -0.014055 -0.012059 0.075588
v -0.015558 -0.009822 0.076047
v -0.016891 0.000855 0.079815
v -0.017199 -0.003171 0.078568
v -0.016751 -0.006874 0.077344
v -0.015686 -0.009904 0.076442
v -0.014259 -0.012043 0.075979
v -0.012472 -0.013889 0.076131
v -0.010901 -0.015121 0.077027
v -0.009993 -0.015666 0.078337
v -0.009303 -0.016113 0.080232
v -0.009187 -0.016257 0.082275
v -0.009766 -0.015922 0.084576
v -0.010830 -0.015022 0.086538
v -0.012323 -0.013294 0.088202
v -0.013820 -0.011141 0.089359
v -0.015348 -0.007883 0.090589
v -0.016450 -0.003692 0.091905
v -0.016768 0.000404 0.092528
v -0.016245 0.003160 0.092012
v -0.015660 0.004450 0.090872
v -0.014909 0.005425 0.088916
v -0.014489 0.005770 0.086817
v -0.014499 0.005602 0.084638
v -0.015016 0.004929 0.082638
v -0.015885 0.003595 0.081180
vn -0.1503 0.3719 0.9160
vn -0.3021 0.7892 0.5347
vn -0.3135 0.7874 0.5308
vn -0.1410 0.3303 0.9333
vn -0.9176 0.3707 0.1434
vn -0.9614 0.1948 0.1944
vn -0.9801 0.1709 0.1009
vn -0.9362 0.3491 0.0402
vn -0.9853 0.1693 -0.0237
vn -0.9392 0.3355 -0.0731
vn -0.7698 -0.6358 0.0561
vn -0.8655 -0.4957 0.0724
vn -0.8318 -0.5165 0.2033
vn -0.7416 -0.6504 0.1645
vn -0.9989 -0.0354 0.0323
vn -0.9590 -0.2748 0.0692
vn -0.9644 -0.2596 -0.0500
vn -0.9934 -0.0495 -0.1032
vn -0.7581 -0.6113 0.2272
vn -0.7011 -0.6920 0.1719
vn -0.6667 -0.7268 0.1650
vn -0.6851 -0.7198 0.1119
vn -0.9584 0.0904 0.2708
vn -0.9820 -0.0405 0.1843
vn -0.7050 -0.7079 0.0422
vn -0.9587 -0.1393 0.2479
vn -0.8876 0.4527 -0.0852
vn -0.9587 0.2400 -0.1525
vn -0.9808 0.1406 -0.1348
vn -0.9398 0.3135 -0.1356
vn -0.7972 -0.6026 -0.0362
vn -0.8798 -0.4726 -0.0508
vn -0.7210 -0.6920 -0.0344
vn -0.6144 -0.7867 0.0596
vn -0.6505 -0.7594 0.0169
vn -0.8557 0.5121 -0.0746
vn -0.8464 0.5291 -0.0608
vn -0.9785 -0.1426 -0.1488
vn -0.9819 0.0632 -0.1788
vn -0.9958 0.0055 -0.0914
vn -0.9050 -0.3405 0.2549
vn -0.9315 -0.3011 0.2041
vn -0.9763 -0.2102 -0.0507
vn -0.8410 -0.4675 0.2723
vn -0.9084 -0.4081 -0.0907
vn -0.9009 -0.4228 -0.0982
vn -0.9600 -0.2610 -0.1017
vn -0.7839 -0.6097 -0.1176
vn -0.8244 -0.5561 -0.1055
vn -0.8025 -0.5909 -0.0828
vn -0.6734 -0.7357 0.0727
vn -0.7460 -0.6549 0.1209
vn -0.9707 0.1509 -0.1872
vn -0.9397 0.2839 -0.1905
vn -0.7316 -0.6761 -0.0869
vn -0.6511 -0.7582 -0.0332
vn -0.6386 -0.7693 -0.0169
vn 0.0140 -0.3611 0.9324
vn -0.0129 -0.3963 0.9180
vn 0.0092 -0.5551 0.8317
vn 0.0549 -0.5369 0.8419
vn -0.2797 0.8415 -0.4622
vn -0.2877 0.8482 -0.4447
vn -0.3313 0.9278 -0.1717
vn -0.3218 0.9184 -0.2304
vn 0.1076 -0.7422 0.6615
vn 0.0554 -0.7572 0.6508
vn 0.0860 -0.9330 0.3495
vn 0.1520 -0.9161 0.3711
vn -0.1916 0.5836 -0.7891
vn -0.1971 0.5638 -0.8021
vn -0.0491 -0.0305 0.9983
vn -0.0269 0.0171 0.9995
vn -0.3626 0.9319 -0.0119
vn -0.3400 0.9375 -0.0735
vn 0.1734 -0.9817 0.0794
vn 0.0807 -0.9945 0.0662
vn 0.0982 -0.9743 -0.2028
vn 0.1879 -0.9619 -0.1985
vn -0.0249 -0.2195 0.9753
vn 0.0207 -0.1716 0.9849
vn -0.0211 -0.3295 0.9439
vn 0.0226 -0.2756 0.9610
vn 0.0632 -0.1873 -0.9803
vn 0.0233 -0.2227 -0.9746
vn -0.0536 0.0675 -0.9963
vn -0.0116 0.0821 -0.9966
vn -0.3434 0.9217 0.1804
vn -0.3683 0.9050 0.2127
vn 0.1602 -0.6197 -0.7683
vn 0.1944 -0.8895 -0.4136
vn 0.1227 -0.9090 -0.3982
vn 0.1072 -0.6090 -0.7859
vn -0.1169 0.3598 -0.9257
vn -0.1409 0.3569 -0.9234
vn -0.0847 0.2787 -0.9566
vn -0.1236 0.2966 -0.9470
vn -0.0731 0.2707 -0.9599
vn -0.1084 0.2706 -0.9566
vn -0.0556 0.2304 -0.9715
vn -0.0908 0.2134 -0.9727
vn -0.8807 0.4733 -0.0196
vn -0.9356 0.3091 0.1705
vn -0.8320 -0.5290 0.1671
vn -0.8142 0.5805 -0.0119
vn -0.8256 0.5641 -0.0146
vn -0.9673 0.0138 0.2531
vn -0.9429 -0.2201 0.2499
vn -0.9016 -0.3833 0.2003
vn -0.6701 -0.7369 -0.0889
vn -0.6045 -0.7964 0.0182
vt 0.480386 0.900845
vt 0.489504 0.900845
vt 0.489504 0.938819
vt 0.480386 0.938819
vt 0.594870 0.227846
vt 0.595798 0.240418
vt 0.581719 0.233251
vt 0.589096 0.216727
vt 0.569238 0.223913
vt 0.580055 0.207565
vt 0.514972 0.332680
vt 0.526599 0.307701
vt 0.541626 0.319493
vt 0.527891 0.341263
vt 0.554263 0.250563
vt 0.539595 0.280062
vt 0.523494 0.268515
vt 0.539654 0.237777
vt 0.552571 0.340598
vt 0.540573 0.351104
vt 0.528639 0.355362
vt 0.518679 0.353970
vt 0.591112 0.260409
vt 0.569146 0.261997
vt 0.507272 0.349224
vt 0.580507 0.285186
vt 0.599730 0.241180
vt 0.594820 0.261523
vt 0.556920 0.213434
vt 0.568912 0.201285
vt 0.502051 0.324064
vt 0.510898 0.297595
vt 0.497854 0.341424
vt 0.517891 0.357514
vt 0.505399 0.352407
vt 0.570146 0.197636
vt 0.582377 0.204630
vt 0.517415 0.232182
vt 0.531300 0.210235
vt 0.583959 0.286548
vt 0.570869 0.308259
vt 0.555081 0.292997
vt 0.574085 0.309852
vt 0.561625 0.327258
vt 0.564506 0.329264
vt 0.495908 0.280479
vt 0.505619 0.258443
vt 0.554921 0.343257
vt 0.489927 0.297812
vt 0.487802 0.315905
vt 0.484150 0.315050
vt 0.486452 0.296794
vt 0.545188 0.199699
vt 0.555543 0.198344
vt 0.490712 0.329490
vt 0.495065 0.343892
vt 0.487186 0.330406
vt 0.404550 0.900845
vt 0.404550 0.938819
vt 0.391173 0.938819
vt 0.391173 0.900845
vt 0.534325 0.900845
vt 0.534325 0.938819
vt 0.523473 0.938819
vt 0.523473 0.900845
vt 0.377944 0.900845
vt 0.377944 0.938819
vt 0.365957 0.938819
vt 0.365957 0.900845
vt 0.543880 0.900845
vt 0.543880 0.938819
vt 0.466047 0.938819
vt 0.466047 0.900845
vt 0.511718 0.938819
vt 0.511718 0.900845
vt 0.353750 0.900845
vt 0.353750 0.938819
vt 0.343349 0.938819
vt 0.343349 0.900845
vt 0.445395 0.938819
vt 0.445395 0.900845
vt 0.422955 0.938819
vt 0.422955 0.900845
vt 0.635497 0.900845
vt 0.635497 0.938819
vt 0.623252 0.938819
vt 0.623252 0.900845
vt 0.500506 0.900845
vt 0.500506 0.938819
vt 0.326036 0.900845
vt 0.333462 0.900845
vt 0.333462 0.938819
vt 0.326036 0.938819
vt 0.645345 0.900845
vt 0.645345 0.938819
vt 0.557543 0.900845
vt 0.557543 0.938819
vt 0.575576 0.900845
vt 0.575576 0.938819
vt 0.593409 0.900845
vt 0.593409 0.938819
vt 0.610143 0.900845
vt 0.610143 0.938819
vt 0.555491 0.194333
vt 0.543805 0.195922
vt 0.543599 0.192155
vt 0.556566 0.190577
vt 0.489603 0.278800
vt 0.492605 0.279282
vt 0.483304 0.296945
vt 0.602486 0.225813
vt 0.598805 0.227273
vt 0.592305 0.214771
vt 0.595560 0.212564
vt 0.480957 0.315804
vt 0.484225 0.332198
vt 0.603466 0.240739
vt 0.528996 0.207172
vt 0.527364 0.204201
vt 0.585048 0.201759
vt 0.503572 0.355390
vt 0.492572 0.346469
vt 0.514510 0.229931
vt 0.512007 0.227922
vt 0.502467 0.256766
vt 0.499619 0.255582
vt 0.542246 0.354245
vt 0.556233 0.345858
vt 0.542631 0.357311
vt 0.572101 0.194207
vt 0.528303 0.362200
vt 0.516851 0.360682
vt 0.528793 0.358992
vt 0.598366 0.261757
vt 0.587052 0.287250
vt 0.576740 0.311004
vt 0.566654 0.331044
s 1
usemtl VstController_250406
f 58/1/1 59/2/2 72/3/3
f 72/3/3 73/4/4 58/1/1
f 12/5/5 13/6/6 1/7/7
f 1/7/7 11/8/8 12/5/5
f 11/8/8 1/7/7 20/9/9
f 20/9/9 21/10/10 11/8/8
f 18/11/11 32/12/12 31/13/13
f 31/13/13 2/14/14 18/11/11
f 19/15/15 26/16/16 36/17/17
f 36/17/17 35/18/18 19/15/15
f 2/14/14 31/13/13 30/19/19
f 30/19/19 3/20/20 2/14/14
f 4/21/21 5/22/22 2/14/14
f 2/14/14 3/20/20 4/21/21
f 13/6/6 14/23/23 15/24/24
f 15/24/24 1/7/7 13/6/6
f 1/7/7 15/24/24 19/15/15
f 19/15/15 20/9/9 1/7/7
f 17/25/25 18/11/11 2/14/14
f 2/14/14 5/22/22 17/25/25
f 14/23/23 22/26/26 15/24/24
f 14/23/23 13/6/6 111/27/27
f 111/27/27 88/28/28 14/23/23
f 20/9/9 34/29/29 10/30/30
f 10/30/30 21/10/10 20/9/9
f 38/31/31 37/32/32 32/12/12
f 32/12/12 18/11/11 38/31/31
f 35/18/18 34/29/29 20/9/9
f 20/9/9 19/15/15 35/18/18
f 6/33/33 38/31/31 18/11/11
f 18/11/11 17/25/25 6/33/33
f 17/25/25 5/22/22 95/34/34
f 95/34/34 96/35/35 17/25/25
f 21/10/10 10/30/30 107/36/36
f 107/36/36 108/37/37 21/10/10
f 23/38/38 16/39/39 35/18/18
f 14/23/23 88/28/28 89/40/40
f 89/40/40 22/26/26 14/23/23
f 22/26/26 24/41/41 25/42/42
f 25/42/42 15/24/24 22/26/26
f 15/24/24 25/42/42 26/16/16
f 26/16/16 19/15/15 15/24/24
f 22/26/26 89/40/40 90/43/43
f 90/43/43 24/41/41 22/26/26
f 32/12/12 26/16/16 25/42/42
f 25/42/42 31/13/13 32/12/12
f 31/13/13 25/42/42 24/41/41
f 24/41/41 28/44/44 31/13/13
f 28/44/44 24/41/41 90/43/43
f 90/43/43 91/45/45 28/44/44
f 29/46/46 27/47/47 36/17/17
f 36/17/17 37/32/32 29/46/46
f 31/13/13 28/44/44 30/19/19
f 30/19/19 28/44/44 91/45/45
f 91/45/45 92/48/48 30/19/19
f 33/49/49 7/50/50 99/51/51
f 99/51/51 100/52/52 33/49/49
f 33/49/49 29/46/46 37/32/32
f 27/47/47 23/38/38 35/18/18
f 35/18/18 36/17/17 27/47/47
f 7/50/50 33/49/49 37/32/32
f 37/32/32 38/31/31 7/50/50
f 35/18/18 16/39/39 8/53/53
f 8/53/53 34/29/29 35/18/18
f 26/16/16 32/12/12 37/32/32
f 37/32/32 36/17/17 26/16/16
f 34/29/29 8/53/53 9/54/54
f 9/54/54 10/30/30 34/29/29
f 38/31/31 6/33/33 39/55/55
f 39/55/55 7/50/50 38/31/31
f 39/55/55 6/33/33 97/56/56
f 97/56/56 98/57/57 39/55/55
f 54/58/58 77/59/59 78/60/60
f 78/60/60 53/61/61 54/58/58
f 63/62/62 68/63/63 69/64/64
f 69/64/64 62/65/65 63/62/62
f 52/66/66 79/67/67 80/68/68
f 80/68/68 51/69/69 52/66/66
f 40/70/70 67/71/71 68/63/63
f 68/63/63 63/62/62 40/70/70
f 73/4/4 74/72/72 57/73/73
f 57/73/73 58/1/1 73/4/4
f 62/65/65 69/64/64 70/74/74
f 70/74/74 61/75/75 62/65/65
f 50/76/76 81/77/77 82/78/78
f 82/78/78 49/79/79 50/76/76
f 74/72/72 75/80/80 56/81/81
f 56/81/81 57/73/73 74/72/72
f 75/80/80 76/82/82 55/83/83
f 55/83/83 56/81/81 75/80/80
f 55/83/83 76/82/82 77/59/59
f 77/59/59 54/58/58 55/83/83
f 46/84/84 85/85/85 86/86/86
f 86/86/86 45/87/87 46/84/84
f 59/2/2 60/88/88 71/89/89
f 71/89/89 72/3/3 59/2/2
f 47/90/90 48/91/91 83/92/92
f 83/92/92 84/93/93 47/90/90
f 46/84/84 47/94/90 84/95/93
f 84/95/93 85/85/85 46/84/84
f 67/71/71 40/70/70 41/96/94
f 41/96/94 66/97/95 67/71/71
f 48/91/91 49/79/79 82/78/78
f 82/78/78 83/92/92 48/91/91
f 60/88/88 61/75/75 70/74/74
f 70/74/74 71/89/89 60/88/88
f 66/97/95 41/96/94 42/98/96
f 42/98/96 65/99/97 66/97/95
f 65/99/97 42/98/96 43/100/98
f 43/100/98 64/101/99 65/99/97
f 43/100/98 44/102/100 87/103/101
f 87/103/101 64/101/99 43/100/98
f 79/67/67 52/66/66 53/61/61
f 53/61/61 78/60/60 79/67/67
f 87/103/101 44/102/100 45/87/87
f 45/87/87 86/86/86 87/103/101
f 81/77/77 50/76/76 51/69/69
f 51/69/69 80/68/68 81/77/77
f 106/104/102 105/105/103 73/106/4
f 73/106/4 72/107/3 106/104/102
f 77/108/59 101/109/104 100/52/52
f 100/52/52 78/110/60 77/108/59
f 68/111/63 110/112/105 109/113/106
f 109/113/106 69/114/64 68/111/63
f 79/115/67 99/51/51 98/57/57
f 98/57/57 80/116/68 79/115/67
f 67/117/71 111/27/27 110/112/105
f 110/112/105 68/111/63 67/117/71
f 105/105/103 104/118/107 74/119/72
f 74/119/72 73/106/4 105/105/103
f 109/113/106 108/37/37 70/120/74
f 70/120/74 69/114/64 109/113/106
f 97/56/56 96/35/35 82/121/78
f 82/121/78 81/122/77 97/56/56
f 104/118/107 103/123/108 75/124/80
f 75/124/80 74/119/72 104/118/107
f 103/123/108 102/125/109 76/126/82
f 76/126/82 75/124/80 103/123/108
f 76/126/82 102/125/109 101/109/104
f 101/109/104 77/108/59 76/126/82
f 93/127/110 92/48/48 86/128/86
f 86/128/86 85/129/85 93/127/110
f 72/107/3 71/130/89 107/36/36
f 107/36/36 106/104/102 72/107/3
f 84/131/93 83/132/92 95/34/34
f 95/34/34 94/133/111 84/131/93
f 85/129/85 84/131/93 94/133/111
f 94/133/111 93/127/110 85/129/85
f 80/116/68 98/57/57 97/56/56
f 97/56/56 81/122/77 80/116/68
f 111/27/27 67/117/71 66/134/95
f 66/134/95 88/28/28 111/27/27
f 83/132/92 82/121/78 96/35/35
f 96/35/35 95/34/34 83/132/92
f 71/130/89 70/120/74 108/37/37
f 108/37/37 107/36/36 71/130/89
f 88/28/28 66/134/95 65/135/97
f 65/135/97 89/40/40 88/28/28
f 89/40/40 65/135/97 64/136/99
f 64/136/99 90/43/43 89/40/40
f 64/136/99 87/137/101 91/45/45
f 91/45/45 90/43/43 64/136/99
f 87/137/101 86/128/86 92/48/48
f 92/48/48 91/45/45 87/137/101
f 99/51/51 79/115/67 78/110/60
f 78/110/60 100/52/52 99/51/51
f 93/127/110 3/20/20 30/19/19
f 30/19/19 92/48/48 93/127/110
f 4/21/21 3/20/20 93/127/110
f 93/127/110 94/133/111 4/21/21
f 97/56/56 6/33/33 17/25/25
f 17/25/25 96/35/35 97/56/56
f 99/51/51 7/50/50 39/55/55
f 39/55/55 98/57/57 99/51/51
f 101/109/104 29/46/46 33/49/49
f 33/49/49 100/52/52 101/109/104
f 27/47/47 29/46/46 101/109/104
f 101/109/104 102/125/109 27/47/47
f 23/38/38 27/47/47 102/125/109
f 102/125/109 103/123/108 23/38/38
f 16/39/39 23/38/38 103/123/108
f 103/123/108 104/118/107 16/39/39
f 105/105/103 8/53/53 16/39/39
f 16/39/39 104/118/107 105/105/103
f 106/104/102 9/54/54 8/53/53
f 8/53/53 105/105/103 106/104/102
f 107/36/36 10/30/30 9/54/54
f 9/54/54 106/104/102 107/36/36
f 109/113/106 11/8/8 21/10/10
f 21/10/10 108/37/37 109/113/106
f 12/5/5 11/8/8 109/113/106
f 109/113/106 110/112/105 12/5/5
f 13/6/6 12/5/5 110/112/105
f 110/112/105 111/27/27 13/6/6
f 95/34/34 5/22/22 4/21/21
f 4/21/21 94/133/111 95/34/34
