# Blender 4.3.0
# www.blender.org
mtllib R_homeButton.mtl
o R_homeButton
v 0.002304 0.005421 0.051917
v 0.003039 0.006833 0.053867
v 0.004826 0.007850 0.055128
v 0.007147 0.008256 0.055448
v 0.009403 0.007972 0.054785
v 0.011092 0.007069 0.053300
v 0.011666 0.005775 0.051376
v 0.011009 0.004440 0.049530
v 0.009066 0.003315 0.048130
v 0.006814 0.002920 0.047813
v 0.004611 0.003181 0.048435
v 0.002832 0.004150 0.050030
v 0.002486 0.006140 0.052931
v 0.005965 0.008150 0.055430
v 0.008338 0.008210 0.055247
v 0.011559 0.006449 0.052357
v 0.011509 0.005078 0.050392
v 0.007966 0.003022 0.047831
v 0.005650 0.002957 0.047996
v 0.002421 0.004757 0.050950
v 0.002144 0.007333 0.049310
v 0.002032 0.007990 0.050265
v 0.002212 0.008700 0.051267
v 0.002742 0.009387 0.052203
v 0.004575 0.010433 0.053501
v 0.005709 0.010724 0.053785
v 0.006878 0.010829 0.053802
v 0.008056 0.010784 0.053605
v 0.009122 0.010557 0.053165
v 0.010853 0.009626 0.051635
v 0.011295 0.009010 0.050693
v 0.011400 0.008344 0.049723
v 0.011242 0.007656 0.048752
v 0.010765 0.007017 0.047893
v 0.008778 0.005864 0.046458
v 0.007681 0.005586 0.046174
v 0.006543 0.005485 0.046154
v 0.005394 0.005521 0.046336
v 0.004357 0.005729 0.046759
v 0.002537 0.006725 0.048396
v 0.007974 0.011029 0.053283
v 0.009031 0.010819 0.052870
v 0.010710 0.009913 0.051378
v 0.011116 0.009306 0.050454
v 0.011217 0.008663 0.049518
v 0.011063 0.008000 0.048582
v 0.010615 0.007369 0.047730
v 0.008697 0.006254 0.046343
v 0.007615 0.005991 0.046080
v 0.006513 0.005891 0.046060
v 0.005403 0.005927 0.046236
v 0.004374 0.006120 0.046635
v 0.002618 0.007085 0.048219
v 0.002248 0.007687 0.049121
v 0.002147 0.008324 0.050049
v 0.002319 0.009008 0.051013
v 0.002812 0.009682 0.051933
v 0.004587 0.010697 0.053195
v 0.005703 0.010970 0.053455
v 0.006835 0.011071 0.053472
v 0.006673 0.008552 0.049739
v 0.009992 0.010437 0.052215
v 0.010105 0.010161 0.052488
v 0.010357 0.007586 0.054124
v 0.003584 0.010255 0.052673
v 0.003544 0.009975 0.052959
v 0.003826 0.007403 0.054598
v 0.009784 0.006738 0.046920
v 0.009898 0.006368 0.047059
v 0.010156 0.003810 0.048720
v 0.003363 0.006524 0.047331
v 0.003315 0.006149 0.047482
v 0.003597 0.003593 0.049142
vn -0.1679 0.8269 -0.5366
vn -0.1713 0.8106 -0.5599
vn -0.9984 -0.0220 0.0521
vn -0.9568 0.1190 0.2651
vn -0.1559 0.8437 -0.5137
vn -0.8429 0.2553 0.4737
vn -0.1383 0.8575 -0.4955
vn -0.6682 0.3772 0.6412
vn -0.4506 0.4747 0.7561
vn -0.1140 0.8671 -0.4850
vn -0.2026 0.5468 0.8124
vn -0.0873 0.8743 -0.4774
vn 0.0462 0.5759 0.8162
vn -0.0590 0.8759 -0.4789
vn -0.0320 0.8758 -0.4816
vn 0.2839 0.5710 0.7703
vn -0.0047 0.8703 -0.4926
vn 0.5235 0.5225 0.6729
vn 0.0162 0.8628 -0.5052
vn 0.7127 0.4519 0.5364
vn 0.8680 0.3521 0.3501
vn 0.0311 0.8502 -0.5255
vn 0.9648 0.2298 0.1277
vn 0.0426 0.8352 -0.5483
vn 0.9915 0.0940 -0.0896
vn 0.0422 0.8189 -0.5724
vn 0.0407 0.8031 -0.5944
vn 0.9543 -0.0411 -0.2962
vn 0.0282 0.7851 -0.6188
vn 0.8366 -0.2005 -0.5098
vn 0.0122 0.7711 -0.6366
vn 0.6705 -0.3242 -0.6673
vn 0.4583 -0.4201 -0.7832
vn -0.0120 0.7623 -0.6471
vn 0.1979 -0.4831 -0.8529
vn -0.0404 0.7550 -0.6545
vn -0.0476 -0.5125 -0.8574
vn -0.0681 0.7541 -0.6532
vn -0.0943 0.7537 -0.6505
vn -0.2825 -0.5083 -0.8135
vn -0.1228 0.7587 -0.6397
vn -0.5325 -0.4725 -0.7023
vn -0.1446 0.7659 -0.6265
vn -0.7257 -0.4020 -0.5584
vn -0.8818 -0.2922 -0.3702
vn -0.1595 0.7796 -0.6056
vn -0.9756 -0.1551 -0.1552
vn -0.1682 0.7952 -0.5825
vn -0.9956 -0.0600 0.0716
vn -0.9525 0.0850 0.2925
vn 0.0527 0.5417 0.8389
vn 0.3005 0.5336 0.7906
vn 0.9959 0.0588 -0.0694
vn 0.9559 -0.0833 -0.2815
vn 0.8686 0.3260 0.3732
vn 0.9684 0.1982 0.1512
vn -0.0426 -0.5457 -0.8369
vn -0.2827 -0.5431 -0.7907
vn 0.4692 -0.4454 -0.7626
vn 0.2095 -0.5144 -0.8315
vn -0.8725 -0.3300 -0.3603
vn -0.9702 -0.1969 -0.1414
vn -0.4544 0.4442 0.7721
vn -0.2037 0.5129 0.8339
vn -0.8364 0.2266 0.4991
vn -0.6653 0.3480 0.6605
vn 0.5373 0.4886 0.6874
vn 0.7175 0.4221 0.5540
vn 0.8345 -0.2380 -0.4969
vn 0.6728 -0.3539 -0.6497
vn -0.5328 -0.5019 -0.6814
vn -0.7185 -0.4329 -0.5444
vn -0.0640 0.8194 -0.5697
vt 0.338727 0.550279
vt 0.346327 0.552040
vt 0.346128 0.554747
vt 0.337777 0.552818
vt 0.331585 0.546447
vt 0.330016 0.548589
vt 0.325916 0.540918
vt 0.323842 0.542489
vt 0.319512 0.534943
vt 0.322032 0.534012
vt 0.317561 0.526801
vt 0.320211 0.526541
vt 0.317657 0.518694
vt 0.320355 0.519121
vt 0.322132 0.511792
vt 0.319668 0.510673
vt 0.325687 0.505147
vt 0.323584 0.503531
vt 0.331128 0.499294
vt 0.329549 0.497207
vt 0.336922 0.492622
vt 0.337934 0.495148
vt 0.344999 0.490372
vt 0.345336 0.493071
vt 0.353137 0.490254
vt 0.352781 0.493022
vt 0.360162 0.494648
vt 0.361229 0.492081
vt 0.366807 0.498141
vt 0.368391 0.495926
vt 0.373037 0.504115
vt 0.375138 0.502469
vt 0.379889 0.510602
vt 0.377331 0.511606
vt 0.381883 0.518461
vt 0.379177 0.518847
vt 0.381752 0.526344
vt 0.378995 0.526068
vt 0.377354 0.533223
vt 0.379935 0.534156
vt 0.373943 0.539690
vt 0.376210 0.541130
vt 0.368183 0.545854
vt 0.369915 0.547835
vt 0.362031 0.552629
vt 0.360950 0.550139
vt 0.354169 0.554653
vt 0.353706 0.551984
vt 0.892312 0.851819
vt 0.896217 0.851819
vt 0.896217 0.870885
vt 0.892312 0.870885
vt 0.823586 0.851819
vt 0.827350 0.851819
vt 0.827350 0.870885
vt 0.823586 0.870885
vt 0.846333 0.851819
vt 0.850117 0.851819
vt 0.850117 0.870885
vt 0.846333 0.870885
vt 0.838806 0.851819
vt 0.842612 0.851819
vt 0.842612 0.870885
vt 0.838806 0.870885
vt 0.869525 0.851819
vt 0.873187 0.851819
vt 0.873187 0.870885
vt 0.869525 0.870885
vt 0.862264 0.851819
vt 0.865931 0.851819
vt 0.865931 0.870885
vt 0.862264 0.870885
vt 0.884991 0.870885
vt 0.884991 0.851819
vt 0.888651 0.851819
vt 0.888651 0.870885
vt 0.907950 0.851819
vt 0.911742 0.851819
vt 0.911742 0.870885
vt 0.907950 0.870885
vt 0.900229 0.851819
vt 0.904087 0.851819
vt 0.904087 0.870885
vt 0.900229 0.870885
vt 0.819889 0.851819
vt 0.819889 0.870885
vt 0.831047 0.851819
vt 0.831047 0.870885
vt 0.834933 0.851819
vt 0.834933 0.870885
vt 0.853805 0.851819
vt 0.853805 0.870885
vt 0.858034 0.851819
vt 0.858034 0.870885
vt 0.876762 0.851819
vt 0.876762 0.870885
vt 0.880886 0.851819
vt 0.880886 0.870885
vt 0.349574 0.522501
s 1
usemtl VstController_250406
f 56/1/1 55/2/2 22/3/3
f 22/3/3 23/4/4 56/1/1
f 57/5/5 56/1/1 23/4/4
f 23/4/4 24/6/6 57/5/5
f 65/7/7 66/8/8 25/9/9
f 25/9/9 58/10/10 65/7/7
f 25/9/9 26/11/11 59/12/12
f 59/12/12 58/10/10 25/9/9
f 59/12/12 26/11/11 27/13/13
f 27/13/13 60/14/14 59/12/12
f 41/15/15 60/14/14 27/13/13
f 27/13/13 28/16/16 41/15/15
f 42/17/17 41/15/15 28/16/16
f 28/16/16 29/18/18 42/17/17
f 62/19/19 63/20/20 30/21/21
f 30/21/21 43/22/22 62/19/19
f 30/21/21 31/23/23 44/24/24
f 44/24/24 43/22/22 30/21/21
f 32/25/25 45/26/26 44/24/24
f 44/24/24 31/23/23 32/25/25
f 46/27/27 45/26/26 32/25/25
f 32/25/25 33/28/28 46/27/27
f 47/29/29 46/27/27 33/28/28
f 33/28/28 34/30/30 47/29/29
f 68/31/31 69/32/32 35/33/33
f 35/33/33 48/34/34 68/31/31
f 35/33/33 36/35/35 49/36/36
f 49/36/36 48/34/34 35/33/33
f 37/37/37 50/38/38 49/36/36
f 49/36/36 36/35/35 37/37/37
f 51/39/39 50/38/38 37/37/37
f 37/37/37 38/40/40 51/39/39
f 52/41/41 51/39/39 38/40/40
f 38/40/40 39/42/42 52/41/41
f 71/43/43 72/44/44 40/45/45
f 40/45/45 53/46/46 71/43/43
f 40/45/45 21/47/47 54/48/48
f 54/48/48 53/46/46 40/45/45
f 21/47/47 22/3/3 55/2/2
f 55/2/2 54/48/48 21/47/47
f 1/49/49 13/50/50 23/51/4
f 23/51/4 22/52/3 1/49/49
f 4/53/51 15/54/52 28/55/16
f 28/55/16 27/56/13 4/53/51
f 7/57/53 17/58/54 33/59/28
f 33/59/28 32/60/25 7/57/53
f 6/61/55 16/62/56 31/63/23
f 31/63/23 30/64/21 6/61/55
f 10/65/57 19/66/58 38/67/40
f 38/67/40 37/68/37 10/65/57
f 9/69/59 18/70/60 36/71/35
f 36/71/35 35/72/33 9/69/59
f 40/73/45 12/74/61 20/75/62
f 20/75/62 21/76/47 40/73/45
f 3/77/63 14/78/64 26/79/11
f 26/79/11 25/80/9 3/77/63
f 2/81/65 67/82/66 66/83/8
f 66/83/8 24/84/6 2/81/65
f 13/50/50 2/81/65 24/84/6
f 24/84/6 23/51/4 13/50/50
f 14/85/64 4/53/51 27/56/13
f 27/56/13 26/86/11 14/85/64
f 15/54/52 5/87/67 29/88/18
f 29/88/18 28/55/16 15/54/52
f 5/87/67 64/89/68 63/90/20
f 63/90/20 29/88/18 5/87/67
f 16/62/56 7/57/53 32/60/25
f 32/60/25 31/63/23 16/62/56
f 17/58/54 8/91/69 34/92/30
f 34/92/30 33/59/28 17/58/54
f 8/91/69 70/93/70 69/94/32
f 69/94/32 34/92/30 8/91/69
f 18/70/60 10/65/57 37/68/37
f 37/68/37 36/71/35 18/70/60
f 19/66/58 11/95/71 39/96/42
f 39/96/42 38/67/40 19/66/58
f 11/95/71 73/97/72 72/98/44
f 72/98/44 39/96/42 11/95/71
f 21/76/47 20/75/62 1/49/49
f 1/49/49 22/52/3 21/76/47
f 56/1/1 61/99/73 55/2/2
f 57/5/5 61/99/73 56/1/1
f 58/10/10 61/99/73 65/7/7
f 59/12/12 61/99/73 58/10/10
f 60/14/14 61/99/73 59/12/12
f 41/15/15 61/99/73 60/14/14
f 42/17/17 61/99/73 41/15/15
f 43/22/22 61/99/73 62/19/19
f 44/24/24 61/99/73 43/22/22
f 45/26/26 61/99/73 44/24/24
f 46/27/27 61/99/73 45/26/26
f 47/29/29 61/99/73 46/27/27
f 48/34/34 61/99/73 68/31/31
f 49/36/36 61/99/73 48/34/34
f 50/38/38 61/99/73 49/36/36
f 51/39/39 61/99/73 50/38/38
f 52/41/41 61/99/73 51/39/39
f 53/46/46 61/99/73 71/43/43
f 54/48/48 61/99/73 53/46/46
f 55/2/2 61/99/73 54/48/48
f 62/19/19 42/17/17 29/18/18
f 29/18/18 63/20/20 62/19/19
f 6/61/55 30/64/21 63/90/20
f 63/90/20 64/89/68 6/61/55
f 61/99/73 42/17/17 62/19/19
f 65/7/7 57/5/5 24/6/6
f 24/6/6 66/8/8 65/7/7
f 3/77/63 25/80/9 66/83/8
f 66/83/8 67/82/66 3/77/63
f 61/99/73 57/5/5 65/7/7
f 68/31/31 47/29/29 34/30/30
f 34/30/30 69/32/32 68/31/31
f 9/69/59 35/72/33 69/94/32
f 69/94/32 70/93/70 9/69/59
f 61/99/73 47/29/29 68/31/31
f 71/43/43 52/41/41 39/42/42
f 39/42/42 72/44/44 71/43/43
f 12/74/61 40/73/45 72/98/44
f 72/98/44 73/97/72 12/74/61
f 61/99/73 52/41/41 71/43/43
