# Blender 4.3.0
# www.blender.org
mtllib R_lowerButton.mtl
o R_lowerButton
v -0.013050 0.003953 0.046772
v -0.012257 0.005728 0.048751
v -0.010317 0.007104 0.049935
v -0.007790 0.007780 0.050099
v -0.005329 0.007613 0.049244
v -0.003483 0.006647 0.047572
v -0.002850 0.005119 0.045524
v -0.003557 0.003445 0.043648
v -0.005667 0.001924 0.042329
v -0.008120 0.001267 0.042163
v -0.010521 0.001411 0.042973
v -0.012466 0.002450 0.044766
v -0.011444 0.006505 0.049495
v -0.012856 0.004841 0.047816
v -0.009078 0.007559 0.050168
v -0.006492 0.007818 0.049803
v -0.004255 0.007229 0.048490
v -0.002971 0.005930 0.046555
v -0.003017 0.004260 0.044510
v -0.004472 0.002591 0.042836
v -0.006865 0.001481 0.042098
v -0.009388 0.001220 0.042440
v -0.011660 0.001822 0.043780
v -0.012918 0.003156 0.045755
v -0.012463 0.001493 0.048624
v -0.011670 0.003268 0.050602
v -0.009730 0.004645 0.051787
v -0.007203 0.005320 0.051951
v -0.004743 0.005153 0.051096
v -0.002896 0.004188 0.049424
v -0.002263 0.002660 0.047376
v -0.002971 0.000985 0.045500
v -0.005081 -0.000536 0.044181
v -0.007533 -0.001193 0.044015
v -0.009935 -0.001049 0.044824
v -0.011880 -0.000010 0.046617
v -0.010858 0.004045 0.051346
v -0.012269 0.002382 0.049668
v -0.008491 0.005099 0.052019
v -0.005905 0.005358 0.051654
v -0.003668 0.004769 0.050341
v -0.002384 0.003471 0.048407
v -0.002430 0.001801 0.046362
v -0.003885 0.000131 0.044688
v -0.006278 -0.000978 0.043950
v -0.008801 -0.001239 0.044291
v -0.011073 -0.000638 0.045631
v -0.012331 0.000696 0.047607
v -0.005143 0.007252 0.047574
v -0.006010 0.007561 0.048183
v -0.006943 0.007726 0.048629
v -0.007965 0.007701 0.048869
v -0.008984 0.007522 0.048916
v -0.009970 0.007160 0.048731
v -0.010873 0.006674 0.048371
v -0.011531 0.006048 0.047772
v -0.012004 0.005348 0.047033
v -0.012165 0.004651 0.046217
v -0.012058 0.004016 0.045407
v -0.011687 0.003451 0.044613
v -0.011043 0.002947 0.043824
v -0.010137 0.002619 0.043180
v -0.009225 0.002463 0.042747
v -0.008226 0.002492 0.042521
v -0.007232 0.002671 0.042478
v -0.006273 0.003029 0.042669
v -0.005318 0.003563 0.043075
v -0.004592 0.004243 0.043721
v -0.004154 0.004899 0.044413
v -0.004010 0.005575 0.045209
v -0.004116 0.006214 0.046022
v -0.004522 0.006780 0.046829
v -0.008114 0.005205 0.045634
vn -0.9988 0.0493 -0.0074
vn -0.9819 -0.1328 0.1348
vn -0.9389 0.0338 0.3424
vn -0.9574 0.2186 0.1886
vn 0.0106 0.7741 0.6330
vn 0.0525 0.6086 0.7918
vn 0.2982 0.6185 0.7270
vn 0.2464 0.7881 0.5641
vn 0.7608 -0.0047 -0.6490
vn 0.8281 -0.1976 -0.5247
vn 0.6626 -0.3432 -0.6658
vn 0.5968 -0.1424 -0.7896
vn 0.9128 0.3072 -0.2692
vn 0.9820 0.1332 -0.1342
vn 0.9419 -0.0273 -0.3347
vn 0.8706 0.1582 -0.4658
vn 0.7936 0.5945 0.1297
vn 0.8613 0.4203 0.2854
vn 0.9552 0.2859 0.0771
vn 0.8846 0.4612 -0.0683
vn -0.0812 -0.4129 -0.9071
vn -0.0428 -0.6074 -0.7933
vn -0.2809 -0.6191 -0.7334
vn -0.3137 -0.4174 -0.8529
vn 0.3937 -0.2670 -0.8796
vn 0.4511 -0.4656 -0.7614
vn 0.2053 -0.5569 -0.8048
vn 0.1562 -0.3576 -0.9207
vn -0.5430 -0.3882 -0.7446
vn -0.5182 -0.5898 -0.6193
vn -0.7090 -0.5242 -0.4717
vn -0.7309 -0.3170 -0.6045
vn -0.8587 0.3726 0.3518
vn -0.8364 0.1880 0.5148
vn -0.6565 0.3474 0.6695
vn -0.6827 0.5331 0.4997
vn 0.4638 0.7607 0.4541
vn 0.5207 0.5893 0.6177
vn 0.7081 0.5247 0.4726
vn 0.6427 0.7010 0.3092
vn -0.8847 -0.2165 -0.4127
vn -0.8667 -0.4150 -0.2766
vn -0.9567 -0.2821 -0.0715
vn -0.9729 -0.0877 -0.2138
vn -0.4610 0.6541 0.5997
vn -0.4296 0.4754 0.7677
vn -0.2000 0.5584 0.8051
vn -0.2370 0.7311 0.6398
vn -0.3411 0.7630 -0.5491
vn -0.3395 0.7334 -0.5889
vn -0.3187 0.7930 -0.5191
vn -0.2928 0.8264 -0.4810
vn -0.2423 0.8473 -0.4726
vn -0.1998 0.8644 -0.4614
vn -0.1530 0.8683 -0.4718
vn -0.1061 0.8743 -0.4737
vn -0.0654 0.8650 -0.4975
vn -0.0218 0.8559 -0.5167
vn -0.0004 0.8303 -0.5574
vn 0.0201 0.8041 -0.5941
vn 0.0148 0.7744 -0.6326
vn 0.0182 0.7429 -0.6692
vn -0.0069 0.7113 -0.7028
vn -0.0284 0.6770 -0.7354
vn -0.0767 0.6611 -0.7463
vn -0.1213 0.6418 -0.7572
vn -0.1680 0.6407 -0.7492
vn -0.2135 0.6316 -0.7453
vn -0.2563 0.6417 -0.7228
vn -0.3013 0.6463 -0.7011
vn -0.3232 0.6765 -0.6618
vn -0.3418 0.7019 -0.6249
vn -0.1637 0.7660 -0.6217
vt 0.917033 0.875686
vt 0.917033 0.895059
vt 0.912631 0.895059
vt 0.912631 0.875686
vt 0.993980 0.875686
vt 0.993980 0.895059
vt 0.989745 0.895059
vt 0.989745 0.875686
vt 0.960145 0.875686
vt 0.960145 0.895059
vt 0.955401 0.895059
vt 0.955401 0.875686
vt 0.968549 0.875686
vt 0.968549 0.895059
vt 0.964291 0.895059
vt 0.964291 0.875686
vt 0.977013 0.875686
vt 0.977013 0.895059
vt 0.972736 0.895059
vt 0.972736 0.875686
vt 0.942576 0.875686
vt 0.942576 0.895059
vt 0.938447 0.895059
vt 0.938447 0.875686
vt 0.950757 0.875686
vt 0.950757 0.895059
vt 0.946629 0.895059
vt 0.946629 0.875686
vt 0.934420 0.875686
vt 0.934420 0.895059
vt 0.929796 0.895059
vt 0.929796 0.875686
vt 0.908114 0.875686
vt 0.908114 0.895059
vt 0.903824 0.895059
vt 0.903824 0.875686
vt 0.985594 0.875686
vt 0.985594 0.895059
vt 0.981247 0.895059
vt 0.981247 0.875686
vt 0.925283 0.875686
vt 0.925283 0.895059
vt 0.921162 0.895059
vt 0.921162 0.875686
vt 0.899527 0.875686
vt 0.899527 0.895059
vt 0.895265 0.895059
vt 0.895265 0.875686
vt 0.998142 0.875686
vt 0.998142 0.895059
vt 0.692813 0.063394
vt 0.698985 0.059895
vt 0.704120 0.066401
vt 0.695863 0.071082
vt 0.685668 0.065043
vt 0.686417 0.073254
vt 0.678550 0.065085
vt 0.677204 0.073235
vt 0.668479 0.070234
vt 0.671839 0.062744
vt 0.660680 0.065447
vt 0.665896 0.059096
vt 0.654624 0.058820
vt 0.661344 0.054091
vt 0.658030 0.048086
vt 0.650239 0.050807
vt 0.656510 0.041408
vt 0.648281 0.042110
vt 0.656397 0.034193
vt 0.648225 0.032780
vt 0.650674 0.024037
vt 0.658364 0.027416
vt 0.655167 0.016035
vt 0.661771 0.021335
vt 0.661661 0.009766
vt 0.666656 0.016623
vt 0.672599 0.013148
vt 0.669590 0.005137
vt 0.679273 0.011580
vt 0.678242 0.003079
vt 0.687038 0.011603
vt 0.688388 0.003185
vt 0.697856 0.006188
vt 0.694302 0.013952
vt 0.705445 0.010763
vt 0.700151 0.017440
vt 0.711324 0.017228
vt 0.704590 0.022321
vt 0.707890 0.028143
vt 0.715711 0.024956
vt 0.709404 0.034648
vt 0.717712 0.033366
vt 0.709483 0.042232
vt 0.717765 0.043269
vt 0.715048 0.052561
vt 0.707329 0.049344
vt 0.710482 0.060156
vt 0.703839 0.055200
vt 0.682880 0.038282
s 1
usemtl VstController_250406
f 1/1/1 25/2/2 38/3/3
f 38/3/3 14/4/4 1/1/1
f 4/5/5 28/6/6 40/7/7
f 40/7/7 16/8/8 4/5/5
f 8/9/9 32/10/10 44/11/11
f 44/11/11 20/12/12 8/9/9
f 7/13/13 31/14/14 43/15/15
f 43/15/15 19/16/16 7/13/13
f 6/17/17 30/18/18 42/19/19
f 42/19/19 18/20/20 6/17/17
f 10/21/21 34/22/22 46/23/23
f 46/23/23 22/24/24 10/21/21
f 9/25/25 33/26/26 45/27/27
f 45/27/27 21/28/28 9/25/25
f 11/29/29 35/30/30 47/31/31
f 47/31/31 23/32/32 11/29/29
f 2/33/33 26/34/34 37/35/35
f 37/35/35 13/36/36 2/33/33
f 5/37/37 29/38/38 41/39/39
f 41/39/39 17/40/40 5/37/37
f 12/41/41 36/42/42 48/43/43
f 48/43/43 24/44/44 12/41/41
f 3/45/45 27/46/46 39/47/47
f 39/47/47 15/48/48 3/45/45
f 13/36/36 37/35/35 27/46/46
f 27/46/46 3/45/45 13/36/36
f 14/4/4 38/3/3 26/34/34
f 26/34/34 2/33/33 14/4/4
f 15/49/48 39/50/47 28/6/6
f 28/6/6 4/5/5 15/49/48
f 16/8/8 40/7/7 29/38/38
f 29/38/38 5/37/37 16/8/8
f 17/40/40 41/39/39 30/18/18
f 30/18/18 6/17/17 17/40/40
f 18/20/20 42/19/19 31/14/14
f 31/14/14 7/13/13 18/20/20
f 19/16/16 43/15/15 32/10/10
f 32/10/10 8/9/9 19/16/16
f 20/12/12 44/11/11 33/26/26
f 33/26/26 9/25/25 20/12/12
f 21/28/28 45/27/27 34/22/22
f 34/22/22 10/21/21 21/28/28
f 22/24/24 46/23/23 35/30/30
f 35/30/30 11/29/29 22/24/24
f 23/32/32 47/31/31 36/42/42
f 36/42/42 12/41/41 23/32/32
f 24/44/44 48/43/43 25/2/2
f 25/2/2 1/1/1 24/44/44
f 57/51/49 58/52/50 1/53/1
f 1/53/1 14/54/4 57/51/49
f 56/55/51 57/51/49 14/54/4
f 14/54/4 2/56/33 56/55/51
f 55/57/52 56/55/51 2/56/33
f 2/56/33 13/58/36 55/57/52
f 3/59/45 54/60/53 55/57/52
f 55/57/52 13/58/36 3/59/45
f 15/61/48 53/62/54 54/60/53
f 54/60/53 3/59/45 15/61/48
f 53/62/54 15/61/48 4/63/5
f 4/63/5 52/64/55 53/62/54
f 51/65/56 52/64/55 4/63/5
f 4/63/5 16/66/8 51/65/56
f 50/67/57 51/65/56 16/66/8
f 16/66/8 5/68/37 50/67/57
f 49/69/58 50/67/57 5/68/37
f 5/68/37 17/70/40 49/69/58
f 6/71/17 72/72/59 49/69/58
f 49/69/58 17/70/40 6/71/17
f 18/73/20 71/74/60 72/72/59
f 72/72/59 6/71/17 18/73/20
f 7/75/13 70/76/61 71/74/60
f 71/74/60 18/73/20 7/75/13
f 69/77/62 70/76/61 7/75/13
f 7/75/13 19/78/16 69/77/62
f 68/79/63 69/77/62 19/78/16
f 19/78/16 8/80/9 68/79/63
f 67/81/64 68/79/63 8/80/9
f 8/80/9 20/82/12 67/81/64
f 9/83/25 66/84/65 67/81/64
f 67/81/64 20/82/12 9/83/25
f 21/85/28 65/86/66 66/84/65
f 66/84/65 9/83/25 21/85/28
f 10/87/21 64/88/67 65/86/66
f 65/86/66 21/85/28 10/87/21
f 63/89/68 64/88/67 10/87/21
f 10/87/21 22/90/24 63/89/68
f 62/91/69 63/89/68 22/90/24
f 22/90/24 11/92/29 62/91/69
f 61/93/70 62/91/69 11/92/29
f 11/92/29 23/94/32 61/93/70
f 12/95/41 60/96/71 61/93/70
f 61/93/70 23/94/32 12/95/41
f 24/97/44 59/98/72 60/96/71
f 60/96/71 12/95/41 24/97/44
f 1/53/1 58/52/50 59/98/72
f 59/98/72 24/97/44 1/53/1
f 58/52/50 57/51/49 73/99/73
f 57/51/49 56/55/51 73/99/73
f 56/55/51 55/57/52 73/99/73
f 55/57/52 54/60/53 73/99/73
f 54/60/53 53/62/54 73/99/73
f 53/62/54 52/64/55 73/99/73
f 52/64/55 51/65/56 73/99/73
f 51/65/56 50/67/57 73/99/73
f 50/67/57 49/69/58 73/99/73
f 49/69/58 72/72/59 73/99/73
f 72/72/59 71/74/60 73/99/73
f 71/74/60 70/76/61 73/99/73
f 70/76/61 69/77/62 73/99/73
f 69/77/62 68/79/63 73/99/73
f 68/79/63 67/81/64 73/99/73
f 67/81/64 66/84/65 73/99/73
f 66/84/65 65/86/66 73/99/73
f 65/86/66 64/88/67 73/99/73
f 64/88/67 63/89/68 73/99/73
f 63/89/68 62/91/69 73/99/73
f 62/91/69 61/93/70 73/99/73
f 61/93/70 60/96/71 73/99/73
f 60/96/71 59/98/72 73/99/73
f 59/98/72 58/52/50 73/99/73
