# Blender 4.3.0
# www.blender.org
mtllib R_thumbStick.mtl
o R_thumbStick
v 0.001619 -0.002264 0.036961
v 0.002810 -0.001433 0.037705
v 0.001550 -0.003058 0.042126
v -0.000026 -0.004151 0.041159
v 0.006306 -0.006866 0.031352
v 0.005128 -0.007026 0.031353
v 0.005556 -0.011829 0.031981
v 0.007556 -0.011492 0.032058
v 0.005634 -0.000824 0.038024
v 0.006989 -0.000950 0.037716
v 0.008445 -0.002124 0.042149
v 0.006254 -0.001918 0.042708
v 0.003733 -0.006945 0.031608
v 0.002447 -0.006538 0.032232
v 0.001311 -0.011176 0.033301
v 0.003468 -0.011756 0.032353
v 0.001464 -0.005895 0.033056
v 0.000841 -0.004973 0.034131
v -0.001405 -0.008729 0.036369
v -0.000303 -0.010207 0.034597
v 0.000686 -0.004087 0.035108
v 0.000955 -0.003149 0.036085
v -0.001282 -0.005755 0.039577
v -0.001660 -0.007172 0.038101
v 0.004170 -0.000994 0.038030
v 0.003932 -0.002178 0.042730
v 0.009523 -0.004721 0.033269
v 0.008710 -0.005710 0.032299
v 0.011258 -0.009585 0.033624
v 0.012459 -0.008099 0.035086
v 0.009802 -0.003766 0.034269
v 0.012871 -0.006587 0.036643
v 0.007655 -0.006404 0.031681
v 0.009513 -0.010777 0.032575
v 0.009654 -0.002844 0.035293
v 0.012695 -0.005210 0.038216
v 0.009161 -0.002061 0.036207
v 0.011954 -0.003986 0.039667
v 0.008280 -0.001426 0.037026
v 0.010570 -0.002894 0.041000
v 0.005730 -0.000929 0.038868
v 0.007260 -0.001075 0.038545
v 0.008724 -0.001618 0.037778
v 0.009722 -0.002337 0.036856
v 0.010280 -0.003216 0.035822
v 0.010432 -0.004242 0.034664
v 0.010110 -0.005302 0.033528
v 0.009188 -0.006386 0.032434
v 0.007987 -0.007142 0.031730
v 0.006486 -0.007638 0.031360
v 0.005162 -0.007802 0.031352
v 0.003617 -0.007700 0.031633
v 0.002186 -0.007240 0.032323
v 0.001094 -0.006525 0.033236
v 0.000400 -0.005503 0.034433
v 0.000226 -0.004519 0.035531
v 0.000518 -0.003489 0.036619
v 0.001258 -0.002506 0.037622
v 0.002563 -0.001604 0.038449
v 0.004090 -0.001113 0.038850
v 0.006079 -0.001262 0.041381
v 0.008107 -0.001439 0.040877
v 0.010049 -0.002175 0.039814
v 0.011341 -0.003171 0.038595
v 0.012046 -0.004300 0.037244
v 0.012208 -0.005605 0.035783
v 0.011836 -0.007012 0.034332
v 0.010711 -0.008419 0.032964
v 0.009106 -0.009519 0.032008
v 0.007254 -0.010197 0.031522
v 0.005416 -0.010508 0.031459
v 0.003442 -0.010447 0.031818
v 0.001448 -0.009902 0.032716
v -0.000059 -0.008991 0.033929
v -0.001056 -0.007612 0.035582
v -0.001280 -0.006186 0.037162
v -0.000908 -0.004842 0.038543
v 0.000222 -0.003377 0.039962
v 0.001765 -0.002321 0.040887
v 0.003925 -0.001516 0.041414
v 0.000712 -0.002836 0.038678
v 0.002160 -0.001844 0.039568
v 0.003985 -0.001206 0.040021
v 0.005880 -0.000986 0.040013
v 0.007654 -0.001144 0.039601
v 0.009347 -0.001786 0.038691
v 0.010494 -0.002635 0.037627
v 0.011128 -0.003636 0.036434
v 0.011285 -0.004806 0.035122
v 0.010940 -0.006037 0.033827
v 0.009912 -0.007287 0.032592
v 0.008516 -0.008209 0.031767
v 0.006828 -0.008797 0.031338
v 0.005257 -0.009029 0.031307
v 0.003488 -0.008947 0.031630
v 0.001784 -0.008441 0.032428
v 0.000486 -0.007626 0.033491
v -0.000349 -0.006429 0.034915
v -0.000545 -0.005236 0.036242
v -0.000209 -0.004045 0.037482
v 0.001466 -0.000911 0.035728
v 0.002642 -0.000101 0.036459
v 0.005460 0.000533 0.036771
v 0.006814 0.000398 0.036434
v 0.000710 -0.003601 0.032868
v 0.000540 -0.002720 0.033858
v 0.000794 -0.001798 0.034845
v 0.003999 0.000370 0.036791
v 0.000897 -0.000508 0.035966
v 0.006289 -0.005740 0.029558
v 0.005524 -0.005439 0.030188
v 0.005496 0.001154 0.037178
v 0.002331 -0.005095 0.031001
v 0.003337 -0.005836 0.029828
v 0.003604 -0.005456 0.030429
v 0.000728 -0.004651 0.031446
v 0.001345 -0.004475 0.031814
v -0.000192 -0.002609 0.033806
v 0.003815 0.000961 0.037190
v 0.009181 -0.003304 0.032040
v 0.008398 -0.004233 0.031123
v 0.009855 -0.003330 0.031697
v 0.009476 -0.002384 0.033010
v 0.010203 -0.002247 0.032840
v 0.007375 -0.004899 0.030527
v 0.009364 -0.001494 0.034007
v 0.010070 -0.001212 0.034001
v 0.008901 -0.000725 0.034915
v 0.009508 -0.000307 0.035055
v 0.008060 -0.000080 0.035740
v 0.008514 0.000445 0.036008
v 0.000088 0.000486 0.035831
v 0.005476 0.002441 0.037267
v 0.005511 0.001869 0.037419
v -0.001190 -0.001976 0.033305
v -0.000530 -0.001161 0.034901
v 0.003508 0.002204 0.037264
v 0.003625 0.001648 0.037422
v 0.010705 -0.002850 0.030798
v 0.010465 -0.003193 0.031248
v 0.009454 -0.004418 0.030048
v 0.011098 -0.001560 0.032173
v 0.010849 -0.001965 0.032549
v 0.010912 -0.000328 0.033551
v 0.010685 -0.000794 0.033861
v 0.010224 0.000733 0.034796
v 0.010038 0.000225 0.035046
v 0.009036 0.001611 0.035910
v 0.008911 0.001070 0.036113
v 0.008189 -0.005092 0.028678
v 0.006417 -0.005928 0.028820
v 0.001739 0.002415 0.035579
v 0.001619 0.002202 0.036121
v 0.006340 -0.005037 0.027566
v 0.007057 0.003103 0.035637
v 0.007213 0.002909 0.036171
v 0.001086 -0.004575 0.028789
v 0.002809 -0.005121 0.027957
v 0.002920 -0.005818 0.028589
v -0.001039 -0.002484 0.031348
v -0.000140 -0.004389 0.030532
v -0.000859 -0.000036 0.033997
v 0.009321 -0.002957 0.028677
v 0.009568 -0.003452 0.028892
v 0.010520 0.000715 0.032549
v 0.007939 -0.003883 0.027827
v 0.004618 -0.004705 0.027370
v 0.004614 -0.004103 0.027495
v 0.006848 0.003041 0.035072
v 0.006658 0.002839 0.034652
v 0.005193 0.002965 0.034985
v 0.001210 -0.004029 0.028592
v 0.001495 -0.003482 0.028618
v -0.000800 -0.002035 0.031043
v -0.000340 -0.001661 0.030868
v -0.000614 0.000291 0.033561
v -0.000166 0.000460 0.033174
v 0.008923 -0.002498 0.028689
v 0.009871 -0.001359 0.029806
v 0.009411 -0.001167 0.029855
v 0.009707 -0.000130 0.030966
v 0.007658 -0.003350 0.027912
v 0.009395 0.001776 0.033333
v 0.008978 0.001688 0.033068
v 0.003075 -0.006023 0.029140
v 0.000144 -0.004665 0.030974
v 0.001782 -0.003101 0.028773
v 0.003151 -0.003536 0.028102
v 0.007396 -0.002980 0.028130
v 0.005556 -0.005580 0.027774
v 0.001933 -0.005283 0.028598
v -0.000724 -0.003476 0.030912
v -0.001159 -0.000997 0.033675
v 0.008965 -0.004348 0.028682
v -0.000525 0.000252 0.034957
v -0.001253 -0.002239 0.032330
v 0.000372 -0.004556 0.029593
v 0.000755 0.001413 0.036060
v 0.005501 -0.005201 0.027494
v 0.006375 0.002773 0.036815
v 0.001911 -0.004894 0.028328
v -0.000701 -0.003104 0.030631
v -0.001114 -0.000656 0.033352
v 0.004436 0.002754 0.037043
v 0.010264 -0.003188 0.029782
v 0.011016 -0.001848 0.031152
v 0.008887 -0.003977 0.028398
v 0.011095 -0.000562 0.032562
v 0.010640 0.000604 0.033898
v 0.009693 0.001582 0.035092
v 0.008199 0.002349 0.036121
v 0.007303 -0.005144 0.028024
v 0.002510 0.002296 0.036797
v -0.000481 0.000570 0.034608
v -0.001214 -0.001880 0.032028
v 0.000375 -0.004175 0.029324
v 0.003785 -0.005627 0.027962
v 0.001051 0.000542 0.036550
v 0.006412 0.001824 0.037249
v -0.000769 -0.001762 0.034271
v 0.004567 0.001810 0.037477
v 0.010022 -0.003826 0.030617
v 0.010734 -0.002573 0.031893
v 0.010830 -0.001367 0.033213
v 0.010421 -0.000263 0.034470
v 0.009539 0.000672 0.035598
v 0.008137 0.001412 0.036581
v 0.007259 -0.005669 0.028986
v 0.002726 0.001384 0.037253
v 0.001265 0.001972 0.034644
v 0.005356 -0.004044 0.027459
v 0.002213 -0.003760 0.028210
v -0.000052 -0.002201 0.030241
v -0.000389 -0.000076 0.032616
v 0.009457 -0.001947 0.029220
v 0.008330 -0.002963 0.028252
v 0.009763 0.001341 0.032803
v 0.006887 -0.003664 0.027669
v 0.000172 0.000980 0.033700
v -0.000484 -0.001137 0.031463
v 0.000877 -0.003133 0.029091
v 0.003813 -0.004075 0.027639
v 0.002243 0.000405 0.036791
v 0.001520 -0.000021 0.036418
v 0.004891 -0.005935 0.029516
v 0.005594 -0.005877 0.029494
v 0.007076 0.000987 0.036780
v 0.006300 0.001118 0.037028
v 0.001866 -0.005400 0.030496
v 0.002574 -0.005660 0.030122
v 0.000003 -0.003646 0.032650
v 0.000306 -0.004166 0.032035
v 0.000108 -0.001542 0.034945
v -0.000102 -0.002076 0.034383
v 0.004656 0.001102 0.037233
v 0.008961 -0.004406 0.030641
v 0.009462 -0.003887 0.031141
v 0.010096 -0.002784 0.032263
v 0.007753 -0.005206 0.029933
v 0.008394 -0.004842 0.030242
v 0.010192 -0.001719 0.033426
v 0.009842 -0.000741 0.034541
v 0.009069 0.000090 0.035546
v 0.007832 0.000753 0.036430
v 0.007030 -0.005511 0.029705
v 0.003010 0.000731 0.037045
v 0.000434 -0.001017 0.035474
v -0.000160 -0.003129 0.033234
v 0.001249 -0.005064 0.030935
v 0.004124 -0.005925 0.029627
v 0.000827 0.001046 0.036350
v 0.001684 0.001537 0.036778
v 0.006416 0.002392 0.037091
v 0.007327 0.002232 0.036800
v -0.001072 -0.001352 0.033975
v -0.000819 -0.000726 0.034630
v 0.004491 0.002378 0.037325
v 0.010240 -0.003519 0.030130
v 0.009640 -0.004144 0.029530
v 0.010984 -0.002199 0.031480
v 0.011071 -0.000930 0.032871
v 0.010629 0.000225 0.034191
v 0.009698 0.001198 0.035373
v 0.008223 0.001964 0.036396
v 0.007320 -0.005451 0.028406
v 0.006432 -0.005721 0.028232
v 0.002575 0.001924 0.037082
v 0.000950 0.001947 0.035169
v 0.000054 0.001155 0.035177
v 0.000779 0.001713 0.035694
v 0.004707 -0.005648 0.027809
v 0.006399 -0.005416 0.027849
v 0.005601 -0.005883 0.028157
v 0.006191 0.003235 0.035892
v 0.005370 0.003099 0.036608
v 0.006305 0.003058 0.036447
v 0.001097 -0.004962 0.029058
v 0.002842 -0.005509 0.028227
v 0.002019 -0.005598 0.028951
v -0.001070 -0.002850 0.031640
v -0.000236 -0.004062 0.030209
v -0.000626 -0.003810 0.031229
v -0.000902 -0.000366 0.034332
v -0.001281 -0.001626 0.033002
v 0.004373 0.003196 0.036084
v 0.003422 0.002858 0.036599
v 0.004394 0.003031 0.036660
v 0.009904 -0.002354 0.029255
v 0.010646 -0.002149 0.030164
v 0.010175 -0.002822 0.029495
v 0.010613 -0.001084 0.030554
v 0.011022 -0.000852 0.031553
v 0.010918 -0.001494 0.030853
v 0.008185 -0.004783 0.028301
v 0.009655 -0.003822 0.029173
v 0.008959 -0.004663 0.029050
v 0.010677 0.000138 0.031897
v 0.010825 0.000387 0.032935
v 0.010990 -0.000217 0.032254
v 0.010238 0.001238 0.033163
v 0.010121 0.001438 0.034182
v 0.010534 0.000936 0.033576
v 0.009326 0.002151 0.034288
v 0.008922 0.002307 0.035288
v 0.009588 0.001899 0.034755
v 0.007910 0.002862 0.035258
v 0.008108 0.002651 0.035772
v 0.007098 -0.004226 0.027562
v 0.008117 -0.004411 0.028014
v 0.007240 -0.004769 0.027738
v 0.002573 0.002775 0.035862
v 0.002498 0.002583 0.036421
v 0.000014 0.000849 0.035537
v -0.000446 -0.000109 0.035253
v -0.001158 -0.002586 0.032637
v 0.000467 -0.004879 0.029926
v 0.003743 -0.004676 0.027526
v 0.004657 -0.005269 0.027531
v 0.003742 -0.005244 0.027688
v 0.000267 0.001413 0.034675
v 0.005427 -0.004640 0.027331
v 0.006233 -0.004481 0.027399
v 0.006055 0.003157 0.035306
v 0.005935 0.002945 0.034865
v 0.005240 0.003180 0.035438
v 0.001995 -0.004334 0.028148
v 0.002852 -0.004553 0.027789
v -0.000483 -0.002627 0.030361
v -0.000030 -0.003183 0.029698
v -0.000858 -0.000298 0.032951
v -0.000974 -0.000887 0.032323
v 0.004393 0.003115 0.035480
v 0.003549 0.002965 0.035429
v 0.010356 -0.001711 0.029894
v 0.010107 -0.000784 0.030411
v 0.009626 -0.000644 0.030406
v 0.010195 -0.000220 0.031026
v 0.008673 -0.003464 0.028200
v 0.010167 0.000336 0.031642
v 0.010022 0.000863 0.032241
v 0.009838 0.001714 0.033741
v 0.008925 0.002174 0.033835
v 0.008550 0.002050 0.033525
v 0.008341 0.002526 0.034301
v 0.007629 0.002822 0.034725
v 0.002746 0.002730 0.035278
v 0.002923 0.002555 0.034839
v 0.001985 0.002402 0.035019
v -0.000246 0.000861 0.034137
v -0.000960 -0.001460 0.031692
v 0.000535 -0.003648 0.029109
v 0.001616 0.001907 0.036491
v 0.005428 0.002820 0.036987
v 0.007293 0.002615 0.036527
v -0.000222 -0.003686 0.029938
v -0.001236 -0.001276 0.032691
v 0.003448 0.002578 0.036980
v 0.010737 -0.002509 0.030458
v 0.011127 -0.001201 0.031856
v 0.010930 0.000047 0.033251
v 0.010227 0.001114 0.034510
v 0.009022 0.001997 0.035632
v 0.003852 -0.005931 0.028334
v 0.004831 -0.006144 0.028774
v 0.005628 -0.006082 0.028748
v 0.001419 -0.005519 0.029902
v 0.002214 -0.005818 0.029477
v -0.000662 -0.003526 0.032330
v -0.000326 -0.004114 0.031639
v 0.008081 -0.005325 0.029245
v 0.008810 -0.004913 0.029595
v 0.000347 0.000000 0.036049
v -0.000169 -0.000571 0.035496
v -0.000876 -0.002360 0.033626
v -0.000843 -0.002945 0.032986
v 0.000727 -0.005133 0.030399
v 0.003964 -0.006128 0.028905
v 0.001869 0.001016 0.036964
v 0.007283 0.001673 0.036969
v 0.004763 -0.005949 0.028188
v 0.001189 -0.005282 0.029402
v -0.000972 -0.003193 0.031952
v 0.001574 0.001865 0.034263
v 0.000642 0.001483 0.034192
v 0.006094 -0.003898 0.027520
v 0.005300 0.003264 0.036037
v 0.002437 -0.003354 0.028402
v 0.002997 -0.003960 0.027881
v 0.000360 -0.002708 0.029632
v 0.000067 -0.000000 0.032415
v -0.000496 -0.000614 0.032041
v 0.003451 0.003032 0.036027
v 0.010709 -0.000469 0.031226
v 0.008008 -0.002628 0.028440
v 0.009313 0.001292 0.032585
v 0.008688 0.002537 0.034796
v 0.006694 -0.003267 0.027909
v 0.000578 0.000961 0.033403
v 0.001219 -0.002783 0.029204
v 0.003893 -0.003641 0.027882
v 0.004852 -0.000363 0.031399
v 0.001007 0.001420 0.033851
v 0.002229 0.002256 0.034604
v 0.003654 0.002769 0.034977
v 0.008017 0.002370 0.033949
v 0.009549 0.000856 0.032073
v 0.008548 -0.002204 0.028837
v 0.005972 -0.003480 0.027773
v 0.004623 -0.003667 0.027751
v 0.000749 -0.002396 0.029697
v 0.000111 -0.001443 0.030823
v -0.000030 -0.000490 0.031891
v 0.000270 0.000488 0.032923
v 0.002326 0.002159 0.034485
v 0.006591 0.002720 0.034531
v 0.008411 -0.002136 0.028933
v 0.007301 -0.002883 0.028251
v 0.004632 -0.003544 0.027887
v 0.001897 -0.002999 0.028871
v 0.000288 -0.001403 0.030844
v 0.000441 0.000457 0.032867
v 0.004422 0.002906 0.035024
v 0.009681 0.000376 0.031527
v 0.007369 0.002640 0.034336
v 0.005299 -0.003613 0.027717
v 0.000374 -0.001935 0.030252
v 0.009034 -0.001702 0.029321
v -0.000019 -0.000966 0.031365
v 0.003214 -0.003418 0.028225
v 0.005930 -0.003364 0.027908
v 0.009242 -0.001137 0.029913
v 0.009527 -0.000138 0.030982
v 0.009375 0.000811 0.032048
v 0.008825 0.001612 0.033006
v 0.007900 0.002269 0.033855
v 0.005180 0.002841 0.034852
v 0.003698 0.002653 0.034844
v 0.001150 0.001353 0.033760
v 0.000151 -0.000485 0.031873
v 0.000902 -0.002321 0.029761
vn -0.7800 0.5309 0.3313
vn -0.6403 0.7634 -0.0850
vn -0.4537 0.8906 0.0309
vn -0.5432 0.6843 0.4865
vn 0.2272 -0.3615 -0.9043
vn 0.1188 0.0428 -0.9920
vn -0.1004 0.0175 -0.9948
vn -0.0748 -0.4526 -0.8886
vn 0.0274 0.9419 0.3347
vn 0.3123 0.9122 0.2654
vn 0.2420 0.9675 0.0730
vn -0.0065 0.9902 0.1393
vn -0.3502 -0.4250 -0.8347
vn -0.3103 0.0300 -0.9502
vn -0.5080 0.0909 -0.8566
vn -0.6097 -0.3713 -0.7002
vn -0.8275 -0.2258 -0.5141
vn -0.6682 0.1977 -0.7172
vn -0.7636 0.3215 -0.5600
vn -0.9508 -0.0756 -0.3003
vn -0.9879 0.1381 -0.0708
vn -0.7935 0.4697 -0.3869
vn -0.7504 0.6208 -0.2270
vn -0.9340 0.3249 0.1488
vn -0.2202 0.9721 0.0809
vn -0.0094 0.9968 0.0797
vn 0.0512 0.8341 0.5493
vn -0.2363 0.7932 0.5612
vn 0.8556 0.0408 -0.5161
vn 0.6130 0.3695 -0.6983
vn 0.4989 0.2291 -0.8358
vn 0.7108 -0.1438 -0.6886
vn 0.8325 0.3753 -0.4075
vn 0.7745 0.1904 -0.6032
vn 0.6547 0.3309 -0.6796
vn 0.7063 0.4966 -0.5045
vn 0.3202 0.1112 -0.9408
vn 0.4510 -0.3061 -0.8384
vn 0.6417 0.6726 -0.3686
vn 0.6658 0.5285 -0.5267
vn 0.9271 0.2413 -0.2866
vn 0.9032 0.4228 -0.0738
vn 0.7096 0.7041 -0.0282
vn 0.8106 0.5434 -0.2183
vn 0.6817 0.6483 -0.3391
vn 0.5949 0.7855 -0.1704
vn 0.5325 0.8354 0.1364
vn 0.4403 0.8974 -0.0304
vn -0.8706 0.4912 -0.0284
vn -0.7426 0.6558 0.1362
vn -0.6790 0.7339 -0.0180
vn -0.7942 0.5845 -0.1661
vn -0.5285 0.7658 0.3663
vn -0.5129 0.8138 0.2732
vn -0.7686 0.5980 0.2273
vn 0.3421 0.8648 0.3675
vn 0.0482 0.8982 0.4369
vn -0.2547 0.9063 0.3372
vn -0.2564 0.8628 0.4356
vn 0.8319 0.0996 -0.5460
vn 0.8899 0.2999 -0.3439
vn 0.7650 0.6418 0.0539
vn 0.8700 0.4723 -0.1414
vn 0.5738 0.7866 0.2281
vn -0.9027 0.4267 0.0548
vn -0.7162 0.1263 0.6864
vn -0.4903 0.2837 0.8241
vn 0.1277 -0.7923 -0.5966
vn 0.3654 0.8042 0.4687
vn 0.4177 0.3986 0.8165
vn 0.1065 0.4247 0.8991
vn -0.5459 -0.7617 -0.3490
vn -0.2480 -0.8363 -0.4890
vn -0.8852 -0.4628 0.0478
vn -0.7680 -0.6205 -0.1586
vn -0.8650 -0.0711 0.4967
vn -0.9213 -0.2644 0.2851
vn -0.1850 0.3857 0.9039
vn 0.7675 -0.5398 -0.3458
vn 0.9169 -0.3606 -0.1711
vn 0.9854 -0.1600 0.0576
vn 0.4706 -0.7261 -0.5014
vn 0.9608 0.0206 0.2765
vn 0.8508 0.1886 0.4904
vn 0.7930 0.5928 0.1406
vn 0.6568 0.3245 0.6806
vn 0.6006 0.7274 0.3318
vn -0.4775 0.8723 0.1053
vn 0.1416 -0.0258 -0.9896
vn -0.0905 -0.0557 -0.9943
vn 0.2226 0.9748 0.0162
vn -0.3189 -0.0488 -0.9465
vn -0.5287 0.0132 -0.8487
vn -0.7070 0.1254 -0.6960
vn -0.8114 0.2641 -0.5215
vn -0.8422 0.4193 -0.3390
vn -0.2370 0.9604 0.1465
vn 0.5344 0.1755 -0.8268
vn 0.3510 0.0493 -0.9351
vn 0.5577 0.8037 -0.2075
vn 0.4097 0.9093 -0.0731
vn 0.1963 -0.2129 -0.9571
vn 0.2247 -0.3280 -0.9175
vn -0.0460 -0.3726 -0.9269
vn -0.0626 -0.2517 -0.9658
vn -0.3277 -0.2424 -0.9131
vn -0.3265 -0.3637 -0.8725
vn -0.5782 -0.2909 -0.7623
vn -0.5649 -0.1736 -0.8067
vn -0.7725 -0.0476 -0.6332
vn -0.7988 -0.1592 -0.5801
vn -0.9279 0.0228 -0.3722
vn -0.8928 0.1201 -0.4342
vn -0.9259 0.2995 -0.2303
vn -0.9629 0.2185 -0.1586
vn 0.6891 -0.0843 -0.7198
vn 0.6372 0.0143 -0.7706
vn 0.4735 -0.2314 -0.8499
vn 0.4324 -0.1253 -0.8929
vn -0.1550 -0.5268 0.8357
vn -0.2158 -0.5382 0.8147
vn 0.1694 -0.8907 0.4219
vn 0.1156 -0.9079 0.4029
vn 0.1716 -0.4565 0.8730
vn 0.1144 -0.4288 0.8961
vn -0.0623 -0.8956 0.4405
vn -0.0272 -0.9146 0.4035
vn -0.2240 -0.8107 0.5409
vn -0.2231 -0.8402 0.4943
vn -0.2627 -0.6693 0.6950
vn -0.2929 -0.6975 0.6540
vn 0.0587 -0.4557 0.8882
vn -0.0061 -0.4356 0.9001
vn 0.3489 -0.7881 0.5071
vn 0.3968 -0.7564 0.5200
vn 0.3890 -0.7245 0.5691
vn 0.4190 -0.6858 0.5951
vn 0.2866 -0.8410 0.4589
vn 0.3426 -0.8170 0.4638
vn 0.3947 -0.6621 0.6370
vn 0.4113 -0.6166 0.6714
vn 0.3790 -0.5942 0.7094
vn 0.3816 -0.5456 0.7462
vn 0.3377 -0.5363 0.7735
vn 0.3172 -0.4871 0.8137
vn 0.2662 -0.4871 0.8318
vn 0.2338 -0.4400 0.8670
vn 0.1890 -0.8670 0.4611
vn 0.2606 -0.8689 0.4208
vn -0.0551 -0.4747 0.8784
vn -0.1292 -0.4722 0.8720
vn -0.2264 -0.5936 0.7722
vn -0.2752 -0.6193 0.7353
vn -0.2621 -0.7413 0.6179
vn -0.2729 -0.7778 0.5661
vn -0.1583 -0.8617 0.4821
vn -0.1305 -0.8888 0.4393
vn 0.0423 -0.8937 0.4468
vn 0.0650 -0.9077 0.4145
vn -0.6047 0.2284 0.7630
vn -0.7151 0.1370 0.6855
vn -0.4896 -0.2547 0.8339
vn -0.4109 -0.1877 0.8922
vn -0.4926 0.2976 0.8178
vn -0.3263 -0.1329 0.9359
vn 0.2659 0.4138 0.8707
vn 0.1068 0.4230 0.8998
vn 0.1228 -0.0494 0.9912
vn 0.2400 -0.0517 0.9694
vn 0.4091 0.3888 0.8255
vn 0.3464 -0.0680 0.9356
vn -0.9059 -0.1511 0.3957
vn -0.9213 -0.2540 0.2945
vn -0.6424 -0.5449 0.5389
vn -0.6325 -0.4712 0.6147
vn -0.8728 -0.0584 0.4846
vn -0.6051 -0.4027 0.6868
vn -0.0503 0.4161 0.9079
vn -0.2051 0.3932 0.8963
vn -0.1051 -0.0683 0.9921
vn 0.0083 -0.0547 0.9985
vn 0.8344 -0.5255 -0.1664
vn 0.8988 -0.4322 -0.0732
vn 0.6923 -0.6690 0.2704
vn 0.6452 -0.7354 0.2069
vn 0.7537 -0.6079 -0.2497
vn 0.5860 -0.7959 0.1522
vn 0.9454 -0.3241 0.0331
vn 0.9663 -0.2182 0.1369
vn 0.7399 -0.5222 0.4240
vn 0.7250 -0.5947 0.3475
vn 0.9645 -0.1191 0.2357
vn 0.9416 -0.0239 0.3358
vn 0.7273 -0.3802 0.5715
vn 0.7412 -0.4518 0.4966
vn 0.8967 0.0673 0.4374
vn 0.8334 0.1498 0.5321
vn 0.6511 -0.2514 0.7161
vn 0.6958 -0.3113 0.6473
vn 0.7506 0.2256 0.6210
vn 0.6442 0.2955 0.7054
vn 0.5161 -0.1436 0.8444
vn 0.5928 -0.1962 0.7811
vn 0.5299 0.3499 0.7725
vn 0.4339 -0.1003 0.8954
vn 0.3987 -0.8111 -0.4280
vn 0.5190 -0.7632 -0.3850
vn 0.4237 -0.9048 0.0422
vn 0.3372 -0.9413 0.0146
vn 0.2783 -0.8453 -0.4561
vn 0.2464 -0.9692 -0.0014
vn -0.3579 0.3531 0.8644
vn -0.2204 -0.0936 0.9709
vn -0.6477 0.7045 0.2901
vn -0.5383 0.7629 0.3581
vn -0.4597 0.8879 0.0179
vn -0.5479 0.8358 -0.0347
vn -0.7481 0.6308 0.2060
vn -0.6214 0.7772 -0.0990
vn 0.1111 -0.6844 -0.7206
vn 0.1326 -0.8748 -0.4660
vn -0.0205 -0.8876 -0.4601
vn -0.0564 -0.6974 -0.7144
vn 0.0757 -0.4201 -0.9043
vn -0.0899 -0.4301 -0.8983
vn 0.2227 -0.3928 -0.8922
vn 0.2640 -0.6546 -0.7084
vn 0.1890 0.8890 0.4170
vn 0.3377 0.8575 0.3881
vn 0.2306 0.9717 0.0505
vn 0.1089 0.9914 0.0726
vn 0.0334 0.9037 0.4268
vn -0.0125 0.9966 0.0812
vn -0.4872 -0.6195 -0.6155
vn -0.4278 -0.8249 -0.3695
vn -0.5514 -0.7760 -0.3062
vn -0.6145 -0.5660 -0.5496
vn -0.4957 -0.3493 -0.7952
vn -0.6141 -0.2958 -0.7317
vn -0.3686 -0.3867 -0.8454
vn -0.3509 -0.6594 -0.6649
vn -0.2950 -0.8605 -0.4154
vn -0.9113 -0.3183 -0.2614
vn -0.8361 -0.5478 -0.0303
vn -0.8849 -0.4611 0.0661
vn -0.9605 -0.2277 -0.1598
vn -0.8845 -0.0559 -0.4632
vn -0.9293 0.0318 -0.3679
vn -0.8186 -0.1387 -0.5574
vn -0.8385 -0.4063 -0.3632
vn -0.7649 -0.6318 -0.1255
vn -0.9781 0.1025 0.1811
vn -0.9414 0.1963 0.2742
vn -0.9383 0.3417 -0.0534
vn -0.9022 0.4299 0.0345
vn -0.9567 0.2471 -0.1536
vn -0.9973 -0.0022 0.0728
vn -0.1137 0.8968 0.4275
vn -0.1249 0.9887 0.0825
vn -0.2592 0.8700 0.4194
vn -0.2371 0.9685 0.0756
vn 0.7877 -0.0512 -0.6139
vn 0.7071 -0.1308 -0.6949
vn 0.5442 0.1757 -0.8204
vn 0.6052 0.2411 -0.7586
vn 0.8580 0.0444 -0.5117
vn 0.6639 0.3209 -0.6755
vn 0.9044 0.1612 -0.3950
vn 0.6997 0.4196 -0.5782
vn 0.9190 0.2670 -0.2899
vn 0.7120 0.5019 -0.4910
vn 0.6589 -0.4802 -0.5790
vn 0.6450 -0.6916 -0.3249
vn 0.5246 -0.5640 -0.6377
vn 0.6064 -0.2207 -0.7639
vn 0.4783 -0.3069 -0.8228
vn 0.7717 -0.3867 -0.5049
vn 0.9140 0.3585 -0.1901
vn 0.7076 0.5741 -0.4120
vn 0.8889 0.4501 -0.0854
vn 0.6832 0.6518 -0.3291
vn 0.8392 0.5435 0.0170
vn 0.6416 0.7277 -0.2424
vn 0.7709 0.6278 0.1075
vn 0.5862 0.7927 -0.1671
vn 0.6850 0.7028 0.1919
vn 0.5150 0.8510 -0.1025
vn 0.5775 0.7694 0.2730
vn 0.4280 0.9030 -0.0383
vn 0.4628 0.8191 0.3389
vn 0.3344 0.9424 0.0129
vn 0.3455 -0.3613 -0.8661
vn 0.1432 -0.0224 -0.9894
vn 0.2427 0.0047 -0.9701
vn 0.3544 0.0505 -0.9337
vn -0.4054 0.8225 0.3989
vn -0.3523 0.9341 0.0574
vn -0.8800 0.3013 0.3672
vn -0.8129 0.0336 0.5814
vn -0.7791 0.4158 0.4691
vn -0.8396 0.5305 0.1169
vn -0.9919 -0.1188 -0.0458
vn -0.9154 -0.3615 0.1773
vn -0.9552 0.1381 -0.2617
vn -0.7352 -0.4937 -0.4644
vn -0.6667 -0.7114 -0.2224
vn -0.7254 -0.2232 -0.6511
vn -0.2354 -0.4151 -0.8788
vn -0.3365 -0.0215 -0.9414
vn -0.2315 -0.0400 -0.9720
vn -0.1134 -0.0460 -0.9925
vn -0.3316 0.8959 -0.2956
vn -0.3854 0.8614 -0.3309
vn -0.4320 0.8239 -0.3668
vn 0.0235 -0.0399 -0.9989
vn -0.1154 0.3311 -0.9365
vn -0.0302 0.3365 -0.9412
vn 0.0428 0.3487 -0.9362
vn 0.0248 0.9639 -0.2650
vn 0.1003 0.9541 -0.2823
vn -0.0017 0.8649 -0.5020
vn -0.0503 0.8415 -0.5380
vn -0.0499 0.9650 -0.2576
vn -0.0741 0.8703 -0.4868
vn -0.4361 0.0113 -0.8998
vn -0.5304 0.0536 -0.8460
vn -0.3761 0.3820 -0.8442
vn -0.3163 0.3576 -0.8787
vn -0.2552 0.3415 -0.9046
vn -0.7375 0.2434 -0.6300
vn -0.7702 0.3163 -0.5538
vn -0.5240 0.5406 -0.6581
vn -0.5048 0.4948 -0.7074
vn -0.6889 0.1759 -0.7032
vn -0.4760 0.4534 -0.7536
vn -0.7731 0.5566 -0.3041
vn -0.7425 0.6280 -0.2330
vn -0.5048 0.7340 -0.4543
vn -0.5244 0.6887 -0.5008
vn -0.7877 0.4833 -0.3820
vn -0.5341 0.6431 -0.5488
vn -0.1193 0.9591 -0.2566
vn -0.1044 0.8400 -0.5325
vn -0.1884 0.9465 -0.2621
vn -0.1421 0.8615 -0.4875
vn 0.2968 0.4651 -0.8340
vn 0.3328 0.5048 -0.7965
vn 0.3632 0.5601 -0.7446
vn 0.3922 0.6177 -0.6817
vn 0.1259 0.6747 -0.7273
vn 0.0794 0.7182 -0.6913
vn 0.4008 0.6677 -0.6273
vn 0.1396 0.7291 -0.6700
vn 0.4633 0.1124 -0.8790
vn 0.1757 0.3926 -0.9028
vn 0.2466 0.4288 -0.8691
vn 0.3976 0.7120 -0.5788
vn 0.0851 0.7501 -0.6558
vn 0.3864 0.7592 -0.5238
vn 0.1298 0.7717 -0.6226
vn 0.3547 0.8076 -0.4712
vn 0.3166 0.8471 -0.4268
vn 0.2779 0.8815 -0.3818
vn 0.1041 0.8135 -0.5721
vn 0.0417 0.8118 -0.5824
vn 0.2235 0.9130 -0.3414
vn 0.0568 0.8453 -0.5313
vn 0.1648 0.9368 -0.3085
vn -0.0005 0.8317 -0.5552
vn 0.1045 0.3657 -0.9249
vn -0.2603 0.9253 -0.2757
vn -0.1565 0.8265 -0.5407
vn -0.2112 0.8356 -0.5071
vn -0.6910 0.7038 -0.1648
vn -0.4738 0.7799 -0.4090
vn -0.7881 0.4008 -0.4672
vn -0.5346 0.5930 -0.6020
vn -0.6179 0.1102 -0.7785
vn -0.4319 0.4150 -0.8007
vn -0.1900 0.3332 -0.9235
vn -0.6633 0.5004 0.5566
vn -0.5451 0.5616 0.6225
vn 0.2426 0.6950 0.6768
vn 0.0756 0.7113 0.6988
vn 0.3952 0.6606 0.6383
vn -0.0874 0.7034 0.7054
vn -0.2483 0.6733 0.6964
vn 0.8581 -0.2999 -0.4168
vn 0.9288 -0.2008 -0.3116
vn 0.9774 -0.0814 -0.1953
vn 0.9959 0.0313 -0.0853
vn 0.9911 0.1315 0.0215
vn 0.9649 0.2284 0.1295
vn 0.9156 0.3258 0.2356
vn 0.8470 0.4141 0.3334
vn 0.7581 0.4940 0.4258
vn 0.6451 0.5651 0.5143
vn 0.5241 0.6189 0.5851
vn 0.3920 -0.6190 -0.6806
vn -0.4058 0.6223 0.6694
vn -0.2071 -0.6869 -0.6966
vn -0.1582 -0.8818 -0.4443
vn 0.1373 -0.9904 -0.0141
vn 0.0285 -0.9995 -0.0111
vn -0.2663 -0.9623 0.0555
vn -0.3613 -0.9269 0.1018
vn -0.1666 -0.9858 0.0219
vn -0.5731 -0.7630 0.2990
vn -0.6113 -0.6988 0.3713
vn -0.5207 -0.8220 0.2305
vn 0.5111 -0.8545 0.0927
vn -0.5590 -0.3318 0.7599
vn -0.6347 -0.6245 0.4552
vn -0.4488 -0.8787 0.1625
vn -0.0674 -0.9977 0.0006
vn -0.2039 0.8029 -0.5601
vn -0.2627 0.8017 -0.5369
vn -0.0723 0.6119 -0.7876
vn -0.1078 0.5654 -0.8177
vn -0.0310 0.5758 -0.8170
vn -0.1780 0.6198 -0.7643
vn -0.2339 0.5894 -0.7733
vn -0.1750 0.5703 -0.8026
vn -0.2469 0.6661 -0.7038
vn -0.3056 0.6625 -0.6839
vn -0.2818 0.6219 -0.7306
vn -0.2581 0.7380 -0.6235
vn -0.2978 0.7569 -0.5818
vn -0.3121 0.7122 -0.6288
vn 0.0570 0.6743 -0.7363
vn 0.0898 0.6322 -0.7696
vn 0.0292 0.6490 -0.7602
vn 0.0333 0.5969 -0.8016
vn 0.0700 0.7847 -0.6159
vn -0.0234 0.6242 -0.7809
vn -0.2372 0.7735 -0.5878
vn -0.2598 0.7033 -0.6617
vn -0.2218 0.6404 -0.7354
vn -0.1327 0.6102 -0.7811
vn -0.0917 0.7346 -0.6722
vn -0.0911 0.7374 -0.6693
vn -0.0897 0.7342 -0.6729
vn -0.0890 0.7344 -0.6729
vn -0.0959 0.7384 -0.6675
vn -0.0951 0.7384 -0.6676
vn -0.0951 0.7364 -0.6698
vn -0.0945 0.7358 -0.6706
vn -0.0937 0.7351 -0.6715
vn -0.0884 0.7345 -0.6728
vn -0.0873 0.7355 -0.6719
vn -0.0925 0.7410 -0.6651
vn -0.0926 0.7409 -0.6652
vn -0.0908 0.7405 -0.6659
vn -0.0917 0.7408 -0.6655
vn -0.0862 0.7365 -0.6709
vn -0.0885 0.7380 -0.6690
vn -0.0866 0.7360 -0.6714
vn -0.0866 0.7367 -0.6707
vn -0.0940 0.7391 -0.6670
vn -0.0918 0.7413 -0.6649
vt 0.943315 0.932807
vt 0.943315 0.924573
vt 0.962599 0.924573
vt 0.962599 0.932807
vt 0.807796 0.932807
vt 0.807796 0.924573
vt 0.822223 0.924573
vt 0.822223 0.932807
vt 0.653089 0.907446
vt 0.669895 0.907446
vt 0.669895 0.916817
vt 0.653089 0.916817
vt 0.839284 0.932807
vt 0.839284 0.924573
vt 0.857282 0.924573
vt 0.857282 0.932807
vt 0.874606 0.932807
vt 0.874606 0.924573
vt 0.893383 0.924573
vt 0.893383 0.932807
vt 0.909544 0.932807
vt 0.909544 0.924573
vt 0.926054 0.924573
vt 0.926054 0.932807
vt 0.980492 0.924573
vt 0.998308 0.924573
vt 0.998308 0.932807
vt 0.980492 0.932807
vt 0.754059 0.932807
vt 0.754059 0.924573
vt 0.773304 0.924573
vt 0.773304 0.932807
vt 0.737159 0.907446
vt 0.754059 0.907446
vt 0.754059 0.916817
vt 0.737159 0.916817
vt 0.790293 0.924573
vt 0.790293 0.932807
vt 0.720604 0.924573
vt 0.737159 0.924573
vt 0.737159 0.932807
vt 0.720604 0.932807
vt 0.705016 0.907446
vt 0.720604 0.907446
vt 0.720604 0.916817
vt 0.705016 0.916817
vt 0.688603 0.907446
vt 0.688603 0.916817
vt 0.926054 0.907446
vt 0.943315 0.907446
vt 0.943315 0.916817
vt 0.926054 0.916817
vt 0.962599 0.900654
vt 0.962599 0.907446
vt 0.943315 0.900654
vt 0.669895 0.900654
vt 0.653089 0.900654
vt 0.998308 0.900654
vt 0.998308 0.907446
vt 0.980492 0.907446
vt 0.980492 0.900654
vt 0.754059 0.900654
vt 0.737159 0.900654
vt 0.705016 0.900654
vt 0.720604 0.900654
vt 0.688603 0.900654
vt 0.926054 0.900654
vt 0.943315 0.949636
vt 0.962599 0.949636
vt 0.815010 0.949636
vt 0.669895 0.932807
vt 0.669895 0.949636
vt 0.653089 0.949636
vt 0.653089 0.932807
vt 0.857282 0.949636
vt 0.839284 0.949636
vt 0.893383 0.949636
vt 0.874606 0.949636
vt 0.926054 0.949636
vt 0.909544 0.949636
vt 0.998308 0.949636
vt 0.980492 0.949636
vt 0.773304 0.949636
vt 0.754059 0.949636
vt 0.737159 0.949636
vt 0.790293 0.949636
vt 0.720604 0.949636
vt 0.705016 0.949636
vt 0.705016 0.932807
vt 0.688603 0.949636
vt 0.688603 0.932807
vt 0.962599 0.916817
vt 0.807796 0.916817
vt 0.822223 0.916817
vt 0.669895 0.924573
vt 0.653089 0.924573
vt 0.839284 0.916817
vt 0.857282 0.916817
vt 0.874606 0.916817
vt 0.893383 0.916817
vt 0.909544 0.916817
vt 0.980492 0.916817
vt 0.998308 0.916817
vt 0.773304 0.916817
vt 0.790293 0.916817
vt 0.705016 0.924573
vt 0.688603 0.924573
vt 0.807796 0.907446
vt 0.807796 0.900654
vt 0.822223 0.900654
vt 0.822223 0.907446
vt 0.839284 0.907446
vt 0.839284 0.900654
vt 0.857282 0.900654
vt 0.857282 0.907446
vt 0.874606 0.907446
vt 0.874606 0.900654
vt 0.893383 0.900654
vt 0.893383 0.907446
vt 0.909544 0.907446
vt 0.909544 0.900654
vt 0.773304 0.900654
vt 0.773304 0.907446
vt 0.790293 0.900654
vt 0.790293 0.907446
vt 0.962425 0.949636
vt 0.952957 0.957235
vt 0.943568 0.949636
vt 0.943568 0.957235
vt 0.807412 0.957235
vt 0.814982 0.949636
vt 0.815010 0.957235
vt 0.670133 0.949636
vt 0.661492 0.957235
vt 0.653089 0.957479
vt 0.857198 0.949636
vt 0.848283 0.957235
vt 0.839401 0.949636
vt 0.839401 0.957235
vt 0.893056 0.949636
vt 0.883995 0.957235
vt 0.874788 0.949636
vt 0.874788 0.957235
vt 0.926148 0.949636
vt 0.917799 0.957235
vt 0.909588 0.949636
vt 0.909588 0.957235
vt 0.980482 0.949636
vt 0.989400 0.957235
vt 0.980482 0.957235
vt 0.754352 0.949636
vt 0.763682 0.957235
vt 0.754352 0.957235
vt 0.737202 0.949636
vt 0.745609 0.957235
vt 0.737202 0.957235
vt 0.790357 0.949636
vt 0.781798 0.957235
vt 0.773022 0.949636
vt 0.773022 0.957235
vt 0.720725 0.949636
vt 0.728881 0.957235
vt 0.720725 0.957235
vt 0.704913 0.949636
vt 0.712810 0.957235
vt 0.704913 0.957235
vt 0.688316 0.949636
vt 0.696810 0.957235
vt 0.688316 0.957235
vt 0.679249 0.957235
vt 0.670133 0.957235
vt 0.799045 0.957235
vt 0.790357 0.957235
vt 0.971545 0.957235
vt 0.962425 0.957235
vt 0.934685 0.957235
vt 0.926148 0.957235
vt 0.901464 0.957235
vt 0.893056 0.957235
vt 0.865944 0.957235
vt 0.857198 0.957235
vt 0.830754 0.957235
vt 0.822553 0.957235
vt 0.952957 0.971212
vt 0.943568 0.971212
vt 0.943568 0.964978
vt 0.952957 0.964978
vt 0.962425 0.971212
vt 0.962425 0.964978
vt 0.661492 0.971212
vt 0.653089 0.971174
vt 0.653089 0.965011
vt 0.661492 0.964978
vt 0.670133 0.971212
vt 0.670133 0.964978
vt 0.917799 0.971212
vt 0.909588 0.971212
vt 0.909588 0.964978
vt 0.917799 0.964978
vt 0.926148 0.971212
vt 0.926148 0.964978
vt 0.989400 0.971212
vt 0.980482 0.971212
vt 0.980482 0.964978
vt 0.989400 0.964978
vt 0.998308 0.971174
vt 0.998308 0.965011
vt 0.763682 0.971212
vt 0.754352 0.971212
vt 0.754352 0.964978
vt 0.763682 0.964978
vt 0.773022 0.971212
vt 0.773022 0.964978
vt 0.745609 0.971212
vt 0.737202 0.971212
vt 0.737202 0.964978
vt 0.745609 0.964978
vt 0.728881 0.971212
vt 0.720725 0.971212
vt 0.720725 0.964978
vt 0.728881 0.964978
vt 0.712810 0.971212
vt 0.704913 0.971212
vt 0.704913 0.964978
vt 0.712810 0.964978
vt 0.696810 0.971212
vt 0.688316 0.971212
vt 0.688316 0.964978
vt 0.696810 0.964978
vt 0.679249 0.971212
vt 0.679249 0.964978
vt 0.799045 0.971212
vt 0.790357 0.971212
vt 0.790357 0.964978
vt 0.799045 0.964978
vt 0.807412 0.971212
vt 0.807412 0.964978
vt 0.971545 0.971212
vt 0.971545 0.964978
vt 0.952957 0.980775
vt 0.962425 0.980775
vt 0.962425 0.986845
vt 0.952957 0.986845
vt 0.943568 0.980775
vt 0.943568 0.986845
vt 0.815010 0.976001
vt 0.815010 0.971212
vt 0.822553 0.971212
vt 0.822553 0.976001
vt 0.815010 0.980775
vt 0.822553 0.980775
vt 0.807412 0.980775
vt 0.807412 0.976001
vt 0.661492 0.980775
vt 0.670133 0.980775
vt 0.670133 0.986845
vt 0.661492 0.986845
vt 0.653089 0.980816
vt 0.653089 0.986836
vt 0.848283 0.976001
vt 0.848283 0.971212
vt 0.857198 0.971212
vt 0.857198 0.976001
vt 0.848283 0.980775
vt 0.857198 0.980775
vt 0.839401 0.980775
vt 0.839401 0.976001
vt 0.839401 0.971212
vt 0.883995 0.976001
vt 0.883995 0.971212
vt 0.893056 0.971212
vt 0.893056 0.976001
vt 0.883995 0.980775
vt 0.893056 0.980775
vt 0.874788 0.980775
vt 0.874788 0.976001
vt 0.874788 0.971212
vt 0.917799 0.976001
vt 0.926148 0.976001
vt 0.917799 0.980775
vt 0.926148 0.980775
vt 0.909588 0.980775
vt 0.909588 0.976001
vt 0.989400 0.980775
vt 0.998308 0.980816
vt 0.998308 0.986836
vt 0.989400 0.986845
vt 0.980482 0.980775
vt 0.980482 0.986845
vt 0.763682 0.980775
vt 0.773022 0.980775
vt 0.773022 0.986845
vt 0.763682 0.986845
vt 0.754352 0.980775
vt 0.754352 0.986845
vt 0.745609 0.980775
vt 0.745609 0.986845
vt 0.737202 0.980775
vt 0.737202 0.986845
vt 0.781799 0.976001
vt 0.781798 0.971212
vt 0.790357 0.976001
vt 0.781798 0.980775
vt 0.790357 0.980775
vt 0.773022 0.976001
vt 0.728881 0.980775
vt 0.728881 0.986845
vt 0.720725 0.980775
vt 0.720725 0.986845
vt 0.712810 0.980775
vt 0.712810 0.986845
vt 0.704913 0.980775
vt 0.704913 0.986845
vt 0.696810 0.980775
vt 0.696810 0.986845
vt 0.688316 0.980775
vt 0.688316 0.986845
vt 0.679249 0.980775
vt 0.679249 0.986845
vt 0.799045 0.980775
vt 0.807412 0.986845
vt 0.799045 0.986845
vt 0.790357 0.986845
vt 0.971545 0.980775
vt 0.971545 0.986845
vt 0.934685 0.976001
vt 0.934685 0.971212
vt 0.943568 0.976001
vt 0.934685 0.980775
vt 0.901464 0.976001
vt 0.901464 0.971212
vt 0.901464 0.980775
vt 0.865944 0.976001
vt 0.865944 0.971212
vt 0.865944 0.980775
vt 0.830754 0.980775
vt 0.839401 0.986845
vt 0.830754 0.986845
vt 0.822553 0.986845
vt 0.962425 0.993176
vt 0.952957 0.993176
vt 0.943568 0.993176
vt 0.815010 0.986845
vt 0.822553 0.993176
vt 0.815010 0.993176
vt 0.807412 0.993176
vt 0.661492 0.993176
vt 0.670133 0.993176
vt 0.670133 0.998243
vt 0.661492 0.998243
vt 0.653089 0.993133
vt 0.653089 0.998243
vt 0.848283 0.986845
vt 0.857198 0.986845
vt 0.857198 0.993176
vt 0.848283 0.993176
vt 0.839401 0.993176
vt 0.883995 0.986845
vt 0.893056 0.986845
vt 0.893056 0.993176
vt 0.883995 0.993176
vt 0.874788 0.986845
vt 0.874788 0.993176
vt 0.917799 0.986845
vt 0.926148 0.986845
vt 0.926148 0.993176
vt 0.917799 0.993176
vt 0.909588 0.986845
vt 0.909588 0.993176
vt 0.989400 0.993176
vt 0.998308 0.993133
vt 0.998308 0.998243
vt 0.989400 0.998243
vt 0.980482 0.993176
vt 0.980482 0.998243
vt 0.773022 0.993176
vt 0.763682 0.993176
vt 0.754352 0.993176
vt 0.745609 0.993176
vt 0.754352 0.998243
vt 0.745609 0.998243
vt 0.737202 0.993176
vt 0.737202 0.998243
vt 0.781798 0.986845
vt 0.790357 0.993176
vt 0.781798 0.993176
vt 0.728881 0.993176
vt 0.728881 0.998243
vt 0.720725 0.993176
vt 0.720725 0.998243
vt 0.712810 0.993176
vt 0.704913 0.993176
vt 0.696810 0.993176
vt 0.704913 0.998243
vt 0.696810 0.998243
vt 0.688316 0.993176
vt 0.688316 0.998243
vt 0.679249 0.993176
vt 0.679249 0.998243
vt 0.799045 0.993176
vt 0.971545 0.993176
vt 0.971545 0.998243
vt 0.962425 0.998243
vt 0.934685 0.986845
vt 0.934685 0.993176
vt 0.901464 0.986845
vt 0.901464 0.993176
vt 0.865944 0.986845
vt 0.865944 0.993176
vt 0.830754 0.993176
vt 0.952957 0.976001
vt 0.962425 0.976001
vt 0.661492 0.976001
vt 0.653089 0.976001
vt 0.670133 0.976001
vt 0.989400 0.976001
vt 0.980482 0.976001
vt 0.998308 0.976001
vt 0.763682 0.976001
vt 0.754352 0.976001
vt 0.745609 0.976001
vt 0.737202 0.976001
vt 0.728881 0.976001
vt 0.720725 0.976001
vt 0.712810 0.976001
vt 0.704913 0.976001
vt 0.696810 0.976001
vt 0.688316 0.976001
vt 0.679249 0.976001
vt 0.799045 0.976001
vt 0.971545 0.976001
vt 0.830754 0.976001
vt 0.830754 0.971212
vt 0.815010 0.964978
vt 0.822553 0.964978
vt 0.848283 0.964978
vt 0.857198 0.964978
vt 0.839401 0.964978
vt 0.883995 0.964978
vt 0.893056 0.964978
vt 0.874788 0.964978
vt 0.781798 0.964978
vt 0.934685 0.964978
vt 0.901464 0.964978
vt 0.865944 0.964978
vt 0.830754 0.964978
vt 0.998308 0.957479
vt 0.952957 0.998243
vt 0.943568 0.998243
vt 0.815010 0.998243
vt 0.822553 0.998243
vt 0.807412 0.998243
vt 0.848283 0.998243
vt 0.857198 0.998243
vt 0.839401 0.998243
vt 0.883995 0.998243
vt 0.893056 0.998243
vt 0.874788 0.998243
vt 0.917799 0.998243
vt 0.926148 0.998243
vt 0.909588 0.998243
vt 0.763682 0.998243
vt 0.773022 0.998243
vt 0.781798 0.998243
vt 0.790357 0.998243
vt 0.712810 0.998243
vt 0.799045 0.998243
vt 0.934685 0.998243
vt 0.901464 0.998243
vt 0.865944 0.998243
vt 0.830754 0.998243
vt 0.952960 0.849659
vt 0.952716 0.848079
vt 0.959464 0.848159
vt 0.946375 0.807079
vt 0.964846 0.844186
vt 0.965558 0.845615
vt 0.971369 0.842083
vt 0.975512 0.836552
vt 0.904223 0.814748
vt 0.905787 0.814463
vt 0.905977 0.821456
vt 0.910148 0.826802
vt 0.908752 0.827562
vt 0.912317 0.833163
vt 0.917658 0.836920
vt 0.926663 0.845315
vt 0.927394 0.843897
vt 0.932506 0.847800
vt 0.939187 0.847853
vt 0.938911 0.849424
vt 0.945919 0.850062
vt 0.976635 0.837688
vt 0.981095 0.832560
vt 0.983269 0.825892
vt 0.984693 0.826618
vt 0.987372 0.819783
vt 0.987404 0.812469
vt 0.926166 0.768831
vt 0.926918 0.770254
vt 0.921086 0.771939
vt 0.917667 0.777097
vt 0.952818 0.764724
vt 0.952577 0.766300
vt 0.945866 0.764286
vt 0.939182 0.766442
vt 0.977232 0.777157
vt 0.976084 0.778271
vt 0.971888 0.772630
vt 0.965104 0.770279
vt 0.988732 0.799456
vt 0.987157 0.799740
vt 0.987140 0.793216
vt 0.983262 0.788090
vt 0.904318 0.799909
vt 0.905880 0.800175
vt 0.903725 0.807343
vt 0.908413 0.786848
vt 0.909824 0.787599
vt 0.905840 0.793111
vt 0.916552 0.838070
vt 0.921340 0.842096
vt 0.916558 0.775940
vt 0.912160 0.781017
vt 0.988988 0.812676
vt 0.989394 0.805922
vt 0.984687 0.787356
vt 0.981441 0.782034
vt 0.965828 0.768856
vt 0.959471 0.766234
vt 0.938904 0.764871
vt 0.932222 0.766431
s 1
usemtl VstController_250406
f 1/1/1 58/2/2 59/3/3
f 59/3/3 2/4/4 1/1/1
f 5/5/5 50/6/6 51/7/7
f 51/7/7 6/8/8 5/5/5
f 61/9/9 62/10/10 85/11/11
f 85/11/11 84/12/12 61/9/9
f 13/13/13 52/14/14 53/15/15
f 53/15/15 14/16/16 13/13/13
f 17/17/17 54/18/18 55/19/19
f 55/19/19 18/20/20 17/17/17
f 21/21/21 56/22/22 57/23/23
f 57/23/23 22/24/24 21/21/21
f 60/25/25 41/26/26 9/27/27
f 9/27/27 25/28/28 60/25/25
f 27/29/29 47/30/30 48/31/31
f 48/31/31 28/32/32 27/29/29
f 66/33/33 67/34/34 90/35/35
f 90/35/35 89/36/36 66/33/33
f 48/31/31 49/37/37 33/38/38
f 33/38/38 28/32/32 48/31/31
f 45/39/39 46/40/40 31/41/41
f 31/41/41 35/42/42 45/39/39
f 64/43/43 65/44/44 88/45/45
f 88/45/45 87/46/46 64/43/43
f 63/47/47 64/43/43 87/46/46
f 87/46/46 86/48/48 63/47/47
f 62/10/10 63/47/47 86/48/48
f 86/48/48 85/11/11 62/10/10
f 49/37/37 50/6/6 5/5/5
f 5/5/5 33/38/38 49/37/37
f 59/3/3 60/25/25 25/28/28
f 25/28/28 2/4/4 59/3/3
f 77/49/49 78/50/50 81/51/51
f 81/51/51 100/52/52 77/49/49
f 55/19/19 56/22/22 21/21/21
f 21/21/21 18/20/20 55/19/19
f 53/15/15 54/18/18 17/17/17
f 17/17/17 14/16/16 53/15/15
f 51/7/7 52/14/14 13/13/13
f 13/13/13 6/8/8 51/7/7
f 3/53/53 79/54/54 78/50/50
f 78/50/50 4/55/55 3/53/53
f 11/56/56 62/10/10 61/9/9
f 61/9/9 12/57/57 11/56/56
f 12/58/57 61/59/9 80/60/58
f 80/60/58 26/61/59 12/58/57
f 30/62/60 67/34/34 66/33/33
f 66/33/33 32/63/61 30/62/60
f 38/64/62 36/65/63 65/44/44
f 65/44/44 64/43/43 38/64/62
f 40/66/64 38/64/62 64/43/43
f 64/43/43 63/47/47 40/66/64
f 11/56/56 40/66/64 63/47/47
f 63/47/47 62/10/10 11/56/56
f 23/67/65 4/55/55 78/50/50
f 78/50/50 77/49/49 23/67/65
f 101/68/66 1/1/1 2/4/4
f 2/4/4 102/69/67 101/68/66
f 5/5/5 6/8/8 111/70/68
f 10/71/69 104/72/70 103/73/71
f 103/73/71 9/74/27 10/71/69
f 14/16/16 113/75/72 115/76/73
f 115/76/73 13/13/13 14/16/16
f 18/20/20 105/77/74 117/78/75
f 117/78/75 17/17/17 18/20/20
f 22/24/24 107/79/76 106/80/77
f 106/80/77 21/21/21 22/24/24
f 9/27/27 103/81/71 108/82/78
f 108/82/78 25/28/28 9/27/27
f 28/32/32 121/83/79 120/84/80
f 120/84/80 27/29/29 28/32/32
f 27/29/29 120/84/80 123/85/81
f 123/85/81 31/41/41 27/29/29
f 28/32/32 33/38/38 125/86/82
f 125/86/82 121/83/79 28/32/32
f 31/41/41 123/85/81 126/87/83
f 126/87/83 35/42/42 31/41/41
f 35/42/42 126/87/83 128/88/84
f 128/88/84 37/89/85 35/42/42
f 37/89/85 128/88/84 130/90/86
f 130/90/86 39/91/87 37/89/85
f 10/71/69 39/91/87 130/90/86
f 130/90/86 104/72/70 10/71/69
f 33/38/38 5/5/5 111/70/68
f 111/70/68 125/86/82 33/38/38
f 2/4/4 25/28/28 108/82/78
f 108/82/78 102/69/67 2/4/4
f 22/24/24 1/1/1 101/68/66
f 101/68/66 107/79/76 22/24/24
f 18/20/20 21/21/21 106/80/77
f 106/80/77 105/77/74 18/20/20
f 14/16/16 17/17/17 117/78/75
f 117/78/75 113/75/72 14/16/16
f 6/8/8 13/13/13 115/76/73
f 115/76/73 111/70/68 6/8/8
f 81/51/51 82/92/88 59/3/3
f 59/3/3 58/2/2 81/51/51
f 50/6/6 93/93/89 94/94/90
f 94/94/90 51/7/7 50/6/6
f 42/95/91 10/71/69 9/74/27
f 9/74/27 41/96/26 42/95/91
f 52/14/14 95/97/92 96/98/93
f 96/98/93 53/15/15 52/14/14
f 54/18/18 97/99/94 98/100/95
f 98/100/95 55/19/19 54/18/18
f 56/22/22 99/101/96 100/52/52
f 100/52/52 57/23/23 56/22/22
f 83/102/97 84/103/12 41/26/26
f 41/26/26 60/25/25 83/102/97
f 47/30/30 90/35/35 91/104/98
f 91/104/98 48/31/31 47/30/30
f 27/29/29 31/41/41 46/40/40
f 46/40/40 47/30/30 27/29/29
f 48/31/31 91/104/98 92/105/99
f 92/105/99 49/37/37 48/31/31
f 88/45/45 89/36/36 46/40/40
f 46/40/40 45/39/39 88/45/45
f 35/42/42 37/89/85 44/106/100
f 44/106/100 45/39/39 35/42/42
f 37/89/85 39/91/87 43/107/101
f 43/107/101 44/106/100 37/89/85
f 39/91/87 10/71/69 42/95/91
f 42/95/91 43/107/101 39/91/87
f 49/37/37 92/105/99 93/93/89
f 93/93/89 50/6/6 49/37/37
f 59/3/3 82/92/88 83/102/97
f 83/102/97 60/25/25 59/3/3
f 1/1/1 22/24/24 57/23/23
f 57/23/23 58/2/2 1/1/1
f 55/19/19 98/100/95 99/101/96
f 99/101/96 56/22/22 55/19/19
f 53/15/15 96/98/93 97/99/94
f 97/99/94 54/18/18 53/15/15
f 51/7/7 94/94/90 95/97/92
f 95/97/92 52/14/14 51/7/7
f 70/108/102 8/109/103 7/110/104
f 7/110/104 71/111/105 70/108/102
f 72/112/106 16/113/107 15/114/108
f 15/114/108 73/115/109 72/112/106
f 74/116/110 20/117/111 19/118/112
f 19/118/112 75/119/113 74/116/110
f 76/120/114 24/121/115 23/67/65
f 23/67/65 77/49/49 76/120/114
f 67/34/34 30/62/60 29/122/116
f 29/122/116 68/123/117 67/34/34
f 68/123/117 29/122/116 34/124/118
f 34/124/118 69/125/119 68/123/117
f 36/65/63 32/63/61 66/33/33
f 66/33/33 65/44/44 36/65/63
f 69/125/119 34/124/118 8/109/103
f 8/109/103 70/108/102 69/125/119
f 79/54/54 3/53/53 26/61/59
f 26/61/59 80/60/58 79/54/54
f 75/119/113 19/118/112 24/121/115
f 24/121/115 76/120/114 75/119/113
f 73/115/109 15/114/108 20/117/111
f 20/117/111 74/116/110 73/115/109
f 71/111/105 7/110/104 16/113/107
f 16/113/107 72/112/106 71/111/105
f 42/95/91 41/96/26 84/12/12
f 84/12/12 85/11/11 42/95/91
f 47/30/30 46/40/40 89/36/36
f 89/36/36 90/35/35 47/30/30
f 45/39/39 44/106/100 87/46/46
f 87/46/46 88/45/45 45/39/39
f 44/106/100 43/107/101 86/48/48
f 86/48/48 87/46/46 44/106/100
f 43/107/101 42/95/91 85/11/11
f 85/11/11 86/48/48 43/107/101
f 58/2/2 57/23/23 100/52/52
f 100/52/52 81/51/51 58/2/2
f 78/50/50 79/54/54 82/92/88
f 82/92/88 81/51/51 78/50/50
f 93/93/89 70/108/102 71/111/105
f 71/111/105 94/94/90 93/93/89
f 95/97/92 72/112/106 73/115/109
f 73/115/109 96/98/93 95/97/92
f 97/99/94 74/116/110 75/119/113
f 75/119/113 98/100/95 97/99/94
f 99/101/96 76/120/114 77/49/49
f 77/49/49 100/52/52 99/101/96
f 80/60/58 61/59/9 84/103/12
f 84/103/12 83/102/97 80/60/58
f 90/35/35 67/34/34 68/123/117
f 68/123/117 91/104/98 90/35/35
f 91/104/98 68/123/117 69/125/119
f 69/125/119 92/105/99 91/104/98
f 65/44/44 66/33/33 89/36/36
f 89/36/36 88/45/45 65/44/44
f 92/105/99 69/125/119 70/108/102
f 70/108/102 93/93/89 92/105/99
f 82/92/88 79/54/54 80/60/58
f 80/60/58 83/102/97 82/92/88
f 98/100/95 75/119/113 76/120/114
f 76/120/114 99/101/96 98/100/95
f 96/98/93 73/115/109 74/116/110
f 74/116/110 97/99/94 96/98/93
f 94/94/90 71/111/105 72/112/106
f 72/112/106 95/97/92 94/94/90
f 102/126/67 244/127/120 101/128/66
f 109/129/121 101/128/66 244/127/120
f 110/130/122 111/131/68 246/132/123
f 104/133/70 248/134/124 103/73/71
f 112/135/125 103/73/71 248/134/124
f 113/136/72 250/137/126 115/138/73
f 114/139/127 115/138/73 250/137/126
f 105/140/74 252/141/128 117/142/75
f 116/143/129 117/142/75 252/141/128
f 107/144/76 254/145/130 106/146/77
f 118/147/131 106/146/77 254/145/130
f 108/148/78 255/149/132 119/150/133
f 120/151/80 257/152/134 122/153/135
f 123/154/81 258/155/136 124/156/137
f 125/157/82 260/158/138 121/159/79
f 256/160/139 121/159/79 260/158/138
f 126/161/83 261/162/140 127/163/141
f 128/164/84 262/165/142 129/166/143
f 130/167/86 263/168/144 131/169/145
f 104/133/70 264/170/146 247/171/147
f 111/131/68 265/172/148 125/157/82
f 259/173/149 125/157/82 265/172/148
f 102/126/67 266/174/150 243/175/151
f 101/128/66 267/176/152 107/144/76
f 253/177/153 107/144/76 267/176/152
f 106/146/77 268/178/154 105/140/74
f 251/179/155 105/140/74 268/178/154
f 117/142/75 269/180/156 113/136/72
f 249/181/157 113/136/72 269/180/156
f 115/138/73 270/182/158 111/131/68
f 245/183/159 111/131/68 270/182/158
f 271/184/160 132/185/161 392/186/162
f 392/186/162 218/187/163 271/184/160
f 272/188/164 271/184/160 218/187/163
f 218/187/163 398/189/165 272/188/164
f 273/190/166 133/191/167 134/192/168
f 134/192/168 219/193/169 273/190/166
f 274/194/170 273/190/166 219/193/169
f 219/193/169 399/195/171 274/194/170
f 275/196/172 135/197/173 394/198/174
f 394/198/174 220/199/175 275/196/172
f 276/200/176 275/196/172 220/199/175
f 220/199/175 136/201/177 276/200/176
f 277/202/178 137/203/179 138/204/180
f 138/204/180 221/205/181 277/202/178
f 133/206/167 277/202/178 221/205/181
f 221/205/181 134/207/168 133/206/167
f 278/208/182 139/209/183 140/210/184
f 140/210/184 222/211/185 278/208/182
f 279/212/186 278/208/182 222/211/185
f 222/211/185 141/213/187 279/212/186
f 280/214/188 142/215/189 143/216/190
f 143/216/190 223/217/191 280/214/188
f 139/209/183 280/214/188 223/217/191
f 223/217/191 140/210/184 139/209/183
f 281/218/192 144/219/193 145/220/194
f 145/220/194 224/221/195 281/218/192
f 142/215/189 281/218/192 224/221/195
f 224/221/195 143/216/190 142/215/189
f 282/222/196 146/223/197 147/224/198
f 147/224/198 225/225/199 282/222/196
f 144/219/193 282/222/196 225/225/199
f 225/225/199 145/220/194 144/219/193
f 283/226/200 148/227/201 149/228/202
f 149/228/202 226/229/203 283/226/200
f 146/223/197 283/226/200 226/229/203
f 226/229/203 147/224/198 146/223/197
f 284/230/204 274/194/170 399/195/171
f 399/195/171 227/231/205 284/230/204
f 148/227/201 284/230/204 227/231/205
f 227/231/205 149/228/202 148/227/201
f 285/232/206 150/233/207 390/234/208
f 390/234/208 228/235/209 285/232/206
f 286/236/210 285/232/206 228/235/209
f 228/235/209 151/237/211 286/236/210
f 287/238/212 272/188/164 398/189/165
f 398/189/165 229/239/213 287/238/212
f 137/203/179 287/238/212 229/239/213
f 229/239/213 138/204/180 137/203/179
f 290/240/214 153/241/215 152/242/216
f 152/242/216 288/243/217 290/240/214
f 289/244/218 290/240/214 288/243/217
f 288/243/217 340/245/219 289/244/218
f 190/246/220 293/247/221 400/248/222
f 400/248/222 291/249/223 190/246/220
f 199/250/224 190/246/220 291/249/223
f 291/249/223 338/251/225 199/250/224
f 190/246/220 199/250/224 154/252/226
f 154/252/226 292/253/227 190/246/220
f 293/247/221 190/246/220 292/253/227
f 292/253/227 286/236/210 293/247/221
f 296/254/228 156/255/229 155/256/230
f 155/256/230 294/257/231 296/254/228
f 295/258/232 296/254/228 294/257/231
f 294/257/231 406/259/233 295/258/232
f 191/260/234 299/261/235 401/262/236
f 401/262/236 297/263/237 191/260/234
f 201/264/238 191/260/234 297/263/237
f 297/263/237 157/265/239 201/264/238
f 191/260/234 201/264/238 158/266/240
f 158/266/240 298/267/241 191/260/234
f 299/261/235 191/260/234 298/267/241
f 298/267/241 159/268/242 299/261/235
f 192/269/243 302/270/244 402/271/245
f 402/271/245 300/272/246 192/269/243
f 202/273/247 192/269/243 300/272/246
f 300/272/246 160/274/248 202/273/247
f 192/269/243 202/273/247 375/275/249
f 375/275/249 301/276/250 192/269/243
f 302/270/244 192/269/243 301/276/250
f 301/276/250 161/277/251 302/270/244
f 193/278/252 275/196/172 276/200/176
f 276/200/176 303/279/253 193/278/252
f 203/280/254 193/278/252 303/279/253
f 303/279/253 162/281/255 203/280/254
f 193/278/252 203/280/254 376/282/256
f 376/282/256 304/283/257 193/278/252
f 275/196/172 193/278/252 304/283/257
f 304/283/257 135/197/173 275/196/172
f 307/284/258 295/285/232 406/286/233
f 406/286/233 305/287/259 307/284/258
f 306/288/260 307/284/258 305/287/259
f 305/287/259 412/289/261 306/288/260
f 310/290/262 164/291/263 163/292/264
f 163/292/264 308/293/265 310/290/262
f 309/294/266 310/290/262 308/293/265
f 308/293/265 354/295/267 309/294/266
f 313/296/268 309/294/266 354/295/267
f 354/295/267 311/297/269 313/296/268
f 312/298/270 313/296/268 311/297/269
f 311/297/269 413/299/271 312/298/270
f 194/300/272 316/301/273 150/233/207
f 150/233/207 314/302/274 194/300/272
f 207/303/275 194/300/272 314/302/274
f 314/302/274 329/304/276 207/303/275
f 194/300/272 207/303/275 164/291/263
f 164/291/263 315/305/277 194/300/272
f 316/301/273 194/300/272 315/305/277
f 315/305/277 279/212/186 316/301/273
f 319/306/278 312/298/270 413/299/271
f 413/299/271 317/307/279 319/306/278
f 318/308/280 319/306/278 317/307/279
f 317/307/279 165/309/281 318/308/280
f 322/310/282 318/308/280 165/309/281
f 165/309/281 320/311/283 322/310/282
f 321/312/284 322/310/282 320/311/283
f 320/311/283 361/313/285 321/312/284
f 325/314/286 321/312/284 361/313/285
f 361/313/285 323/315/287 325/314/286
f 324/316/288 325/314/286 323/315/287
f 323/315/287 416/317/289 324/316/288
f 327/318/290 324/316/288 416/317/289
f 416/317/289 326/319/291 327/318/290
f 156/255/229 327/318/290 326/319/291
f 326/319/291 155/256/230 156/255/229
f 330/320/292 154/252/226 342/321/293
f 342/321/293 328/322/294 330/320/292
f 329/304/276 330/320/292 328/322/294
f 328/322/294 166/323/295 329/304/276
f 332/324/296 306/288/260 412/289/261
f 412/289/261 331/325/297 332/324/296
f 153/241/215 332/324/296 331/325/297
f 331/325/297 152/242/216 153/241/215
f 195/326/298 334/327/299 132/185/161
f 132/185/161 333/328/300 195/326/298
f 214/329/301 195/326/298 333/328/300
f 333/328/300 289/244/218 214/329/301
f 195/326/298 214/329/301 162/281/255
f 162/281/255 303/279/253 195/326/298
f 334/327/299 195/326/298 303/279/253
f 303/279/253 276/200/176 334/327/299
f 196/330/302 335/331/303 135/197/173
f 135/197/173 304/283/257 196/330/302
f 215/332/304 196/330/302 304/283/257
f 304/283/257 376/282/256 215/332/304
f 196/330/302 215/332/304 160/274/248
f 160/274/248 300/272/246 196/330/302
f 335/331/303 196/330/302 300/272/246
f 300/272/246 402/271/245 335/331/303
f 197/333/305 336/334/306 161/277/251
f 161/277/251 301/276/250 197/333/305
f 216/335/307 197/333/305 301/276/250
f 301/276/250 375/275/249 216/335/307
f 197/333/305 216/335/307 157/265/239
f 157/265/239 297/263/237 197/333/305
f 336/334/306 197/333/305 297/263/237
f 297/263/237 401/262/236 336/334/306
f 339/336/308 158/266/240 347/337/309
f 347/337/309 337/338/310 339/336/308
f 338/251/225 339/336/308 337/338/310
f 337/338/310 167/339/311 338/251/225
f 288/243/217 152/242/216 368/340/312
f 368/340/312 230/341/313 288/243/217
f 340/245/219 288/243/217 230/341/313
f 230/341/313 404/342/314 340/245/219
f 341/343/315 167/339/311 168/344/316
f 168/344/316 231/345/317 341/343/315
f 342/321/293 341/343/315 231/345/317
f 231/345/317 405/346/318 342/321/293
f 343/347/319 169/348/320 170/349/321
f 170/349/321 344/350/322 343/347/319
f 345/351/323 343/347/319 344/350/322
f 344/350/322 171/352/324 345/351/323
f 346/353/325 172/354/326 173/355/327
f 173/355/327 232/356/328 346/353/325
f 347/337/309 346/353/325 232/356/328
f 232/356/328 408/357/329 347/337/309
f 348/358/330 174/359/331 175/360/332
f 175/360/332 233/361/333 348/358/330
f 349/362/334 348/358/330 233/361/333
f 233/361/333 409/363/335 349/362/334
f 350/364/336 176/365/337 177/366/338
f 177/366/338 234/367/339 350/364/336
f 351/368/340 350/364/336 234/367/339
f 234/367/339 411/369/341 351/368/340
f 352/370/342 345/371/323 171/372/324
f 171/372/324 442/373/343 352/370/342
f 353/374/344 352/370/342 442/373/343
f 442/373/343 424/375/345 353/374/344
f 308/293/265 163/292/264 178/376/346
f 178/376/346 235/377/347 308/293/265
f 354/295/267 308/293/265 235/377/347
f 235/377/347 179/378/348 354/295/267
f 355/379/349 179/378/348 180/380/350
f 180/380/350 356/381/351 355/379/349
f 357/382/352 355/379/349 356/381/351
f 356/381/351 181/383/353 357/382/352
f 358/384/354 166/323/295 182/385/355
f 182/385/355 236/386/356 358/384/354
f 163/292/264 358/384/354 236/386/356
f 236/386/356 178/376/346 163/292/264
f 359/387/357 357/382/352 181/383/353
f 181/383/353 443/388/358 359/387/357
f 360/389/359 359/387/357 443/388/358
f 443/388/358 426/390/360 360/389/359
f 320/311/283 165/309/281 360/389/359
f 360/389/359 237/391/361 320/311/283
f 361/313/285 320/311/283 237/391/361
f 237/391/361 183/392/362 361/313/285
f 362/393/363 183/392/362 184/394/364
f 184/394/364 363/395/365 362/393/363
f 364/396/366 362/393/363 363/395/365
f 363/395/365 425/397/367 364/396/366
f 365/398/368 364/396/366 425/397/367
f 425/397/367 444/399/369 365/398/368
f 169/348/320 365/398/368 444/399/369
f 444/399/369 170/349/321 169/348/320
f 328/322/294 342/321/293 405/346/318
f 405/346/318 238/400/370 328/322/294
f 166/323/295 328/322/294 238/400/370
f 238/400/370 182/385/355 166/323/295
f 366/401/371 353/374/344 424/375/345
f 424/375/345 367/402/372 366/401/371
f 368/340/312 366/401/371 367/402/372
f 367/402/372 423/403/373 368/340/312
f 369/404/374 340/245/219 404/342/314
f 404/342/314 239/405/375 369/404/374
f 176/365/337 369/404/374 239/405/375
f 239/405/375 177/366/338 176/365/337
f 370/406/376 351/368/340 411/369/341
f 411/369/341 240/407/377 370/406/376
f 174/359/331 370/406/376 240/407/377
f 240/407/377 175/360/332 174/359/331
f 371/408/378 349/362/334 409/363/335
f 409/363/335 241/409/379 371/408/378
f 172/354/326 371/408/378 241/409/379
f 241/409/379 173/355/327 172/354/326
f 337/338/310 347/337/309 408/357/329
f 408/357/329 242/410/380 337/338/310
f 167/339/311 337/338/310 242/410/380
f 242/410/380 168/344/316 167/339/311
f 198/411/381 290/240/214 289/244/218
f 289/244/218 333/328/300 198/411/381
f 271/184/160 198/411/381 333/328/300
f 333/328/300 132/185/161 271/184/160
f 198/411/381 271/184/160 272/188/164
f 272/188/164 372/412/382 198/411/381
f 290/240/214 198/411/381 372/412/382
f 372/412/382 153/241/215 290/240/214
f 341/343/315 199/250/224 338/251/225
f 338/251/225 167/339/311 341/343/315
f 199/250/224 341/343/315 342/321/293
f 342/321/293 154/252/226 199/250/224
f 200/413/383 296/254/228 295/258/232
f 295/258/232 373/414/384 200/413/383
f 273/190/166 200/413/383 373/414/384
f 373/414/384 133/191/167 273/190/166
f 200/413/383 273/190/166 274/194/170
f 274/194/170 374/415/385 200/413/383
f 296/254/228 200/413/383 374/415/385
f 374/415/385 156/255/229 296/254/228
f 346/353/325 201/264/238 157/265/239
f 157/265/239 172/354/326 346/353/325
f 201/264/238 346/353/325 347/337/309
f 347/337/309 158/266/240 201/264/238
f 348/358/330 202/273/247 160/274/248
f 160/274/248 174/359/331 348/358/330
f 202/273/247 348/358/330 349/362/334
f 349/362/334 375/275/249 202/273/247
f 350/364/336 203/280/254 162/281/255
f 162/281/255 176/365/337 350/364/336
f 203/280/254 350/364/336 351/368/340
f 351/368/340 376/282/256 203/280/254
f 204/416/386 307/284/258 306/288/260
f 306/288/260 377/417/387 204/416/386
f 277/202/178 204/416/386 377/417/387
f 377/417/387 137/203/179 277/202/178
f 204/416/386 277/202/178 133/206/167
f 133/206/167 373/418/384 204/416/386
f 307/284/258 204/416/386 373/418/384
f 373/418/384 295/285/232 307/284/258
f 205/419/388 310/290/262 309/294/266
f 309/294/266 378/420/389 205/419/388
f 278/208/182 205/419/388 378/420/389
f 378/420/389 139/209/183 278/208/182
f 205/419/388 278/208/182 279/212/186
f 279/212/186 315/305/277 205/419/388
f 310/290/262 205/419/388 315/305/277
f 315/305/277 164/291/263 310/290/262
f 206/421/390 313/296/268 312/298/270
f 312/298/270 379/422/391 206/421/390
f 280/214/188 206/421/390 379/422/391
f 379/422/391 142/215/189 280/214/188
f 206/421/390 280/214/188 139/209/183
f 139/209/183 378/420/389 206/421/390
f 313/296/268 206/421/390 378/420/389
f 378/420/389 309/294/266 313/296/268
f 358/384/354 207/303/275 329/304/276
f 329/304/276 166/323/295 358/384/354
f 207/303/275 358/384/354 163/292/264
f 163/292/264 164/291/263 207/303/275
f 208/423/392 319/306/278 318/308/280
f 318/308/280 380/424/393 208/423/392
f 281/218/192 208/423/392 380/424/393
f 380/424/393 144/219/193 281/218/192
f 208/423/392 281/218/192 142/215/189
f 142/215/189 379/422/391 208/423/392
f 319/306/278 208/423/392 379/422/391
f 379/422/391 312/298/270 319/306/278
f 209/425/394 322/310/282 321/312/284
f 321/312/284 381/426/395 209/425/394
f 282/222/196 209/425/394 381/426/395
f 381/426/395 146/223/197 282/222/196
f 209/425/394 282/222/196 144/219/193
f 144/219/193 380/424/393 209/425/394
f 322/310/282 209/425/394 380/424/393
f 380/424/393 318/308/280 322/310/282
f 210/427/396 325/314/286 324/316/288
f 324/316/288 382/428/397 210/427/396
f 283/226/200 210/427/396 382/428/397
f 382/428/397 148/227/201 283/226/200
f 210/427/396 283/226/200 146/223/197
f 146/223/197 381/426/395 210/427/396
f 325/314/286 210/427/396 381/426/395
f 381/426/395 321/312/284 325/314/286
f 211/429/398 327/318/290 156/255/229
f 156/255/229 374/415/385 211/429/398
f 284/230/204 211/429/398 374/415/385
f 374/415/385 274/194/170 284/230/204
f 211/429/398 284/230/204 148/227/201
f 148/227/201 382/428/397 211/429/398
f 327/318/290 211/429/398 382/428/397
f 382/428/397 324/316/288 327/318/290
f 212/430/399 330/320/292 329/304/276
f 329/304/276 314/302/274 212/430/399
f 285/232/206 212/430/399 314/302/274
f 314/302/274 150/233/207 285/232/206
f 212/430/399 285/232/206 286/236/210
f 286/236/210 292/253/227 212/430/399
f 330/320/292 212/430/399 292/253/227
f 292/253/227 154/252/226 330/320/292
f 213/431/400 332/324/296 153/241/215
f 153/241/215 372/412/382 213/431/400
f 287/238/212 213/431/400 372/412/382
f 372/412/382 272/188/164 287/238/212
f 213/431/400 287/238/212 137/203/179
f 137/203/179 377/417/387 213/431/400
f 332/324/296 213/431/400 377/417/387
f 377/417/387 306/288/260 332/324/296
f 369/404/374 214/329/301 289/244/218
f 289/244/218 340/245/219 369/404/374
f 214/329/301 369/404/374 176/365/337
f 176/365/337 162/281/255 214/329/301
f 370/406/376 215/332/304 376/282/256
f 376/282/256 351/368/340 370/406/376
f 215/332/304 370/406/376 174/359/331
f 174/359/331 160/274/248 215/332/304
f 371/408/378 216/335/307 375/275/249
f 375/275/249 349/362/334 371/408/378
f 216/335/307 371/408/378 172/354/326
f 172/354/326 157/265/239 216/335/307
f 217/432/401 339/336/308 338/251/225
f 338/251/225 291/249/223 217/432/401
f 383/433/402 217/432/401 291/249/223
f 291/249/223 400/248/222 383/433/402
f 217/432/401 383/433/402 159/268/242
f 159/268/242 298/267/241 217/432/401
f 339/336/308 217/432/401 298/267/241
f 298/267/241 158/266/240 339/336/308
f 385/434/403 246/132/123 245/183/159
f 245/183/159 384/435/404 385/434/403
f 246/132/123 385/434/403 151/237/211
f 151/237/211 110/130/122 246/132/123
f 387/436/405 250/137/126 249/181/157
f 249/181/157 386/437/406 387/436/405
f 250/137/126 387/436/405 185/438/407
f 185/438/407 114/139/127 250/137/126
f 389/439/408 252/141/128 251/179/155
f 251/179/155 388/440/409 389/439/408
f 252/141/128 389/439/408 186/441/410
f 186/441/410 116/143/129 252/141/128
f 391/442/411 260/158/138 259/173/149
f 259/173/149 390/234/208 391/442/411
f 260/158/138 391/442/411 141/213/187
f 141/213/187 256/160/139 260/158/138
f 393/443/412 267/176/152 109/129/121
f 109/129/121 392/186/162 393/443/412
f 267/176/152 393/443/412 136/201/177
f 136/201/177 253/177/153 267/176/152
f 395/444/413 268/178/154 118/147/131
f 118/147/131 394/198/174 395/444/413
f 268/178/154 395/444/413 388/440/409
f 388/440/409 251/179/155 268/178/154
f 396/445/414 269/180/156 116/143/129
f 116/143/129 186/441/410 396/445/414
f 269/180/156 396/445/414 386/437/406
f 386/437/406 249/181/157 269/180/156
f 397/446/415 270/182/158 114/139/127
f 114/139/127 185/438/407 397/446/415
f 270/182/158 397/446/415 384/435/404
f 384/435/404 245/183/159 270/182/158
f 244/127/120 218/187/163 392/186/162
f 392/186/162 109/129/121 244/127/120
f 218/187/163 244/127/120 243/175/151
f 243/175/151 398/189/165 218/187/163
f 248/134/124 219/193/169 134/192/168
f 134/192/168 112/135/125 248/134/124
f 219/193/169 248/134/124 247/171/147
f 247/171/147 399/195/171 219/193/169
f 254/145/130 220/199/175 394/198/174
f 394/198/174 118/147/131 254/145/130
f 220/199/175 254/145/130 253/177/153
f 253/177/153 136/201/177 220/199/175
f 255/149/132 221/205/181 138/204/180
f 138/204/180 119/150/133 255/149/132
f 221/205/181 255/149/132 112/447/125
f 112/447/125 134/207/168 221/205/181
f 257/152/134 222/211/185 140/210/184
f 140/210/184 122/153/135 257/152/134
f 222/211/185 257/152/134 256/160/139
f 256/160/139 141/213/187 222/211/185
f 258/155/136 223/217/191 143/216/190
f 143/216/190 124/156/137 258/155/136
f 223/217/191 258/155/136 122/153/135
f 122/153/135 140/210/184 223/217/191
f 261/162/140 224/221/195 145/220/194
f 145/220/194 127/163/141 261/162/140
f 224/221/195 261/162/140 124/156/137
f 124/156/137 143/216/190 224/221/195
f 262/165/142 225/225/199 147/224/198
f 147/224/198 129/166/143 262/165/142
f 225/225/199 262/165/142 127/163/141
f 127/163/141 145/220/194 225/225/199
f 263/168/144 226/229/203 149/228/202
f 149/228/202 131/169/145 263/168/144
f 226/229/203 263/168/144 129/166/143
f 129/166/143 147/224/198 226/229/203
f 264/170/146 227/231/205 399/195/171
f 399/195/171 247/171/147 264/170/146
f 227/231/205 264/170/146 131/169/145
f 131/169/145 149/228/202 227/231/205
f 265/172/148 228/235/209 390/234/208
f 390/234/208 259/173/149 265/172/148
f 228/235/209 265/172/148 110/130/122
f 110/130/122 151/237/211 228/235/209
f 266/174/150 229/239/213 398/189/165
f 398/189/165 243/175/151 266/174/150
f 229/239/213 266/174/150 119/150/133
f 119/150/133 138/204/180 229/239/213
f 293/247/221 385/434/403 384/435/404
f 384/435/404 400/248/222 293/247/221
f 385/434/403 293/247/221 286/236/210
f 286/236/210 151/237/211 385/434/403
f 299/261/235 387/436/405 386/437/406
f 386/437/406 401/262/236 299/261/235
f 387/436/405 299/261/235 159/268/242
f 159/268/242 185/438/407 387/436/405
f 302/270/244 389/439/408 388/440/409
f 388/440/409 402/271/245 302/270/244
f 389/439/408 302/270/244 161/277/251
f 161/277/251 186/441/410 389/439/408
f 316/301/273 391/442/411 390/234/208
f 390/234/208 150/233/207 316/301/273
f 391/442/411 316/301/273 279/212/186
f 279/212/186 141/213/187 391/442/411
f 334/327/299 393/443/412 392/186/162
f 392/186/162 132/185/161 334/327/299
f 393/443/412 334/327/299 276/200/176
f 276/200/176 136/201/177 393/443/412
f 335/331/303 395/444/413 394/198/174
f 394/198/174 135/197/173 335/331/303
f 395/444/413 335/331/303 402/271/245
f 402/271/245 388/440/409 395/444/413
f 336/334/306 396/445/414 186/441/410
f 186/441/410 161/277/251 336/334/306
f 396/445/414 336/334/306 401/262/236
f 401/262/236 386/437/406 396/445/414
f 383/433/402 397/446/415 185/438/407
f 185/438/407 159/268/242 383/433/402
f 397/446/415 383/433/402 400/248/222
f 400/248/222 384/435/404 397/446/415
f 403/448/416 230/341/313 368/340/312
f 368/340/312 423/403/373 403/448/416
f 230/341/313 403/448/416 422/449/417
f 422/449/417 404/342/314 230/341/313
f 445/450/418 231/345/317 168/344/316
f 168/344/316 429/451/419 445/450/418
f 231/345/317 445/450/418 428/452/420
f 428/452/420 405/346/318 231/345/317
f 294/257/231 343/347/319 345/351/323
f 345/351/323 406/259/233 294/257/231
f 343/347/319 294/257/231 155/256/230
f 155/256/230 169/348/320 343/347/319
f 407/453/421 232/356/328 173/355/327
f 173/355/327 187/454/422 407/453/421
f 232/356/328 407/453/421 188/455/423
f 188/455/423 408/357/329 232/356/328
f 446/456/424 233/361/333 175/360/332
f 175/360/332 431/457/425 446/456/424
f 233/361/333 446/456/424 430/458/426
f 430/458/426 409/363/335 233/361/333
f 410/459/427 234/367/339 177/366/338
f 177/366/338 433/460/428 410/459/427
f 234/367/339 410/459/427 432/461/429
f 432/461/429 411/369/341 234/367/339
f 305/287/259 352/370/342 353/374/344
f 353/374/344 412/289/261 305/287/259
f 352/370/342 305/287/259 406/286/233
f 406/286/233 345/371/323 352/370/342
f 447/462/430 235/377/347 178/376/346
f 178/376/346 427/463/431 447/462/430
f 235/377/347 447/462/430 180/380/350
f 180/380/350 179/378/348 235/377/347
f 311/297/269 355/379/349 357/382/352
f 357/382/352 413/299/271 311/297/269
f 355/379/349 311/297/269 354/295/267
f 354/295/267 179/378/348 355/379/349
f 414/464/432 236/386/356 182/385/355
f 182/385/355 189/465/433 414/464/432
f 236/386/356 414/464/432 427/463/431
f 427/463/431 178/376/346 236/386/356
f 317/307/279 359/387/357 360/389/359
f 360/389/359 165/309/281 317/307/279
f 359/387/357 317/307/279 413/299/271
f 413/299/271 357/382/352 359/387/357
f 415/466/434 237/391/361 360/389/359
f 360/389/359 426/390/360 415/466/434
f 237/391/361 415/466/434 184/394/364
f 184/394/364 183/392/362 237/391/361
f 323/315/287 362/393/363 364/396/366
f 364/396/366 416/317/289 323/315/287
f 362/393/363 323/315/287 361/313/285
f 361/313/285 183/392/362 362/393/363
f 326/319/291 365/398/368 169/348/320
f 169/348/320 155/256/230 326/319/291
f 365/398/368 326/319/291 416/317/289
f 416/317/289 364/396/366 365/398/368
f 417/467/435 238/400/370 405/346/318
f 405/346/318 428/452/420 417/467/435
f 238/400/370 417/467/435 189/465/433
f 189/465/433 182/385/355 238/400/370
f 331/325/297 366/401/371 368/340/312
f 368/340/312 152/242/216 331/325/297
f 366/401/371 331/325/297 412/289/261
f 412/289/261 353/374/344 366/401/371
f 418/468/436 239/405/375 404/342/314
f 404/342/314 422/449/417 418/468/436
f 239/405/375 418/468/436 433/460/428
f 433/460/428 177/366/338 239/405/375
f 448/469/437 240/407/377 411/369/341
f 411/369/341 432/461/429 448/469/437
f 240/407/377 448/469/437 431/457/425
f 431/457/425 175/360/332 240/407/377
f 419/470/438 241/409/379 409/363/335
f 409/363/335 430/458/426 419/470/438
f 241/409/379 419/470/438 187/454/422
f 187/454/422 173/355/327 241/409/379
f 420/471/439 242/410/380 408/357/329
f 408/357/329 188/455/423 420/471/439
f 242/410/380 420/471/439 429/451/419
f 429/451/419 168/344/316 242/410/380
f 115/138/73 114/139/127 270/182/158
f 113/136/72 249/181/157 250/137/126
f 105/140/74 251/179/155 252/141/128
f 106/146/77 118/147/131 268/178/154
f 117/142/75 116/143/129 269/180/156
f 102/126/67 243/175/151 244/127/120
f 107/144/76 253/177/153 254/145/130
f 101/128/66 109/129/121 267/176/152
f 104/133/70 247/171/147 248/134/124
f 108/148/78 103/81/71 255/149/132
f 103/81/71 112/447/125 255/149/132
f 102/126/67 108/148/78 266/174/150
f 108/148/78 119/150/133 266/174/150
f 130/167/86 128/164/84 263/168/144
f 128/164/84 129/166/143 263/168/144
f 104/133/70 130/167/86 264/170/146
f 130/167/86 131/169/145 264/170/146
f 120/151/80 121/159/79 257/152/134
f 121/159/79 256/160/139 257/152/134
f 123/154/81 120/151/80 258/155/136
f 120/151/80 122/153/135 258/155/136
f 125/157/82 259/173/149 260/158/138
f 126/161/83 123/154/81 261/162/140
f 123/154/81 124/156/137 261/162/140
f 128/164/84 126/161/83 262/165/142
f 126/161/83 127/163/141 262/165/142
f 111/131/68 245/183/159 246/132/123
f 111/131/68 110/130/122 265/172/148
f 170/472/321 435/473/440 344/474/322
f 435/473/440 421/475/441 456/476/442
f 171/477/324 456/476/442 442/478/343
f 456/476/442 421/475/441 457/479/443
f 180/480/350 451/481/444 356/482/351
f 451/481/444 421/475/441 452/483/445
f 181/484/353 452/483/445 443/485/358
f 452/483/445 421/475/441 453/486/446
f 184/487/364 454/488/447 363/489/365
f 454/488/447 421/475/441 455/490/448
f 425/491/367 455/490/448 444/492/369
f 455/490/448 421/475/441 435/473/440
f 424/493/345 457/479/443 367/494/372
f 457/479/443 421/475/441 434/495/449
f 423/496/373 434/495/449 403/497/416
f 434/495/449 421/475/441 458/498/450
f 429/499/419 438/500/451 445/501/418
f 438/500/451 421/475/441 450/502/452
f 187/503/422 439/504/453 407/505/421
f 439/504/453 421/475/441 449/506/454
f 431/507/425 440/508/455 446/509/424
f 440/508/455 421/475/441 460/510/456
f 433/511/428 441/512/457 410/513/427
f 441/512/457 421/475/441 459/514/458
f 427/515/431 436/516/459 447/517/430
f 436/516/459 421/475/441 451/481/444
f 189/518/433 437/519/460 414/520/432
f 437/519/460 421/475/441 436/516/459
f 426/521/360 453/486/446 415/522/434
f 453/486/446 421/475/441 454/488/447
f 428/523/420 450/502/452 417/524/435
f 450/502/452 421/475/441 437/519/460
f 422/525/417 458/498/450 418/526/436
f 458/498/450 421/475/441 441/512/457
f 432/527/429 459/514/458 448/528/437
f 459/514/458 421/475/441 440/508/455
f 430/529/426 460/510/456 419/530/438
f 460/510/456 421/475/441 439/504/453
f 188/531/423 449/506/454 420/532/439
f 449/506/454 421/475/441 438/500/451
f 435/473/440 456/476/442 344/474/322
f 456/476/442 171/477/324 344/474/322
f 456/476/442 457/479/443 442/478/343
f 457/479/443 424/493/345 442/478/343
f 451/481/444 452/483/445 356/482/351
f 452/483/445 181/484/353 356/482/351
f 452/483/445 453/486/446 443/485/358
f 453/486/446 426/521/360 443/485/358
f 454/488/447 455/490/448 363/489/365
f 455/490/448 425/491/367 363/489/365
f 455/490/448 435/473/440 444/492/369
f 435/473/440 170/472/321 444/492/369
f 457/479/443 434/495/449 367/494/372
f 434/495/449 423/496/373 367/494/372
f 434/495/449 458/498/450 403/497/416
f 458/498/450 422/525/417 403/497/416
f 438/500/451 450/502/452 445/501/418
f 450/502/452 428/523/420 445/501/418
f 439/504/453 449/506/454 407/505/421
f 449/506/454 188/531/423 407/505/421
f 440/508/455 460/510/456 446/509/424
f 460/510/456 430/529/426 446/509/424
f 441/512/457 459/514/458 410/513/427
f 459/514/458 432/527/429 410/513/427
f 436/516/459 451/481/444 447/517/430
f 451/481/444 180/480/350 447/517/430
f 437/519/460 436/516/459 414/520/432
f 436/516/459 427/515/431 414/520/432
f 453/486/446 454/488/447 415/522/434
f 454/488/447 184/487/364 415/522/434
f 450/502/452 437/519/460 417/524/435
f 437/519/460 189/518/433 417/524/435
f 458/498/450 441/512/457 418/526/436
f 441/512/457 433/511/428 418/526/436
f 459/514/458 440/508/455 448/528/437
f 440/508/455 431/507/425 448/528/437
f 460/510/456 439/504/453 419/530/438
f 439/504/453 187/503/422 419/530/438
f 449/506/454 438/500/451 420/532/439
f 438/500/451 429/499/419 420/532/439
