# Blender 4.3.0
# www.blender.org
mtllib R_trigger.mtl
o R_trigger
v -0.007053 -0.032374 0.035805
v -0.000234 -0.031490 0.037707
v 0.005992 -0.030176 0.046927
v 0.006268 -0.030885 0.049816
v -0.014005 -0.031933 0.038265
v -0.019109 -0.033056 0.049117
v -0.018940 -0.032123 0.046540
v -0.018291 -0.031523 0.043926
v -0.016632 -0.031722 0.040999
v 0.002888 -0.030674 0.040329
v 0.004794 -0.030170 0.043172
v 0.005187 -0.033846 0.054030
v -0.018431 -0.035235 0.052079
v 0.003273 -0.036736 0.055876
v -0.017107 -0.037341 0.054065
v -0.011445 -0.042513 0.056594
v -0.014910 -0.039939 0.055513
v -0.000028 -0.040878 0.056685
v -0.010574 -0.038036 0.050412
v -0.010875 -0.036101 0.047505
v -0.015753 -0.033670 0.045388
v -0.015773 -0.034938 0.048162
v -0.015340 -0.036916 0.051019
v 0.005994 -0.032136 0.052152
v -0.002111 -0.037192 0.050384
v 0.002288 -0.032744 0.045730
v 0.002416 -0.033778 0.048393
v 0.002440 -0.035145 0.050646
v -0.006632 -0.034663 0.043770
v -0.006482 -0.036206 0.047271
v -0.006281 -0.038281 0.050371
v -0.005548 -0.043803 0.057084
v -0.008596 -0.043597 0.056999
v -0.011136 -0.034594 0.044293
v -0.010721 -0.032246 0.036492
v -0.002579 -0.042801 0.056982
v -0.002176 -0.035339 0.047575
v -0.002248 -0.033990 0.044390
v -0.003499 -0.032076 0.036247
v -0.003950 -0.032590 0.037529
v -0.001126 -0.032171 0.038712
v 0.001720 -0.031593 0.040942
v 0.003505 -0.031293 0.043386
v 0.004678 -0.031448 0.046686
v 0.004963 -0.032222 0.049216
v 0.004790 -0.033373 0.051210
v 0.004159 -0.034884 0.052805
v 0.002502 -0.037478 0.054412
v -0.000699 -0.040999 0.055305
v -0.003043 -0.042546 0.055660
v -0.005681 -0.043330 0.055793
v -0.008318 -0.043158 0.055712
v -0.010813 -0.042284 0.055318
v -0.014015 -0.040156 0.054247
v -0.016077 -0.037983 0.052859
v -0.017223 -0.036091 0.051124
v -0.017836 -0.034183 0.048490
v -0.017620 -0.033250 0.046274
v -0.017016 -0.032664 0.043999
v -0.015377 -0.032545 0.041511
v -0.013008 -0.032634 0.039160
v -0.010162 -0.032784 0.037722
v -0.006993 -0.032827 0.037177
v 0.006791 -0.026732 0.051589
v 0.006394 -0.025570 0.048480
v 0.005085 -0.024337 0.045338
v 0.002944 -0.023367 0.042763
v 0.000031 -0.022604 0.040751
v -0.003285 -0.022169 0.039532
v -0.006842 -0.022063 0.039152
v -0.010401 -0.022296 0.039642
v -0.013694 -0.022864 0.040983
v -0.016474 -0.023742 0.043108
v -0.018499 -0.024806 0.045782
v -0.019615 -0.025940 0.048743
v -0.019925 -0.027116 0.051831
v -0.019362 -0.028402 0.055137
v -0.017987 -0.029494 0.058027
v -0.015795 -0.030449 0.060548
v -0.012823 -0.031192 0.062522
v -0.009621 -0.031590 0.063654
v -0.006185 -0.031682 0.063996
v -0.002777 -0.031455 0.063514
v 0.000322 -0.030936 0.062263
v 0.003251 -0.030033 0.060083
v 0.005315 -0.028928 0.057359
v 0.006429 -0.027857 0.054565
v -0.007023 -0.032680 0.036407
v -0.003779 -0.032420 0.036787
v -0.000773 -0.031931 0.038058
v 0.002198 -0.031246 0.040424
v 0.004209 -0.030811 0.043162
v 0.005414 -0.030940 0.046742
v 0.005708 -0.031694 0.049445
v 0.005493 -0.032887 0.051594
v 0.004799 -0.034530 0.053394
v 0.002899 -0.037441 0.055161
v -0.000370 -0.041226 0.055984
v -0.002810 -0.042923 0.056293
v -0.005607 -0.043790 0.056405
v -0.008427 -0.043600 0.056327
v -0.011078 -0.042640 0.055942
v -0.014404 -0.040343 0.054876
v -0.016737 -0.037886 0.053421
v -0.017955 -0.035834 0.051498
v -0.018604 -0.033805 0.048719
v -0.018386 -0.032870 0.046373
v -0.017766 -0.032231 0.043855
v -0.015917 -0.032233 0.041056
v -0.013436 -0.032375 0.038556
v -0.010397 -0.032598 0.037000
vn 0.2121 0.2470 -0.9455
vn 0.1861 -0.9271 -0.3254
vn 0.0219 -0.9431 -0.3318
vn -0.0412 0.2534 -0.9665
vn 0.9848 -0.1566 -0.0747
vn 0.7613 -0.5980 -0.2506
vn 0.7114 -0.6578 -0.2475
vn 0.9662 -0.0530 -0.2522
vn -0.1539 -0.9221 -0.3551
vn -0.2955 0.2447 -0.9235
vn -0.9765 -0.0710 -0.2034
vn -0.6651 -0.6666 -0.3366
vn -0.7325 -0.6176 -0.2863
vn -0.9851 -0.1721 -0.0052
vn -0.7636 0.1299 -0.6325
vn -0.4258 -0.8355 -0.3472
vn -0.6299 -0.6959 -0.3450
vn -0.9085 0.0522 -0.4146
vn 0.8767 0.0632 -0.4768
vn 0.6155 -0.7317 -0.2930
vn 0.4983 -0.8129 -0.3014
vn 0.6792 0.1589 -0.7166
vn -0.5594 0.2017 -0.8040
vn -0.3228 -0.8766 -0.3570
vn 0.4631 0.2110 -0.8608
vn 0.3481 -0.8842 -0.3114
vn 0.9665 -0.2227 0.1279
vn 0.7921 -0.5698 -0.2188
vn -0.9442 -0.2623 0.1993
vn -0.7131 -0.6482 -0.2669
vn 0.7236 -0.3857 0.5724
vn 0.7689 -0.6378 -0.0447
vn 0.8058 -0.5761 -0.1369
vn 0.8899 -0.2890 0.3530
vn -0.8260 -0.3516 0.4406
vn -0.7025 -0.6844 -0.1953
vn -0.6309 -0.4481 0.6333
vn -0.5482 -0.8070 -0.2197
vn -0.3901 -0.8634 -0.3200
vn -0.4260 -0.5052 0.7505
vn 0.0664 -0.5296 0.8456
vn 0.0997 -0.9412 -0.3227
vn 0.3883 -0.8782 -0.2792
vn 0.2877 -0.5051 0.8137
vn 0.5415 -0.4628 0.7018
vn 0.6463 -0.7245 -0.2395
vn 0.0630 -0.9482 -0.3115
vn -0.1494 -0.9323 -0.3294
vn -0.0950 -0.9591 -0.2665
vn 0.0216 -0.9655 -0.2596
vn -0.2160 -0.7418 -0.6348
vn -0.1511 -0.7734 -0.6156
vn -0.0717 -0.7421 -0.6664
vn -0.2879 -0.8926 -0.3470
vn -0.2825 -0.9207 -0.2692
vn -0.2314 -0.9355 -0.2671
vn -0.3934 -0.8429 -0.3670
vn -0.3922 -0.8697 -0.2997
vn -0.1621 -0.8645 -0.4758
vn -0.2963 -0.8369 -0.4603
vn -0.4129 -0.8020 -0.4316
vn -0.2867 -0.7734 -0.5654
vn -0.4115 -0.7684 -0.4902
vn -0.2878 -0.7354 -0.6135
vn -0.4189 -0.7338 -0.5348
vn 0.5131 -0.6823 -0.5207
vn 0.4663 -0.7483 -0.4718
vn 0.6130 -0.6852 -0.3934
vn 0.6787 -0.6487 -0.3443
vn 0.0755 -0.8739 -0.4802
vn 0.2618 -0.9179 -0.2983
vn 0.2876 -0.8444 -0.4519
vn 0.1669 -0.9540 -0.2490
vn 0.3114 -0.7392 -0.5972
vn 0.0733 -0.7592 -0.6467
vn 0.4225 -0.8561 -0.2976
vn 0.4447 -0.8024 -0.3979
vn 0.5516 -0.7875 -0.2749
vn 0.5809 -0.7442 -0.3299
vn 0.4476 -0.6558 -0.6079
vn 0.2375 -0.7117 -0.6611
vn 0.3730 -0.8976 -0.2349
vn 0.2923 -0.9279 -0.2316
vn 0.4522 -0.8663 -0.2121
vn -0.1682 -0.5277 0.8326
vn -0.1569 -0.9338 -0.3217
vn 0.0776 -0.7334 -0.6753
vn -0.0218 0.3094 -0.9507
vn 0.2326 0.3039 -0.9239
vn -0.7243 0.1798 -0.6656
vn -0.8830 0.0845 -0.4616
vn 0.6878 0.2217 -0.6912
vn 0.8725 0.1203 -0.4737
vn -0.5216 0.2510 -0.8154
vn -0.9708 -0.0267 -0.2385
vn 0.9642 -0.0020 -0.2652
vn -0.9494 -0.2271 0.2169
vn -0.9911 -0.1330 -0.0072
vn -0.8362 -0.3197 0.4455
vn -0.4588 -0.4521 0.7649
vn -0.6639 -0.3981 0.6331
vn 0.9939 -0.1010 -0.0437
vn 0.9630 -0.1998 0.1809
vn 0.0268 -0.4936 0.8693
vn 0.2665 -0.4800 0.8358
vn -0.2735 0.2939 -0.9159
vn -0.2182 -0.4833 0.8478
vn 0.5129 -0.4379 0.7384
vn 0.4760 0.2740 -0.8357
vn 0.8648 -0.3032 0.4003
vn 0.7142 -0.3782 0.5890
vt 0.597100 0.165408
vt 0.595842 0.160960
vt 0.612531 0.148971
vt 0.615565 0.152247
vt 0.488722 0.157532
vt 0.493816 0.152814
vt 0.508246 0.163846
vt 0.504132 0.168795
vt 0.627363 0.131604
vt 0.631714 0.133145
vt 0.638206 0.047571
vt 0.632813 0.050717
vt 0.623731 0.037060
vt 0.628611 0.032727
vt 0.645634 0.085911
vt 0.640334 0.088338
vt 0.639869 0.066505
vt 0.645147 0.063995
vt 0.527786 0.177734
vt 0.530774 0.172888
vt 0.552710 0.173679
vt 0.549981 0.178890
vt 0.642009 0.110496
vt 0.636904 0.111123
vt 0.576030 0.174262
vt 0.576790 0.169226
vt 0.478418 0.143889
vt 0.484290 0.140044
vt 0.609371 0.018239
vt 0.605714 0.023418
vt 0.471043 0.102173
vt 0.477584 0.099460
vt 0.478297 0.124777
vt 0.472302 0.127733
vt 0.590364 0.010442
vt 0.587517 0.015807
vt 0.566463 0.008463
vt 0.564107 0.013937
vt 0.537667 0.017335
vt 0.538057 0.012365
vt 0.503212 0.030920
vt 0.506279 0.034232
vt 0.494009 0.049479
vt 0.489270 0.048221
vt 0.480337 0.068325
vt 0.485907 0.067459
vt 0.577941 0.111618
vt 0.598815 0.089736
vt 0.623001 0.128832
vt 0.609009 0.145167
vt 0.539291 0.022129
vt 0.565664 0.056290
vt 0.523487 0.028320
vt 0.620593 0.065854
vt 0.635239 0.088008
vt 0.631930 0.109667
vt 0.628182 0.054052
vt 0.634423 0.068537
vt 0.582258 0.072710
vt 0.607930 0.050363
vt 0.619386 0.041018
vt 0.590776 0.035182
vt 0.602322 0.028006
vt 0.564523 0.018963
vt 0.585556 0.021217
vt 0.483194 0.099931
vt 0.502568 0.121591
vt 0.489391 0.136471
vt 0.484077 0.122563
vt 0.560454 0.092735
vt 0.554199 0.129824
vt 0.538571 0.112901
vt 0.593272 0.156488
vt 0.523988 0.095761
vt 0.543377 0.074293
vt 0.527269 0.148101
vt 0.513832 0.134845
vt 0.511852 0.159115
vt 0.498312 0.148489
vt 0.490801 0.069197
vt 0.498382 0.052178
vt 0.552374 0.168473
vt 0.575315 0.164281
vt 0.532846 0.167490
vt 0.519353 0.019638
vt 0.520912 0.023980
vt 0.509722 0.037951
vt 0.326241 0.942818
vt 0.339959 0.942818
vt 0.339959 0.998691
vt 0.326241 0.998691
vt 0.603662 0.942818
vt 0.603662 0.998691
vt 0.591041 0.998691
vt 0.591041 0.942818
vt 0.367026 0.942818
vt 0.379375 0.942818
vt 0.379375 0.998691
vt 0.367026 0.998691
vt 0.617361 0.942818
vt 0.617361 0.998691
vt 0.579158 0.998691
vt 0.579158 0.942818
vt 0.393239 0.942818
vt 0.393239 0.998691
vt 0.552605 0.942818
vt 0.567182 0.942818
vt 0.567182 0.998691
vt 0.552605 0.998691
vt 0.539771 0.942818
vt 0.539771 0.998691
vt 0.510859 0.942818
vt 0.526224 0.942818
vt 0.526224 0.998691
vt 0.510859 0.998691
vt 0.405457 0.942818
vt 0.405457 0.998691
vt 0.417052 0.942818
vt 0.417052 0.998691
vt 0.485085 0.942818
vt 0.485085 0.998691
vt 0.472039 0.998691
vt 0.472039 0.942818
vt 0.631120 0.942818
vt 0.631120 0.998691
vt 0.498106 0.942818
vt 0.498106 0.998691
vt 0.459486 0.998691
vt 0.459486 0.942818
vt 0.645244 0.942818
vt 0.645244 0.998691
vt 0.353208 0.998691
vt 0.353208 0.942818
vt 0.428604 0.942818
vt 0.428604 0.998691
vt 0.443070 0.942818
vt 0.443070 0.998691
s 1
usemtl VstController_250406
f 39/1/1 89/2/2 88/3/3
f 88/3/3 1/4/4 39/1/1
f 4/5/5 94/6/6 93/7/7
f 93/7/7 3/8/8 4/5/5
f 1/4/4 88/3/3 111/9/9
f 111/9/9 35/10/10 1/4/4
f 7/11/11 107/12/12 106/13/13
f 106/13/13 6/14/14 7/11/11
f 9/15/15 109/16/16 108/17/17
f 108/17/17 8/18/18 9/15/15
f 11/19/19 92/20/20 91/21/21
f 91/21/21 10/22/22 11/19/19
f 9/15/15 5/23/23 110/24/24
f 110/24/24 109/16/16 9/15/15
f 2/25/25 10/22/22 91/21/21
f 91/21/21 90/26/26 2/25/25
f 7/11/11 8/18/18 108/17/17
f 108/17/17 107/12/12 7/11/11
f 11/19/19 3/8/8 93/7/7
f 93/7/7 92/20/20 11/19/19
f 24/27/27 95/28/28 94/6/6
f 94/6/6 4/5/5 24/27/27
f 13/29/29 6/14/14 106/13/13
f 106/13/13 105/30/30 13/29/29
f 14/31/31 97/32/32 96/33/33
f 96/33/33 12/34/34 14/31/31
f 15/35/35 13/29/29 105/30/30
f 105/30/30 104/36/36 15/35/35
f 17/37/37 103/38/38 102/39/39
f 102/39/39 16/40/40 17/37/37
f 32/41/41 100/42/42 99/43/43
f 99/43/43 36/44/44 32/41/41
f 14/31/31 18/45/45 98/46/46
f 98/46/46 97/32/32 14/31/31
f 17/37/37 15/35/35 104/36/36
f 104/36/36 103/38/38 17/37/37
f 29/47/47 34/48/48 62/49/49
f 62/49/49 63/50/50 29/47/47
f 53/51/51 19/52/52 52/53/53
f 34/48/48 21/54/54 60/55/55
f 60/55/55 61/56/56 34/48/48
f 21/54/54 58/57/57 59/58/58
f 59/58/58 60/55/55 21/54/54
f 21/54/54 34/48/48 20/59/59
f 20/59/59 22/60/60 21/54/54
f 58/57/57 21/54/54 22/60/60
f 22/60/60 57/61/61 58/57/57
f 23/62/62 22/60/60 20/59/59
f 20/59/59 19/52/52 23/62/62
f 56/63/63 57/61/61 22/60/60
f 22/60/60 23/62/62 56/63/63
f 19/52/52 53/51/51 54/64/64
f 54/64/64 23/62/62 19/52/52
f 55/65/65 56/63/63 23/62/62
f 23/62/62 54/64/64 55/65/65
f 48/66/66 28/67/67 46/68/68
f 46/68/68 47/69/69 48/66/66
f 30/70/70 29/47/47 38/71/71
f 38/71/71 37/72/72 30/70/70
f 29/47/47 63/50/50 40/73/73
f 40/73/73 38/71/71 29/47/47
f 30/70/70 37/72/72 25/74/74
f 25/74/74 31/75/75 30/70/70
f 12/34/34 96/33/33 95/28/28
f 95/28/28 24/27/27 12/34/34
f 26/76/76 27/77/77 37/72/72
f 37/72/72 38/71/71 26/76/76
f 37/72/72 27/77/77 28/67/67
f 28/67/67 25/74/74 37/72/72
f 44/78/78 45/79/79 27/77/77
f 27/77/77 26/76/76 44/78/78
f 27/77/77 45/79/79 46/68/68
f 46/68/68 28/67/67 27/77/77
f 48/66/66 49/80/80 25/74/74
f 25/74/74 28/67/67 48/66/66
f 49/80/80 50/81/81 25/74/74
f 42/82/82 26/76/76 38/71/71
f 38/71/71 41/83/83 42/82/82
f 42/82/82 43/84/84 44/78/78
f 44/78/78 26/76/76 42/82/82
f 33/85/85 101/86/86 100/42/42
f 100/42/42 32/41/41 33/85/85
f 19/52/52 20/59/59 30/70/70
f 30/70/70 31/75/75 19/52/52
f 34/48/48 61/56/56 62/49/49
f 31/75/75 51/87/87 52/53/53
f 52/53/53 19/52/52 31/75/75
f 34/48/48 29/47/47 30/70/70
f 30/70/70 20/59/59 34/48/48
f 33/85/85 16/40/40 102/39/39
f 102/39/39 101/86/86 33/85/85
f 39/1/1 2/25/25 90/26/26
f 90/26/26 89/2/2 39/1/1
f 40/73/73 41/83/83 38/71/71
f 50/81/81 51/87/87 31/75/75
f 31/75/75 25/74/74 50/81/81
f 70/88/88 69/89/89 39/90/1
f 39/90/1 1/91/4 70/88/88
f 73/92/90 9/93/15 8/94/18
f 8/94/18 74/95/91 73/92/90
f 67/96/92 66/97/93 11/98/19
f 11/98/19 10/99/22 67/96/92
f 72/100/94 5/101/23 9/93/15
f 9/93/15 73/92/90 72/100/94
f 74/95/91 8/94/18 7/102/11
f 7/102/11 75/103/95 74/95/91
f 66/97/93 65/104/96 3/105/8
f 3/105/8 11/98/19 66/97/93
f 77/106/97 76/107/98 6/108/14
f 6/108/14 13/109/29 77/106/97
f 78/110/99 77/106/97 13/109/29
f 13/109/29 15/111/35 78/110/99
f 80/112/100 79/113/101 17/114/37
f 17/114/37 16/115/40 80/112/100
f 79/113/101 78/110/99 15/111/35
f 15/111/35 17/114/37 79/113/101
f 65/104/96 64/116/102 4/117/5
f 4/117/5 3/105/8 65/104/96
f 64/116/102 87/118/103 24/119/27
f 24/119/27 4/117/5 64/116/102
f 82/120/104 32/121/41 36/122/44
f 36/122/44 83/123/105 82/120/104
f 71/124/106 35/125/10 5/101/23
f 5/101/23 72/100/94 71/124/106
f 82/120/104 81/126/107 33/127/85
f 33/127/85 32/121/41 82/120/104
f 83/123/105 36/122/44 18/128/45
f 18/128/45 84/129/108 83/123/105
f 36/44/44 99/43/43 98/46/46
f 98/46/46 18/45/45 36/44/44
f 35/10/10 111/9/9 110/24/24
f 110/24/24 5/23/23 35/10/10
f 35/125/10 71/124/106 70/130/88
f 70/130/88 1/131/4 35/125/10
f 6/108/14 76/107/98 75/103/95
f 75/103/95 7/102/11 6/108/14
f 10/99/22 2/132/25 68/133/109
f 68/133/109 67/96/92 10/99/22
f 24/119/27 87/118/103 86/134/110
f 86/134/110 12/135/34 24/119/27
f 12/135/34 86/134/110 85/136/111
f 85/136/111 14/137/31 12/135/34
f 16/115/40 33/127/85 81/126/107
f 81/126/107 80/112/100 16/115/40
f 14/137/31 85/136/111 84/129/108
f 84/129/108 18/128/45 14/137/31
f 2/132/25 39/90/1 69/89/89
f 69/89/89 68/133/109 2/132/25
f 41/83/83 40/73/73 89/2/2
f 89/2/2 90/26/26 41/83/83
f 42/82/82 41/83/83 90/26/26
f 90/26/26 91/21/21 42/82/82
f 92/20/20 43/84/84 42/82/82
f 42/82/82 91/21/21 92/20/20
f 44/78/78 43/84/84 92/20/20
f 92/20/20 93/7/7 44/78/78
f 94/6/6 45/79/79 44/78/78
f 44/78/78 93/7/7 94/6/6
f 95/28/28 46/68/68 45/79/79
f 45/79/79 94/6/6 95/28/28
f 96/33/33 47/69/69 46/68/68
f 46/68/68 95/28/28 96/33/33
f 97/32/32 48/66/66 47/69/69
f 47/69/69 96/33/33 97/32/32
f 49/80/80 48/66/66 97/32/32
f 97/32/32 98/46/46 49/80/80
f 99/43/43 50/81/81 49/80/80
f 49/80/80 98/46/46 99/43/43
f 100/42/42 51/87/87 50/81/81
f 50/81/81 99/43/43 100/42/42
f 101/86/86 52/53/53 51/87/87
f 51/87/87 100/42/42 101/86/86
f 53/51/51 52/53/53 101/86/86
f 101/86/86 102/39/39 53/51/51
f 103/38/38 54/64/64 53/51/51
f 53/51/51 102/39/39 103/38/38
f 55/65/65 54/64/64 103/38/38
f 103/38/38 104/36/36 55/65/65
f 56/63/63 55/65/65 104/36/36
f 104/36/36 105/30/30 56/63/63
f 57/61/61 56/63/63 105/30/30
f 105/30/30 106/13/13 57/61/61
f 107/12/12 58/57/57 57/61/61
f 57/61/61 106/13/13 107/12/12
f 59/58/58 58/57/57 107/12/12
f 107/12/12 108/17/17 59/58/58
f 109/16/16 60/55/55 59/58/58
f 59/58/58 108/17/17 109/16/16
f 61/56/56 60/55/55 109/16/16
f 109/16/16 110/24/24 61/56/56
f 111/9/9 62/49/49 61/56/56
f 61/56/56 110/24/24 111/9/9
f 88/3/3 63/50/50 62/49/49
f 62/49/49 111/9/9 88/3/3
f 89/2/2 40/73/73 63/50/50
f 63/50/50 88/3/3 89/2/2
