# Blender 4.3.0
# www.blender.org
mtllib R_upperButton.mtl
o R_upperButton
v -0.018686 -0.005040 0.037637
v -0.017926 -0.003137 0.039506
v -0.016013 -0.001651 0.040600
v -0.013501 -0.000911 0.040712
v -0.011041 -0.001072 0.039855
v -0.009180 -0.002090 0.038232
v -0.008520 -0.003719 0.036272
v -0.009196 -0.005514 0.034499
v -0.011276 -0.007155 0.033281
v -0.013714 -0.007875 0.033165
v -0.016115 -0.007739 0.033977
v -0.018076 -0.006643 0.035717
v -0.017128 -0.002300 0.040200
v -0.018508 -0.004089 0.038627
v -0.014784 -0.001157 0.040800
v -0.012206 -0.000861 0.040407
v -0.009961 -0.001475 0.039119
v -0.008655 -0.002853 0.037255
v -0.008671 -0.004639 0.035310
v -0.010094 -0.006434 0.033743
v -0.012465 -0.007637 0.033081
v -0.014979 -0.007935 0.033450
v -0.017259 -0.007308 0.034765
v -0.018540 -0.005891 0.036667
v -0.018037 -0.007376 0.039624
v -0.017277 -0.005473 0.041493
v -0.015364 -0.003987 0.042587
v -0.012852 -0.003246 0.042699
v -0.010392 -0.003407 0.041842
v -0.008530 -0.004426 0.040219
v -0.007870 -0.006054 0.038259
v -0.008547 -0.007850 0.036486
v -0.010627 -0.009491 0.035268
v -0.013064 -0.010211 0.035152
v -0.015466 -0.010075 0.035964
v -0.017427 -0.008978 0.037704
v -0.016479 -0.004635 0.042187
v -0.017859 -0.006424 0.040614
v -0.014134 -0.003492 0.042787
v -0.011557 -0.003197 0.042394
v -0.009312 -0.003810 0.041106
v -0.008006 -0.005188 0.039242
v -0.008022 -0.006974 0.037297
v -0.009445 -0.008769 0.035730
v -0.011815 -0.009973 0.035068
v -0.014330 -0.010270 0.035437
v -0.016610 -0.009643 0.036752
v -0.017891 -0.008227 0.038654
v -0.010853 -0.001524 0.038208
v -0.011724 -0.001200 0.038802
v -0.012659 -0.001031 0.039243
v -0.013679 -0.001064 0.039489
v -0.014694 -0.001263 0.039552
v -0.015672 -0.001657 0.039393
v -0.016565 -0.002183 0.039066
v -0.017212 -0.002858 0.038507
v -0.017671 -0.003609 0.037812
v -0.017820 -0.004356 0.037038
v -0.017701 -0.005033 0.036265
v -0.017320 -0.005635 0.035504
v -0.016668 -0.006169 0.034742
v -0.015757 -0.006513 0.034113
v -0.014843 -0.006673 0.033685
v -0.013846 -0.006634 0.033452
v -0.012857 -0.006437 0.033394
v -0.011905 -0.006047 0.033559
v -0.010962 -0.005469 0.033930
v -0.010248 -0.004736 0.034532
v -0.009823 -0.004032 0.035182
v -0.009691 -0.003308 0.035937
v -0.009808 -0.002627 0.036713
v -0.010224 -0.002024 0.037488
v -0.013784 -0.003746 0.036404
vn -0.9996 0.0264 -0.0051
vn -0.9782 -0.1467 0.1472
vn -0.9382 0.0324 0.3447
vn -0.9614 0.2076 0.1806
vn -0.0046 0.8093 0.5874
vn 0.0419 0.6542 0.7552
vn 0.2867 0.6658 0.6888
vn 0.2306 0.8246 0.5166
vn 0.7582 -0.0250 -0.6515
vn 0.8303 -0.2089 -0.5167
vn 0.6676 -0.3660 -0.6483
vn 0.5969 -0.1742 -0.7832
vn 0.9046 0.3116 -0.2910
vn 0.9782 0.1473 -0.1465
vn 0.9410 -0.0254 -0.3374
vn 0.8651 0.1506 -0.4785
vn 0.7804 0.6186 0.0913
vn 0.8527 0.4552 0.2564
vn 0.9487 0.3112 0.0557
vn 0.8737 0.4762 -0.0992
vn -0.0752 -0.4662 -0.8815
vn -0.0321 -0.6528 -0.7568
vn -0.2695 -0.6664 -0.6952
vn -0.3074 -0.4727 -0.8259
vn 0.3963 -0.3083 -0.8648
vn 0.4586 -0.4984 -0.7357
vn 0.2148 -0.5976 -0.7725
vn 0.1608 -0.4064 -0.8994
vn -0.5369 -0.4424 -0.7183
vn -0.5070 -0.6360 -0.5818
vn -0.6987 -0.5663 -0.4372
vn -0.7258 -0.3675 -0.5815
vn -0.8656 0.3729 0.3342
vn -0.8385 0.1986 0.5074
vn -0.6617 0.3706 0.6518
vn -0.6927 0.5456 0.4717
vn 0.4482 0.7958 0.4073
vn 0.5096 0.6354 0.5802
vn 0.6978 0.5668 0.4381
vn 0.6278 0.7318 0.2652
vn -0.8812 -0.2597 -0.3951
vn -0.8581 -0.4496 -0.2480
vn -0.9504 -0.3071 -0.0503
vn -0.9715 -0.1216 -0.2034
vn -0.4735 0.6770 0.5635
vn -0.4373 0.5092 0.7413
vn -0.2096 0.5992 0.7727
vn -0.2511 0.7612 0.5980
vn -0.3603 0.7223 -0.5903
vn -0.3583 0.6905 -0.6284
vn -0.3386 0.7545 -0.5622
vn -0.3133 0.7906 -0.5262
vn -0.2632 0.8131 -0.5192
vn -0.2211 0.8317 -0.5093
vn -0.1745 0.8361 -0.5201
vn -0.1277 0.8430 -0.5226
vn -0.0869 0.8333 -0.5460
vn -0.0431 0.8240 -0.5649
vn -0.0214 0.7966 -0.6041
vn -0.0004 0.7689 -0.6394
vn -0.0052 0.7368 -0.6761
vn -0.0012 0.7034 -0.7108
vn -0.0257 0.6694 -0.7425
vn -0.0465 0.6328 -0.7729
vn -0.0945 0.6152 -0.7827
vn -0.1387 0.5943 -0.7922
vn -0.1853 0.5926 -0.7839
vn -0.2306 0.5827 -0.7793
vn -0.2735 0.5932 -0.7572
vn -0.3185 0.5980 -0.7355
vn -0.3409 0.6298 -0.6979
vn -0.3600 0.6569 -0.6625
vn -0.1833 0.7251 -0.6638
vt 0.806848 0.875732
vt 0.806848 0.895105
vt 0.802445 0.895105
vt 0.802445 0.875732
vt 0.883795 0.875732
vt 0.883795 0.895105
vt 0.879560 0.895105
vt 0.879560 0.875732
vt 0.849959 0.875732
vt 0.849959 0.895105
vt 0.845216 0.895105
vt 0.845216 0.875732
vt 0.858364 0.875732
vt 0.858364 0.895105
vt 0.854106 0.895105
vt 0.854106 0.875732
vt 0.866828 0.875732
vt 0.866828 0.895105
vt 0.862551 0.895105
vt 0.862551 0.875732
vt 0.832391 0.875732
vt 0.832391 0.895105
vt 0.828262 0.895105
vt 0.828262 0.875732
vt 0.840572 0.875732
vt 0.840572 0.895105
vt 0.836443 0.895105
vt 0.836443 0.875732
vt 0.824234 0.875732
vt 0.824234 0.895105
vt 0.819611 0.895105
vt 0.819611 0.875732
vt 0.797928 0.875732
vt 0.797928 0.895105
vt 0.793638 0.895105
vt 0.793638 0.875732
vt 0.875409 0.875732
vt 0.875409 0.895105
vt 0.871062 0.895105
vt 0.871062 0.875732
vt 0.815098 0.875732
vt 0.815098 0.895105
vt 0.810976 0.895105
vt 0.810976 0.875732
vt 0.789342 0.875732
vt 0.789342 0.895105
vt 0.785079 0.895105
vt 0.785079 0.875732
vt 0.887957 0.875732
vt 0.887957 0.895105
vt 0.450314 0.066787
vt 0.456453 0.063233
vt 0.461647 0.069691
vt 0.453432 0.074447
vt 0.443183 0.068501
vt 0.444007 0.076705
vt 0.436066 0.068607
vt 0.434794 0.076769
vt 0.426041 0.073848
vt 0.429334 0.066328
vt 0.418199 0.069132
vt 0.423358 0.062734
vt 0.412084 0.062560
vt 0.418761 0.057770
vt 0.415392 0.051795
vt 0.407626 0.054587
vt 0.413812 0.045132
vt 0.405589 0.045909
vt 0.413633 0.037918
vt 0.405448 0.036579
vt 0.407818 0.027815
vt 0.415538 0.031124
vt 0.412237 0.019772
vt 0.418889 0.025012
vt 0.418675 0.013444
vt 0.423732 0.020255
vt 0.429643 0.016727
vt 0.426561 0.008743
vt 0.436302 0.015098
vt 0.435194 0.006607
vt 0.444067 0.015050
vt 0.445341 0.006620
vt 0.454838 0.009537
vt 0.451351 0.017333
vt 0.462450 0.014055
vt 0.457224 0.020781
vt 0.468414 0.020439
vt 0.461729 0.025599
vt 0.465068 0.031399
vt 0.472860 0.028146
vt 0.466642 0.037891
vt 0.474937 0.036534
vt 0.466790 0.045474
vt 0.475080 0.046436
vt 0.472448 0.055752
vt 0.464701 0.052605
vt 0.467951 0.063389
vt 0.461264 0.058493
vt 0.440199 0.041761
s 1
usemtl VstController_250406
f 1/1/1 25/2/2 38/3/3
f 38/3/3 14/4/4 1/1/1
f 4/5/5 28/6/6 40/7/7
f 40/7/7 16/8/8 4/5/5
f 8/9/9 32/10/10 44/11/11
f 44/11/11 20/12/12 8/9/9
f 7/13/13 31/14/14 43/15/15
f 43/15/15 19/16/16 7/13/13
f 6/17/17 30/18/18 42/19/19
f 42/19/19 18/20/20 6/17/17
f 10/21/21 34/22/22 46/23/23
f 46/23/23 22/24/24 10/21/21
f 9/25/25 33/26/26 45/27/27
f 45/27/27 21/28/28 9/25/25
f 11/29/29 35/30/30 47/31/31
f 47/31/31 23/32/32 11/29/29
f 2/33/33 26/34/34 37/35/35
f 37/35/35 13/36/36 2/33/33
f 5/37/37 29/38/38 41/39/39
f 41/39/39 17/40/40 5/37/37
f 12/41/41 36/42/42 48/43/43
f 48/43/43 24/44/44 12/41/41
f 3/45/45 27/46/46 39/47/47
f 39/47/47 15/48/48 3/45/45
f 13/36/36 37/35/35 27/46/46
f 27/46/46 3/45/45 13/36/36
f 14/4/4 38/3/3 26/34/34
f 26/34/34 2/33/33 14/4/4
f 15/49/48 39/50/47 28/6/6
f 28/6/6 4/5/5 15/49/48
f 16/8/8 40/7/7 29/38/38
f 29/38/38 5/37/37 16/8/8
f 17/40/40 41/39/39 30/18/18
f 30/18/18 6/17/17 17/40/40
f 18/20/20 42/19/19 31/14/14
f 31/14/14 7/13/13 18/20/20
f 19/16/16 43/15/15 32/10/10
f 32/10/10 8/9/9 19/16/16
f 20/12/12 44/11/11 33/26/26
f 33/26/26 9/25/25 20/12/12
f 21/28/28 45/27/27 34/22/22
f 34/22/22 10/21/21 21/28/28
f 22/24/24 46/23/23 35/30/30
f 35/30/30 11/29/29 22/24/24
f 23/32/32 47/31/31 36/42/42
f 36/42/42 12/41/41 23/32/32
f 24/44/44 48/43/43 25/2/2
f 25/2/2 1/1/1 24/44/44
f 57/51/49 58/52/50 1/53/1
f 1/53/1 14/54/4 57/51/49
f 56/55/51 57/51/49 14/54/4
f 14/54/4 2/56/33 56/55/51
f 55/57/52 56/55/51 2/56/33
f 2/56/33 13/58/36 55/57/52
f 3/59/45 54/60/53 55/57/52
f 55/57/52 13/58/36 3/59/45
f 15/61/48 53/62/54 54/60/53
f 54/60/53 3/59/45 15/61/48
f 53/62/54 15/61/48 4/63/5
f 4/63/5 52/64/55 53/62/54
f 51/65/56 52/64/55 4/63/5
f 4/63/5 16/66/8 51/65/56
f 50/67/57 51/65/56 16/66/8
f 16/66/8 5/68/37 50/67/57
f 49/69/58 50/67/57 5/68/37
f 5/68/37 17/70/40 49/69/58
f 6/71/17 72/72/59 49/69/58
f 49/69/58 17/70/40 6/71/17
f 18/73/20 71/74/60 72/72/59
f 72/72/59 6/71/17 18/73/20
f 7/75/13 70/76/61 71/74/60
f 71/74/60 18/73/20 7/75/13
f 69/77/62 70/76/61 7/75/13
f 7/75/13 19/78/16 69/77/62
f 68/79/63 69/77/62 19/78/16
f 19/78/16 8/80/9 68/79/63
f 67/81/64 68/79/63 8/80/9
f 8/80/9 20/82/12 67/81/64
f 9/83/25 66/84/65 67/81/64
f 67/81/64 20/82/12 9/83/25
f 21/85/28 65/86/66 66/84/65
f 66/84/65 9/83/25 21/85/28
f 10/87/21 64/88/67 65/86/66
f 65/86/66 21/85/28 10/87/21
f 63/89/68 64/88/67 10/87/21
f 10/87/21 22/90/24 63/89/68
f 62/91/69 63/89/68 22/90/24
f 22/90/24 11/92/29 62/91/69
f 61/93/70 62/91/69 11/92/29
f 11/92/29 23/94/32 61/93/70
f 12/95/41 60/96/71 61/93/70
f 61/93/70 23/94/32 12/95/41
f 24/97/44 59/98/72 60/96/71
f 60/96/71 12/95/41 24/97/44
f 1/53/1 58/52/50 59/98/72
f 59/98/72 24/97/44 1/53/1
f 58/52/50 57/51/49 73/99/73
f 57/51/49 56/55/51 73/99/73
f 56/55/51 55/57/52 73/99/73
f 55/57/52 54/60/53 73/99/73
f 54/60/53 53/62/54 73/99/73
f 53/62/54 52/64/55 73/99/73
f 52/64/55 51/65/56 73/99/73
f 51/65/56 50/67/57 73/99/73
f 50/67/57 49/69/58 73/99/73
f 49/69/58 72/72/59 73/99/73
f 72/72/59 71/74/60 73/99/73
f 71/74/60 70/76/61 73/99/73
f 70/76/61 69/77/62 73/99/73
f 69/77/62 68/79/63 73/99/73
f 68/79/63 67/81/64 73/99/73
f 67/81/64 66/84/65 73/99/73
f 66/84/65 65/86/66 73/99/73
f 65/86/66 64/88/67 73/99/73
f 64/88/67 63/89/68 73/99/73
f 63/89/68 62/91/69 73/99/73
f 62/91/69 61/93/70 73/99/73
f 61/93/70 60/96/71 73/99/73
f 60/96/71 59/98/72 73/99/73
f 59/98/72 58/52/50 73/99/73
