<?xml version="1.0" encoding="UTF-8"?>
<svg id="_레이어_3" data-name="레이어 3" xmlns="http://www.w3.org/2000/svg" viewBox="0 0 571 581">
  <defs>
    <style>
      .cls-1 {
        fill: #fff;
        stroke-width: 0px;
      }
    </style>
  </defs>
  <path class="cls-1" d="m295.95,348.53c-9.45-5.1-23.15-13.05-30.65-18.45-5.2-3.75-11.5-9.4-17.6-14.85-6.25-5.55-12.15-10.85-16.05-13.35-8.15-5.25-19.8-3.1-27.15,1.15-3.15,1.8-6.15,4.7-8.4,8.1-.25.4-.15.95.25,1.2s.95.15,1.2-.25c2.1-3.2,4.85-5.9,7.8-7.55,6.9-3.95,17.75-6.05,25.3-1.2,3.75,2.4,9.6,7.65,15.8,13.15,6.15,5.45,12.45,11.15,17.7,14.95,7.55,5.5,21.35,13.45,30.85,18.6.15.05.25.1.4.1.3,0,.65-.15.8-.45.35-.35.2-.9-.25-1.15Z"/>
  <path class="cls-1" d="m46.75,410.18c-1.5,3-1.25,6.45.8,9.55,4.65,7.15,15.05,21.25,23.1,28.75,3,2.8,6.5,4.1,9.7,4.15,2.9.05,5.45-.9,7.15-2.6,2.4-2.45,3.15-6.85-1.85-11.9-3.55-3.6-15.85-17.9-22.5-28.1-2.2-3.4-5.3-5.15-8.65-4.95-3.25.2-6.25,2.2-7.75,5.1Zm7.8-3.35h.5c2.5.05,4.85,1.5,6.55,4.15,6.85,10.5,19.05,24.65,22.75,28.4,3.5,3.5,4.15,7.05,1.85,9.45-2.9,3-9.35,3.05-14.35-1.65-7.95-7.4-18.2-21.4-22.85-28.45-1.7-2.55-1.9-5.35-.7-7.8,1.25-2.35,3.65-3.95,6.25-4.1Z"/>
  <path class="cls-1" d="m415.3,237.88c-10.75-7.45-25.85-13.85-42.5-18.1-15.15-3.85-30.05-5.65-41.95-5-14.95.8-24.25,5.35-26.15,12.7-3.6,14.1,20.8,32.1,55.6,41,12.35,3.15,24.1,4.8,34.3,5,19.25.4,33.1-4.15,35.4-13.05,1.7-6.85-3.5-14.85-14.7-22.55Zm12.95,22.05c-3.2,12.45-33.5,15.5-67.55,6.8-33.25-8.5-57.65-25.9-54.35-38.85,1.7-6.55,10.4-10.6,24.55-11.4,11.7-.65,26.45,1.1,41.45,4.95,16.45,4.2,31.35,10.55,41.95,17.85,10.55,7.3,15.5,14.65,13.95,20.65Z"/>
  <path class="cls-1" d="m465.2,213.38c-.05-.05-.1-.05-.15-.1-.95-1.45-2.2-2.75-3.65-3.85-4.4-3.3-10.35-5.8-16.35-6.95-6.45-1.2-13.15-1-18.45.7-1.85.6-3.5,1.5-4.95,2.65-.05,0-.1,0-.15.05-3.9,1.6-6.25,4-6.8,6.9-.7,3.7,1.6,7.65,6.5,11.15,4.7,3.4,11.25,6,18.5,7.35,3.25.6,6.4.95,9.4,1,11.1.25,19.55-3.2,20.65-9.1.6-3.4-.95-6.75-4.55-9.8Zm.45,9.6c-.3,1.7-.95,3.3-1.9,4.75-5.1,2.75-14.15,3.6-23.7,1.8-7-1.35-13.3-3.85-17.8-7.05-1.35-1-2.5-2-3.4-3v-.05c-.45-1.9-.5-3.85-.15-5.7.05-.25.1-.45.15-.7,1.1-3.85,4.15-6.9,8.25-8.2,5-1.55,11.45-1.8,17.6-.65,5.75,1.1,11.45,3.5,15.6,6.65,3.45,2.55,5.5,6.5,5.45,10.55.05.6,0,1.1-.1,1.6Z"/>
  <path class="cls-1" d="m363.5,185.13c-1.65.8-3.05,1.85-4.2,3.15-.05,0-.1,0-.1.05-3.4,2.05-5.25,4.6-5.35,7.4-.3,7.1,11,13.15,25.7,13.75.35,0,.65,0,1,.05,14.25.3,25.45-4.75,25.7-11.7.15-3.25-1.85-6.3-5.5-8.6-.1-.05-.25-.1-.35-.1-1.1-1.15-2.35-2.15-3.8-2.9-4.55-2.45-10.4-3.95-16.1-4.2-6.2-.3-12.35.85-17,3.1Zm38.75,11.5c.1.55.1,1.05.1,1.5-.05,1.6-.45,3.15-1.1,4.65-4.35,3.25-12.55,5.25-21.65,4.9-8.9-.35-16.8-2.95-20.95-6.4-.7-1.7-1-3.45-.95-5.25,0-.2.05-.45.05-.65.45-3.7,2.9-6.95,6.45-8.65,4.4-2.15,10.3-3.2,16.15-3,5.45.2,11.05,1.65,15.35,3.95,3.6,1.9,6,5.25,6.55,8.95Z"/>
  <path class="cls-1" d="m360.5,176.93c11.05.25,22.85-2.35,23-7.65.1-5.3-11.6-8.4-22.65-8.65s-22.85,2.35-23,7.65c-.1,5.3,11.6,8.4,22.65,8.65Zm.35-14.6c12.4.25,21,3.85,20.9,6.85-.05,3.05-8.8,6.2-21.2,5.95-12.4-.25-21-3.85-20.9-6.85.05-3,8.75-6.2,21.2-5.95Z"/>
  <path class="cls-1" d="m454.9,162.93c3.25.55,6.5.9,9.4.95,2.25.05,4.3-.05,6.15-.3,4.6-.6,7.2-2.05,7.55-4.15.2-1.25-.45-2.6-1.95-3.9-.25-.2-.65-.2-.85.05-.2.25-.2.65.05.85.8.7,1.7,1.75,1.55,2.8-.25,1.45-2.7,2.6-6.5,3.1-4.2.55-9.6.35-15.2-.65-12.2-2.1-20.15-6.75-19.65-9.6.1-.6.6-1.2,1.5-1.7.3-.15.4-.55.25-.85-.15-.3-.55-.4-.85-.25-1.2.7-1.9,1.55-2.1,2.55-.8,4.8,10.05,9.3,20.65,11.1Z"/>
  <path class="cls-1" d="m458.7,401.13c.1.4.45.65.85.65.1,0,.15,0,.25-.05.45-.1.75-.6.65-1.05-.7-2.8-1.45-8.85,1.6-17.7,1.3-3.75,4.35-8.4,9.3-14.25.3-.35.25-.9-.1-1.25-.35-.3-.9-.25-1.25.1-5.15,6-8.3,10.85-9.65,14.8-3.25,9.3-2.45,15.75-1.65,18.75Z"/>
  <polygon class="cls-1" points="452.4 207.68 439.8 207.68 430.45 207.33 429.95 208.93 439.65 209.18 450.6 216.93 451.9 215.23 442.9 208.88 452.95 208.98 452.4 207.68"/>
  <polygon class="cls-1" points="355.25 165.03 353.15 165.13 350.4 170.48 352.35 170.68 355.25 165.03"/>
  <polygon class="cls-1" points="363.1 165.23 361.05 165.28 358.25 170.68 360.2 170.83 363.1 165.23"/>
  <polygon class="cls-1" points="370.85 165.38 368.75 165.48 366 170.83 367.95 170.98 370.85 165.38"/>
  <path class="cls-1" d="m558.7,235.03c-10.05-25.25-35.95-47.05-73.15-61.75,1-1.25,1.65-2.65,1.95-4.25l1.05-5.9c1.65-9.6-13.65-17.4-29.65-20.15s-33-.5-34.65,9.05l-.85,4.9c-76.35-11.65-134.55,16.1-145.6,21.9-14.75,7.7-190.45,114.85-225.45,140.35-1.9,1.55-46.15,38.25-45.3,81.2.75,38.15,24.35,64.2,70.2,77.5,5.2,1.5,10.75,2.2,16.55,2.35,32.95.7,71.95-17.9,76.95-20.35,12.6-6.2,78.5-48.75,98.5-62.05,3.55-2.35,7.45-5.3,11.2-8.1,1.15-.85,2.3-1.75,3.4-2.55,1.5-.05,2.8-.35,4-.6,9.2-2,25.85-17.55,26-17.7,1.7-1.65,3.05-4.45,3.75-7.75,3.35-2.45,6.15-4.15,8.25-5.1,1.2-.5,2.55-.5,3.75.1,13.8,6.85,23.9,13.5,32.85,19.35,4.85,3.2,9.45,6.25,14.25,9.05,13.55,7.95,23.5,13.2,29.5,15.55,2.3.9,4.8.85,7.05-.2,2.3-1.05,4-2.95,4.85-5.3.6-1.65,1.4-3.7,2.45-5.8,23.95,14.95,34.9,20.55,41.4,20.7,1.45.05,2.65-.2,3.7-.65,4.5-1.9,5.65-7.2,7.25-14.55,2.65-12.25,6.7-30.65,28.2-49.9,14.45-7.25,30-16.65,40.25-27.45,16.95-17.95,30.45-48.9,17.35-81.9Zm-131-76.3l1.05-5.9c.7-4.2,8.7-6.6,19.1-6.35,3.25.05,6.75.4,10.3,1,7.5,1.3,14.35,3.65,19.3,6.6,4.65,2.75,7.05,5.8,6.6,8.3l-1.05,5.9h0c-.45,2.75-3.8,5-9.1,6.2-5.65,1.25-12.9,1.25-20.4-.05-7.5-1.3-14.35-3.7-19.25-6.8-4.65-2.9-7.05-6.15-6.55-8.9Zm53.15,30.8c-.9-2.2-3.6-4.4-7.65-6.55l1.1-6.85c.25-.05.5-.15.75-.2,7.6,3.5,11.75,7.7,11.15,11.2-.3,1.8-2.15,3.4-5.1,4.6.15-.7.05-1.45-.25-2.2Zm-50.45-5.9c1.1-.4,1.95-1.4,2.1-2.55l1.75-11.35c5,2.95,11.65,5.2,18.9,6.45,3.4.6,6.8.9,10,1,3.35.05,6.5-.15,9.35-.65l-2,12.15c-.15.95.2,1.9.9,2.55.75.7,1.55,1.5,2.35,2.4-6.1.85-14,.7-23.1-.9s-17.45-4.3-23.45-7.7c1-.55,2-.9,3.2-1.4Zm-9.25-3.15c-1.65-1.75-2.45-3.5-2.2-5,.55-3.25,5.65-5.7,13.65-6.55l-.9,5.8c-5.1.35-9.4,2.75-10.55,5.75Zm-110.5,185.35c-1,1.2-3.6,3.6-6.85,6.2q-.05.05-.1.1c-5.45,4.4-12.7,9.35-17.2,10.35-1.05.2-2.15.4-3.3.5h-.05c-9.9,1.1-23.85-1.2-38.95-6.65-17.4-6.2-38.9-21.3-44.35-28.05-3.05-3.75-5.35-8.45-6.9-13.85-.55-2.05-1.25-4-2-5.8-3.55-8.55-7.45-26.4.2-39.2,6.75-11.25,15.9-13.3,22.05-13.2,3.8.1,6.5,1,6.8,1.1,3.45,1.2,5.65,3.55,8.15,6.3.1.15.2.3.35.4,1.35,1.45,2.75,3,4.45,4.5.9.8,2.15,1.95,3.75,3.4,9.15,8.3,28.2,25.55,37.55,32.25,8.6,6.2,30.95,20.45,37.15,24.3,1.1.65,1.8,1.7,1.95,2.9.6,4.6-.8,12.15-2.7,14.45Zm158.1,27.55c-1.35,6.1-2.3,10.55-4.75,11.6-4.75,2-18.3-5.4-41.45-19.85.75-1.2,1.55-2.4,2.5-3.55,6.1-7.55,18.9-14.55,40.25-22.05,3.55-1.25,13.05-4.7,24.5-9.8-15.25,17.15-18.8,33.35-21.05,43.65Zm69.45-79.35c-9.55,10.1-24.05,19-37.75,25.95-.5,0-.95.15-1.35.5-.15.15-.3.3-.45.4-15.75,7.85-30.15,13.05-34.75,14.65-22.45,7.85-35.45,15.05-42.15,23.35-3.1,3.85-5.7,8.7-7.65,14.3-.45,1.3-1.4,2.3-2.6,2.85-1.2.55-2.55.6-3.75.1-5.75-2.25-15.7-7.55-28.9-15.3-4.7-2.75-9.25-5.75-14.05-8.9-9-5.95-19.25-12.65-33.3-19.6-2.25-1.15-4.9-1.2-7.25-.2s-5.35,2.85-8.85,5.4c.25-2.35.3-4.7.05-6.5s-1.3-3.4-2.95-4.35c-6.15-3.8-28.45-18.05-37-24.2-9.25-6.65-28.25-23.85-37.35-32.1-1.6-1.45-2.9-2.6-3.75-3.4-1.55-1.4-2.9-2.85-4.15-4.2.95-5.6,7.85-19.35,9.15-20.95.5-.6,4.9-5.5,10.8-1.6,2.95,1.95,8.35,6.3,13.55,10.5,5.25,4.2,10.7,8.6,13.75,10.6,6.6,4.35,38.3,22.55,72.45,31.9,23.65,6.45,51.7,10.2,78.95,10.75,13.85.3,27.5-.2,40.25-1.55,24.25-2.6,44.1-7.45,60.65-14.8.55-.25.75-.85.55-1.4-.25-.55-.85-.75-1.4-.55-16.35,7.3-36,12.1-60,14.65-37.65,4-83.05.5-118.4-9.15-33.9-9.25-65.3-27.3-71.85-31.6-2.95-1.95-8.35-6.3-13.55-10.45-5.25-4.25-10.7-8.6-13.75-10.6-6.05-4-11.35-.6-13.55,2-1.45,1.7-7.55,13.75-9.3,20.4-2.2-2.3-4.45-4.35-7.75-5.5-7.2-2.6-21.95-2.75-31.35,13-9.95,16.6-1.35,38.6-.35,41.1.7,1.75,1.35,3.6,1.9,5.55,1.6,5.7,4.05,10.6,7.25,14.6.2.25.45.55.7.8-21.95,13.85-88.15,54.3-109.1,66.5-7.25-8.4-13.45-17-18.55-25.75-11.75-20-15.6-34.7-16.8-43.5-.75-5.75-.8-11.35-.1-16.65.05-.6-.35-1.1-.9-1.2-.55-.05-1.1.35-1.2.9-.7,5.5-.65,11.3.1,17.2,1.2,9,5.15,24,17.05,44.3,11.6,19.75,28.65,38.85,50.7,56.7,5.75,4.65,12.05,8.35,18.75,11,.1.05.25.05.35.05.45,0,.85-.25,1-.65.2-.55-.05-1.15-.6-1.35-6.5-2.55-12.6-6.15-18.2-10.65-11.5-9.3-21.55-18.95-30.25-28.8,21.45-12.5,87.7-53,109.1-66.65,7.8,7.6,27.15,20.65,43.1,26.35,12.3,4.4,23.9,6.8,33.3,7h2.5c-.45.35-.9.65-1.35,1-3.75,2.8-7.6,5.7-11.05,8-23.1,15.4-86.2,55.95-98,61.8-5.75,2.85-57.2,27.4-90.45,17.75-43.85-12.7-66.45-37.45-67.15-73.55-.8-40.9,43.3-77.5,43.65-77.8,37.05-27,213.8-134.2,224.85-139.95,6.75-3.55,68.15-34.05,146.6-20.9.7,1.9,2.2,3.85,4.5,5.7-8,1.15-12.95,3.95-13.6,7.8-.65,3.65,2.55,7.7,9.05,11.3,6.2,3.5,14.75,6.3,24.05,7.9,4.9.85,9.55,1.3,13.85,1.4s8.2-.2,11.6-.8h0c6.95-1.25,11.55-3.85,12.15-7.55.7-4.05-3.05-8.45-10.4-12.25.2-.05.4-.15.6-.2.45.15.85.25,1.05.3,52.25,19.25,69.8,46.65,75.65,61.25,12.35,31.25-.45,60.55-16.6,77.55Z"/>
  <path class="cls-1" d="m368.8,185.48c-.15.5-.35,1.05-.55,1.55,2.7.25,5.3.45,7.95,1-2.85.85-5.7,1.7-8.45,2.9,0,.65.05,1.35.05,2,3.8-1.7,7.8-2.95,11.9-3.85,3.95,1.5,7.5,3.5,11,5.9.15-.65.3-1.3.4-1.95-2.5-1.7-5-3.25-7.75-4.5,2.7-.25,5.4-.3,8.1-.25-.1-.6-.25-1.15-.35-1.75-3.8-.1-7.5,0-11.25.65-3.65-1.05-7.25-1.45-11.05-1.7Z"/>
</svg>