# Blender 4.3.0
# www.blender.org
mtllib L_grip.mtl
o L_grip
v 0.005740 0.006712 0.092623
v 0.005695 0.008416 0.091306
v 0.015341 0.004869 0.091147
v 0.015956 0.003481 0.092384
v 0.015182 0.004514 0.083040
v 0.015948 0.003312 0.081713
v 0.015685 0.002681 0.084013
v 0.014726 0.005111 0.084813
v 0.015618 0.002479 0.086365
v 0.014713 0.005252 0.086782
v 0.011970 -0.013675 0.079009
v 0.011488 -0.013870 0.081306
v 0.013720 -0.010664 0.082669
v 0.014196 -0.010598 0.079821
v 0.016056 -0.001976 0.085402
v 0.015427 -0.006674 0.084083
v 0.015297 -0.007019 0.087052
v 0.016139 -0.002014 0.088332
v 0.012540 -0.013743 0.076647
v 0.014232 -0.011979 0.076514
v 0.011141 -0.014839 0.077435
v 0.010313 -0.015331 0.078635
v 0.016894 0.000622 0.080356
v 0.016337 -0.001778 0.082586
v 0.009686 -0.015730 0.080371
v 0.017131 -0.003356 0.079094
v 0.015885 0.003596 0.081181
v 0.016891 0.000855 0.079815
v 0.015827 0.002453 0.088801
v 0.015080 0.004922 0.088679
v 0.011221 -0.014209 0.083627
v 0.013431 -0.011110 0.085448
v 0.009585 -0.015858 0.082235
v 0.009993 -0.015666 0.078337
v 0.009302 -0.016112 0.080232
v 0.014909 0.005426 0.088916
v 0.014489 0.005771 0.086817
v 0.016475 -0.003666 0.091350
v 0.016763 0.000289 0.091957
v 0.017199 -0.003171 0.078568
v 0.016636 -0.006994 0.077862
v 0.015854 -0.006637 0.081068
v 0.016751 -0.006874 0.077344
v 0.015584 -0.009939 0.076964
v 0.015686 -0.009904 0.076442
v 0.013932 -0.010964 0.088869
v 0.015408 -0.007767 0.090064
v 0.014259 -0.012042 0.075980
v 0.012471 -0.013095 0.087713
v 0.011015 -0.014803 0.086046
v 0.010830 -0.015021 0.086538
v 0.012323 -0.013294 0.088203
v 0.016263 0.002872 0.091475
v 0.015750 0.004017 0.090458
v 0.010089 -0.015580 0.084287
v 0.009187 -0.016257 0.082276
v 0.009766 -0.015922 0.084576
v 0.006011 -0.009748 0.090196
v 0.013567 -0.011283 0.089718
v 0.012015 -0.013480 0.088517
v 0.006028 -0.012221 0.088928
v 0.005686 0.008077 0.082173
v 0.014644 0.005304 0.082350
v 0.014121 0.006037 0.084484
v 0.005662 0.008866 0.084349
v 0.006037 -0.014304 0.087119
v 0.010471 -0.015243 0.086802
v 0.009353 -0.016217 0.084714
v 0.006039 -0.015557 0.084955
v 0.005733 0.006646 0.080533
v 0.015584 0.003895 0.080799
v 0.016534 0.000577 0.092950
v 0.005818 0.003276 0.093112
v 0.014119 0.006237 0.086816
v 0.005653 0.009308 0.086816
v 0.006037 -0.016092 0.082475
v 0.008758 -0.016590 0.082275
v 0.008893 -0.016427 0.080108
v 0.006036 -0.015909 0.080302
v 0.016226 -0.003659 0.092336
v 0.005900 -0.001300 0.092585
v 0.015122 -0.007953 0.090992
v 0.005970 -0.006043 0.091426
v 0.006034 -0.012495 0.075909
v 0.012192 -0.013997 0.075772
v 0.014055 -0.012059 0.075589
v 0.006018 -0.009767 0.075688
v 0.005664 0.009250 0.089150
v 0.014563 0.005892 0.089066
v 0.010567 -0.015322 0.076727
v 0.006038 -0.014358 0.076902
v 0.006037 -0.015221 0.078300
v 0.009628 -0.015924 0.078101
v 0.005808 0.003790 0.079187
v 0.016631 0.001116 0.079421
v 0.005886 0.000186 0.078144
v 0.017043 -0.002948 0.078171
v 0.005946 -0.003349 0.077149
v 0.016654 -0.006718 0.076948
v 0.005993 -0.006903 0.076191
v 0.015558 -0.009822 0.076047
v 0.015660 0.004451 0.090872
v 0.016245 0.003161 0.092013
v 0.013820 -0.011140 0.089359
v 0.015016 0.004929 0.082638
v 0.014499 0.005602 0.084639
v 0.016768 0.000405 0.092529
v 0.016450 -0.003692 0.091906
v 0.015348 -0.007882 0.090589
v 0.012472 -0.013889 0.076132
v 0.010901 -0.015121 0.077027
vn 0.1503 0.3719 0.9160
vn 0.1410 0.3304 0.9333
vn 0.3136 0.7874 0.5307
vn 0.3021 0.7892 0.5347
vn 0.9176 0.3706 0.1434
vn 0.9362 0.3491 0.0402
vn 0.9801 0.1708 0.1009
vn 0.9614 0.1948 0.1944
vn 0.9392 0.3355 -0.0731
vn 0.9853 0.1693 -0.0237
vn 0.7698 -0.6358 0.0561
vn 0.7416 -0.6504 0.1645
vn 0.8318 -0.5165 0.2033
vn 0.8655 -0.4957 0.0723
vn 0.9989 -0.0354 0.0323
vn 0.9934 -0.0495 -0.1032
vn 0.9644 -0.2596 -0.0500
vn 0.9590 -0.2749 0.0691
vn 0.7011 -0.6920 0.1719
vn 0.7581 -0.6113 0.2272
vn 0.6667 -0.7268 0.1650
vn 0.6851 -0.7198 0.1119
vn 0.9820 -0.0405 0.1843
vn 0.9584 0.0904 0.2708
vn 0.7050 -0.7079 0.0422
vn 0.9587 -0.1393 0.2479
vn 0.9587 0.2400 -0.1525
vn 0.8876 0.4527 -0.0852
vn 0.9399 0.3135 -0.1356
vn 0.9808 0.1406 -0.1348
vn 0.7972 -0.6026 -0.0362
vn 0.8798 -0.4726 -0.0508
vn 0.7210 -0.6920 -0.0344
vn 0.6505 -0.7593 0.0169
vn 0.6144 -0.7867 0.0596
vn 0.8464 0.5291 -0.0608
vn 0.8556 0.5122 -0.0746
vn 0.9785 -0.1426 -0.1488
vn 0.9819 0.0632 -0.1788
vn 0.9958 0.0055 -0.0914
vn 0.9315 -0.3012 0.2041
vn 0.9050 -0.3405 0.2550
vn 0.9763 -0.2102 -0.0507
vn 0.8410 -0.4675 0.2723
vn 0.9084 -0.4081 -0.0907
vn 0.9009 -0.4228 -0.0982
vn 0.9600 -0.2610 -0.1017
vn 0.7839 -0.6097 -0.1176
vn 0.8244 -0.5561 -0.1055
vn 0.7460 -0.6549 0.1209
vn 0.6734 -0.7357 0.0727
vn 0.8025 -0.5909 -0.0828
vn 0.9707 0.1509 -0.1872
vn 0.9397 0.2839 -0.1905
vn 0.7316 -0.6761 -0.0869
vn 0.6386 -0.7693 -0.0169
vn 0.6511 -0.7582 -0.0332
vn -0.0140 -0.3611 0.9324
vn -0.0549 -0.5369 0.8419
vn -0.0092 -0.5551 0.8317
vn 0.0129 -0.3963 0.9180
vn 0.2797 0.8415 -0.4622
vn 0.3218 0.9184 -0.2304
vn 0.3313 0.9278 -0.1717
vn 0.2877 0.8482 -0.4447
vn -0.1076 -0.7422 0.6615
vn -0.1520 -0.9161 0.3712
vn -0.0860 -0.9330 0.3495
vn -0.0554 -0.7573 0.6507
vn 0.1916 0.5836 -0.7891
vn 0.1971 0.5638 -0.8021
vn 0.0269 0.0171 0.9995
vn 0.0491 -0.0306 0.9983
vn 0.3400 0.9375 -0.0736
vn 0.3626 0.9319 -0.0119
vn -0.1734 -0.9817 0.0793
vn -0.1879 -0.9619 -0.1985
vn -0.0982 -0.9743 -0.2028
vn -0.0807 -0.9945 0.0663
vn -0.0207 -0.1716 0.9849
vn 0.0249 -0.2195 0.9753
vn -0.0226 -0.2756 0.9610
vn 0.0211 -0.3294 0.9439
vn -0.0632 -0.1873 -0.9803
vn 0.0116 0.0821 -0.9966
vn 0.0537 0.0674 -0.9963
vn -0.0232 -0.2227 -0.9746
vn 0.3683 0.9050 0.2127
vn 0.3434 0.9217 0.1804
vn -0.1603 -0.6197 -0.7683
vn -0.1071 -0.6090 -0.7859
vn -0.1227 -0.9090 -0.3982
vn -0.1944 -0.8895 -0.4135
vn 0.1410 0.3569 -0.9234
vn 0.1169 0.3598 -0.9257
vn 0.1236 0.2967 -0.9469
vn 0.0847 0.2783 -0.9567
vn 0.1084 0.2706 -0.9566
vn 0.0732 0.2708 -0.9598
vn 0.0908 0.2135 -0.9727
vn 0.0556 0.2304 -0.9715
vn 0.8807 0.4733 -0.0196
vn 0.9356 0.3091 0.1705
vn 0.8320 -0.5290 0.1671
vn 0.8256 0.5641 -0.0146
vn 0.8142 0.5805 -0.0119
vn 0.9673 0.0138 0.2531
vn 0.9429 -0.2201 0.2499
vn 0.9016 -0.3833 0.2003
vn 0.6701 -0.7369 -0.0889
vn 0.6045 -0.7964 0.0182
vt 0.480386 0.900845
vt 0.480386 0.938819
vt 0.489504 0.938819
vt 0.489504 0.900845
vt 0.594870 0.227846
vt 0.589096 0.216727
vt 0.581719 0.233251
vt 0.595798 0.240418
vt 0.580055 0.207565
vt 0.569238 0.223913
vt 0.514972 0.332680
vt 0.527891 0.341263
vt 0.541626 0.319493
vt 0.526599 0.307701
vt 0.554263 0.250563
vt 0.539654 0.237777
vt 0.523494 0.268515
vt 0.539595 0.280062
vt 0.540573 0.351104
vt 0.552571 0.340598
vt 0.528639 0.355362
vt 0.518679 0.353970
vt 0.569146 0.261997
vt 0.591112 0.260409
vt 0.507272 0.349224
vt 0.580507 0.285186
vt 0.594820 0.261523
vt 0.599730 0.241180
vt 0.568912 0.201285
vt 0.556920 0.213434
vt 0.502051 0.324064
vt 0.510898 0.297595
vt 0.497854 0.341424
vt 0.505399 0.352407
vt 0.517891 0.357514
vt 0.582377 0.204630
vt 0.570146 0.197636
vt 0.517415 0.232182
vt 0.531300 0.210235
vt 0.583959 0.286548
vt 0.555081 0.292997
vt 0.570869 0.308259
vt 0.574085 0.309852
vt 0.561625 0.327258
vt 0.564506 0.329264
vt 0.495908 0.280479
vt 0.505619 0.258443
vt 0.554921 0.343257
vt 0.489927 0.297812
vt 0.486452 0.296794
vt 0.484150 0.315050
vt 0.487802 0.315905
vt 0.545188 0.199699
vt 0.555543 0.198344
vt 0.490712 0.329490
vt 0.487186 0.330406
vt 0.495065 0.343892
vt 0.404550 0.900845
vt 0.391173 0.900845
vt 0.391173 0.938819
vt 0.404550 0.938819
vt 0.534325 0.900845
vt 0.523473 0.900845
vt 0.523473 0.938819
vt 0.534325 0.938819
vt 0.377944 0.900845
vt 0.365957 0.900845
vt 0.365957 0.938819
vt 0.377944 0.938819
vt 0.543880 0.900845
vt 0.543880 0.938819
vt 0.466047 0.900845
vt 0.466047 0.938819
vt 0.511718 0.900845
vt 0.511718 0.938819
vt 0.353750 0.900845
vt 0.343349 0.900845
vt 0.343349 0.938819
vt 0.353750 0.938819
vt 0.445395 0.900845
vt 0.445395 0.938819
vt 0.422955 0.900845
vt 0.422955 0.938819
vt 0.635497 0.900845
vt 0.623252 0.900845
vt 0.623252 0.938819
vt 0.635497 0.938819
vt 0.500506 0.938819
vt 0.500506 0.900845
vt 0.326036 0.900845
vt 0.326036 0.938819
vt 0.333462 0.938819
vt 0.333462 0.900845
vt 0.645345 0.938819
vt 0.645345 0.900845
vt 0.557543 0.938819
vt 0.557543 0.900845
vt 0.575576 0.938819
vt 0.575576 0.900845
vt 0.593409 0.938819
vt 0.593409 0.900845
vt 0.610143 0.938819
vt 0.610143 0.900845
vt 0.555491 0.194333
vt 0.556566 0.190577
vt 0.543599 0.192155
vt 0.543805 0.195922
vt 0.489603 0.278800
vt 0.483304 0.296945
vt 0.492605 0.279282
vt 0.602486 0.225813
vt 0.595560 0.212564
vt 0.592305 0.214771
vt 0.598805 0.227273
vt 0.480957 0.315804
vt 0.484225 0.332198
vt 0.603466 0.240739
vt 0.527364 0.204201
vt 0.528996 0.207172
vt 0.585048 0.201759
vt 0.492572 0.346469
vt 0.503572 0.355390
vt 0.512007 0.227922
vt 0.514510 0.229931
vt 0.499619 0.255582
vt 0.502467 0.256766
vt 0.542246 0.354245
vt 0.542631 0.357311
vt 0.556233 0.345858
vt 0.572101 0.194207
vt 0.528303 0.362200
vt 0.528793 0.358992
vt 0.516851 0.360682
vt 0.598366 0.261757
vt 0.587052 0.287250
vt 0.576740 0.311004
vt 0.566654 0.331044
s 1
usemtl VstController_250406
f 1/1/1 4/2/2 3/3/3
f 3/3/3 2/4/4 1/1/1
f 5/5/5 8/6/6 7/7/7
f 7/7/7 6/8/8 5/5/5
f 8/6/6 10/9/9 9/10/10
f 9/10/10 7/7/7 8/6/6
f 12/11/11 11/12/12 14/13/13
f 14/13/13 13/14/14 12/11/11
f 15/15/15 18/16/16 17/17/17
f 17/17/17 16/18/18 15/15/15
f 11/12/12 19/19/19 20/20/20
f 20/20/20 14/13/13 11/12/12
f 21/21/21 19/19/19 11/12/12
f 11/12/12 22/22/22 21/21/21
f 6/8/8 7/7/7 24/23/23
f 24/23/23 23/24/24 6/8/8
f 7/7/7 9/10/10 15/15/15
f 15/15/15 24/23/23 7/7/7
f 25/25/25 22/22/22 11/12/12
f 11/12/12 12/11/11 25/25/25
f 23/24/24 24/23/23 26/26/26
f 23/24/24 28/27/27 27/28/28
f 27/28/28 6/8/8 23/24/24
f 9/10/10 10/9/9 30/29/29
f 30/29/29 29/30/30 9/10/10
f 31/31/31 12/11/11 13/14/14
f 13/14/14 32/32/32 31/31/31
f 18/16/16 15/15/15 9/10/10
f 9/10/10 29/30/30 18/16/16
f 33/33/33 25/25/25 12/11/11
f 12/11/11 31/31/31 33/33/33
f 25/25/25 35/34/34 34/35/35
f 34/35/35 22/22/22 25/25/25
f 10/9/9 37/36/36 36/37/37
f 36/37/37 30/29/29 10/9/9
f 38/38/38 18/16/16 39/39/39
f 23/24/24 26/26/26 40/40/40
f 40/40/40 28/27/27 23/24/24
f 26/26/26 24/23/23 42/41/41
f 42/41/41 41/42/42 26/26/26
f 24/23/23 15/15/15 16/18/18
f 16/18/18 42/41/41 24/23/23
f 26/26/26 41/42/42 43/43/43
f 43/43/43 40/40/40 26/26/26
f 13/14/14 14/13/13 42/41/41
f 42/41/41 16/18/18 13/14/14
f 14/13/13 44/44/44 41/42/42
f 41/42/42 42/41/41 14/13/13
f 44/44/44 45/45/45 43/43/43
f 43/43/43 41/42/42 44/44/44
f 46/46/46 32/32/32 17/17/17
f 17/17/17 47/47/47 46/46/46
f 14/13/13 20/20/20 44/44/44
f 20/20/20 48/48/48 45/45/45
f 45/45/45 44/44/44 20/20/20
f 49/49/49 52/50/50 51/51/51
f 51/51/51 50/52/52 49/49/49
f 49/49/49 32/32/32 46/46/46
f 47/47/47 17/17/17 18/16/16
f 18/16/16 38/38/38 47/47/47
f 50/52/52 31/31/31 32/32/32
f 32/32/32 49/49/49 50/52/52
f 18/16/16 29/30/30 53/53/53
f 53/53/53 39/39/39 18/16/16
f 16/18/18 17/17/17 32/32/32
f 32/32/32 13/14/14 16/18/18
f 29/30/30 30/29/29 54/54/54
f 54/54/54 53/53/53 29/30/30
f 31/31/31 50/52/52 55/55/55
f 55/55/55 33/33/33 31/31/31
f 55/55/55 57/56/56 56/57/57
f 56/57/57 33/33/33 55/55/55
f 58/58/58 61/59/59 60/60/60
f 60/60/60 59/61/61 58/58/58
f 62/62/62 65/63/63 64/64/64
f 64/64/64 63/65/65 62/62/62
f 66/66/66 69/67/67 68/68/68
f 68/68/68 67/69/69 66/66/66
f 70/70/70 62/62/62 63/65/65
f 63/65/65 71/71/71 70/70/70
f 4/2/2 1/1/1 73/72/72
f 73/72/72 72/73/73 4/2/2
f 65/63/63 75/74/74 74/75/75
f 74/75/75 64/64/64 65/63/63
f 76/76/76 79/77/77 78/78/78
f 78/78/78 77/79/79 76/76/76
f 72/73/73 73/72/72 81/80/80
f 81/80/80 80/81/81 72/73/73
f 80/81/81 81/80/80 83/82/82
f 83/82/82 82/83/83 80/81/81
f 83/82/82 58/58/58 59/61/61
f 59/61/61 82/83/83 83/82/82
f 84/84/84 87/85/85 86/86/86
f 86/86/86 85/87/87 84/84/84
f 2/4/4 3/3/3 89/88/88
f 89/88/88 88/89/89 2/4/4
f 91/90/90 90/91/91 93/92/92
f 93/92/92 92/93/93 91/90/90
f 84/84/84 85/87/87 90/94/91
f 90/94/91 91/95/90 84/84/84
f 71/71/71 95/96/94 94/97/95
f 94/97/95 70/70/70 71/71/71
f 92/93/93 93/92/92 78/78/78
f 78/78/78 79/77/77 92/93/93
f 88/89/89 89/88/88 74/75/75
f 74/75/75 75/74/74 88/89/89
f 95/96/94 97/98/96 96/99/97
f 96/99/97 94/97/95 95/96/94
f 97/98/96 99/100/98 98/101/99
f 98/101/99 96/99/97 97/98/96
f 98/101/99 99/100/98 101/102/100
f 101/102/100 100/103/101 98/101/99
f 67/69/69 60/60/60 61/59/59
f 61/59/59 66/66/66 67/69/69
f 101/102/100 86/86/86 87/85/85
f 87/85/85 100/103/101 101/102/100
f 77/79/79 68/68/68 69/67/67
f 69/67/67 76/76/76 77/79/79
f 102/104/102 3/105/3 4/106/2
f 4/106/2 103/107/103 102/104/102
f 59/108/61 60/109/60 52/50/50
f 52/50/50 104/110/104 59/108/61
f 63/111/65 64/112/64 106/113/105
f 106/113/105 105/114/106 63/111/65
f 67/115/69 68/116/68 57/56/56
f 57/56/56 51/51/51 67/115/69
f 71/117/71 63/111/65 105/114/106
f 105/114/106 27/28/28 71/117/71
f 103/107/103 4/106/2 72/118/73
f 72/118/73 107/119/107 103/107/103
f 106/113/105 64/112/64 74/120/75
f 74/120/75 37/36/36 106/113/105
f 56/57/57 77/121/79 78/122/78
f 78/122/78 35/34/34 56/57/57
f 107/119/107 72/118/73 80/123/81
f 80/123/81 108/124/108 107/119/107
f 108/124/108 80/123/81 82/125/83
f 82/125/83 109/126/109 108/124/108
f 82/125/83 59/108/61 104/110/104
f 104/110/104 109/126/109 82/125/83
f 110/127/110 85/128/87 86/129/86
f 86/129/86 48/48/48 110/127/110
f 3/105/3 102/104/102 36/37/37
f 36/37/37 89/130/88 3/105/3
f 90/131/91 111/132/111 34/35/35
f 34/35/35 93/133/92 90/131/91
f 85/128/87 110/127/110 111/132/111
f 111/132/111 90/131/91 85/128/87
f 68/116/68 77/121/79 56/57/57
f 56/57/57 57/56/56 68/116/68
f 27/28/28 28/27/27 95/134/94
f 95/134/94 71/117/71 27/28/28
f 93/133/92 34/35/35 35/34/34
f 35/34/34 78/122/78 93/133/92
f 89/130/88 36/37/37 37/36/36
f 37/36/36 74/120/75 89/130/88
f 28/27/27 40/40/40 97/135/96
f 97/135/96 95/134/94 28/27/27
f 40/40/40 43/43/43 99/136/98
f 99/136/98 97/135/96 40/40/40
f 99/136/98 43/43/43 45/45/45
f 45/45/45 101/137/100 99/136/98
f 101/137/100 45/45/45 48/48/48
f 48/48/48 86/129/86 101/137/100
f 51/51/51 52/50/50 60/109/60
f 60/109/60 67/115/69 51/51/51
f 110/127/110 48/48/48 20/20/20
f 20/20/20 19/19/19 110/127/110
f 21/21/21 111/132/111 110/127/110
f 110/127/110 19/19/19 21/21/21
f 56/57/57 35/34/34 25/25/25
f 25/25/25 33/33/33 56/57/57
f 51/51/51 57/56/56 55/55/55
f 55/55/55 50/52/52 51/51/51
f 104/110/104 52/50/50 49/49/49
f 49/49/49 46/46/46 104/110/104
f 47/47/47 109/126/109 104/110/104
f 104/110/104 46/46/46 47/47/47
f 38/38/38 108/124/108 109/126/109
f 109/126/109 47/47/47 38/38/38
f 39/39/39 107/119/107 108/124/108
f 108/124/108 38/38/38 39/39/39
f 103/107/103 107/119/107 39/39/39
f 39/39/39 53/53/53 103/107/103
f 102/104/102 103/107/103 53/53/53
f 53/53/53 54/54/54 102/104/102
f 36/37/37 102/104/102 54/54/54
f 54/54/54 30/29/29 36/37/37
f 106/113/105 37/36/36 10/9/9
f 10/9/9 8/6/6 106/113/105
f 5/5/5 105/114/106 106/113/105
f 106/113/105 8/6/6 5/5/5
f 6/8/8 27/28/28 105/114/106
f 105/114/106 5/5/5 6/8/8
f 34/35/35 111/132/111 21/21/21
f 21/21/21 22/22/22 34/35/35
