# Blender 4.3.0
# www.blender.org
mtllib L_lowerButton.mtl
o L_lowerButton
v 0.012856 0.004841 0.047816
v 0.013050 0.003953 0.046772
v 0.012464 0.001493 0.048624
v 0.012269 0.002382 0.049668
v 0.006492 0.007818 0.049803
v 0.007790 0.007780 0.050099
v 0.007203 0.005320 0.051951
v 0.005905 0.005358 0.051654
v 0.004472 0.002591 0.042836
v 0.003557 0.003445 0.043648
v 0.002971 0.000985 0.045500
v 0.003885 0.000131 0.044688
v 0.003017 0.004260 0.044510
v 0.002850 0.005119 0.045524
v 0.002263 0.002660 0.047376
v 0.002430 0.001801 0.046362
v 0.002971 0.005930 0.046555
v 0.003483 0.006648 0.047572
v 0.002896 0.004188 0.049424
v 0.002384 0.003471 0.048407
v 0.009388 0.001221 0.042440
v 0.008120 0.001267 0.042163
v 0.007533 -0.001193 0.044015
v 0.008801 -0.001239 0.044291
v 0.006865 0.001481 0.042098
v 0.005667 0.001924 0.042329
v 0.005081 -0.000536 0.044181
v 0.006278 -0.000978 0.043950
v 0.011660 0.001822 0.043780
v 0.010521 0.001411 0.042973
v 0.009935 -0.001049 0.044824
v 0.011073 -0.000638 0.045631
v 0.011444 0.006505 0.049495
v 0.012257 0.005728 0.048751
v 0.011670 0.003268 0.050602
v 0.010858 0.004046 0.051347
v 0.004255 0.007229 0.048490
v 0.005329 0.007613 0.049244
v 0.004743 0.005153 0.051096
v 0.003668 0.004769 0.050341
v 0.012918 0.003156 0.045755
v 0.012466 0.002450 0.044766
v 0.011880 -0.000010 0.046617
v 0.012331 0.000696 0.047607
v 0.009078 0.007559 0.050168
v 0.010317 0.007104 0.049935
v 0.009730 0.004645 0.051787
v 0.008491 0.005099 0.052019
v 0.012004 0.005348 0.047033
v 0.012165 0.004651 0.046217
v 0.011531 0.006048 0.047772
v 0.010873 0.006675 0.048371
v 0.009970 0.007160 0.048731
v 0.008984 0.007522 0.048916
v 0.007965 0.007701 0.048869
v 0.006943 0.007726 0.048629
v 0.006010 0.007561 0.048183
v 0.005143 0.007252 0.047574
v 0.004522 0.006780 0.046829
v 0.004116 0.006214 0.046022
v 0.004010 0.005575 0.045209
v 0.004154 0.004899 0.044413
v 0.004592 0.004243 0.043721
v 0.005318 0.003563 0.043075
v 0.006273 0.003029 0.042669
v 0.007232 0.002671 0.042478
v 0.008226 0.002492 0.042521
v 0.009225 0.002463 0.042747
v 0.010137 0.002619 0.043180
v 0.011043 0.002947 0.043824
v 0.011687 0.003451 0.044613
v 0.012058 0.004016 0.045407
v 0.008114 0.005205 0.045634
vn 0.9988 0.0493 -0.0074
vn 0.9574 0.2186 0.1886
vn 0.9389 0.0338 0.3424
vn 0.9819 -0.1327 0.1348
vn -0.0106 0.7741 0.6330
vn -0.2464 0.7881 0.5641
vn -0.2982 0.6185 0.7270
vn -0.0526 0.6086 0.7917
vn -0.7596 -0.0060 -0.6504
vn -0.5968 -0.1424 -0.7896
vn -0.6625 -0.3432 -0.6658
vn -0.8280 -0.1975 -0.5247
vn -0.9128 0.3072 -0.2692
vn -0.8706 0.1582 -0.4658
vn -0.9419 -0.0273 -0.3347
vn -0.9820 0.1333 -0.1341
vn -0.7936 0.5945 0.1296
vn -0.8847 0.4612 -0.0684
vn -0.9552 0.2859 0.0771
vn -0.8614 0.4203 0.2853
vn 0.0812 -0.4129 -0.9071
vn 0.3137 -0.4174 -0.8529
vn 0.2809 -0.6191 -0.7334
vn 0.0428 -0.6074 -0.7933
vn -0.3937 -0.2670 -0.8796
vn -0.1563 -0.3576 -0.9207
vn -0.2053 -0.5569 -0.8048
vn -0.4511 -0.4656 -0.7614
vn 0.5431 -0.3881 -0.7446
vn 0.7308 -0.3170 -0.6045
vn 0.7090 -0.5242 -0.4717
vn 0.5182 -0.5898 -0.6193
vn 0.8582 0.3732 0.3524
vn 0.6841 0.5321 0.4988
vn 0.6565 0.3474 0.6695
vn 0.8364 0.1880 0.5148
vn -0.4638 0.7607 0.4541
vn -0.6427 0.7010 0.3092
vn -0.7081 0.5247 0.4726
vn -0.5207 0.5893 0.6178
vn 0.8848 -0.2165 -0.4127
vn 0.9730 -0.0877 -0.2137
vn 0.9567 -0.2821 -0.0715
vn 0.8667 -0.4150 -0.2766
vn 0.4615 0.6539 0.5996
vn 0.2370 0.7311 0.6398
vn 0.2001 0.5584 0.8051
vn 0.4292 0.4756 0.7678
vn 0.3411 0.7630 -0.5491
vn 0.3395 0.7334 -0.5890
vn 0.3188 0.7930 -0.5192
vn 0.2928 0.8264 -0.4810
vn 0.2423 0.8473 -0.4726
vn 0.1998 0.8644 -0.4614
vn 0.1530 0.8683 -0.4718
vn 0.1061 0.8743 -0.4737
vn 0.0654 0.8650 -0.4975
vn 0.0218 0.8559 -0.5167
vn 0.0004 0.8303 -0.5574
vn -0.0201 0.8041 -0.5941
vn -0.0148 0.7744 -0.6326
vn -0.0182 0.7429 -0.6691
vn 0.0069 0.7113 -0.7028
vn 0.0284 0.6770 -0.7354
vn 0.0767 0.6611 -0.7463
vn 0.1213 0.6418 -0.7572
vn 0.1680 0.6407 -0.7492
vn 0.2135 0.6316 -0.7453
vn 0.2563 0.6417 -0.7228
vn 0.3013 0.6463 -0.7011
vn 0.3232 0.6765 -0.6618
vn 0.3418 0.7019 -0.6249
vn 0.1637 0.7660 -0.6217
vt 0.977013 0.875686
vt 0.981247 0.875686
vt 0.981247 0.895059
vt 0.977013 0.895059
vt 0.899527 0.875686
vt 0.903824 0.875686
vt 0.903824 0.895059
vt 0.899527 0.895059
vt 0.934420 0.875686
vt 0.938447 0.875686
vt 0.938447 0.895059
vt 0.934420 0.895059
vt 0.925283 0.875686
vt 0.929796 0.875686
vt 0.929796 0.895059
vt 0.925283 0.895059
vt 0.917033 0.875686
vt 0.921162 0.875686
vt 0.921162 0.895059
vt 0.917033 0.895059
vt 0.950757 0.875686
vt 0.955401 0.875686
vt 0.955401 0.895059
vt 0.950757 0.895059
vt 0.942576 0.875686
vt 0.946629 0.875686
vt 0.946629 0.895059
vt 0.942576 0.895059
vt 0.960145 0.875686
vt 0.964291 0.875686
vt 0.964291 0.895059
vt 0.960145 0.895059
vt 0.985594 0.875686
vt 0.989745 0.875686
vt 0.989745 0.895059
vt 0.985594 0.895059
vt 0.908114 0.875686
vt 0.912631 0.875686
vt 0.912631 0.895059
vt 0.908114 0.895059
vt 0.968549 0.875686
vt 0.972736 0.875686
vt 0.972736 0.895059
vt 0.968549 0.895059
vt 0.993980 0.875686
vt 0.998142 0.875686
vt 0.998142 0.895059
vt 0.993980 0.895059
vt 0.895265 0.875686
vt 0.895265 0.895059
vt 0.385903 0.879763
vt 0.388951 0.887451
vt 0.397209 0.882770
vt 0.392074 0.876265
vt 0.378756 0.881412
vt 0.379506 0.889623
vt 0.371639 0.881454
vt 0.370293 0.889604
vt 0.361567 0.886604
vt 0.364928 0.879113
vt 0.353768 0.881816
vt 0.358985 0.875466
vt 0.354433 0.870460
vt 0.347713 0.875189
vt 0.351119 0.864455
vt 0.343328 0.867176
vt 0.349599 0.857777
vt 0.341369 0.858479
vt 0.349486 0.850562
vt 0.341313 0.849149
vt 0.343763 0.840406
vt 0.351452 0.843786
vt 0.348255 0.832404
vt 0.354859 0.837704
vt 0.354750 0.826135
vt 0.359745 0.832992
vt 0.365688 0.829517
vt 0.362678 0.821506
vt 0.372362 0.827949
vt 0.371330 0.819448
vt 0.380127 0.827972
vt 0.381477 0.819554
vt 0.390945 0.822557
vt 0.387391 0.830321
vt 0.398533 0.827132
vt 0.393240 0.833809
vt 0.404412 0.833597
vt 0.397678 0.838690
vt 0.400978 0.844512
vt 0.408800 0.841326
vt 0.402493 0.851017
vt 0.410800 0.849735
vt 0.402572 0.858601
vt 0.410854 0.859638
vt 0.408136 0.868930
vt 0.400418 0.865713
vt 0.403570 0.876526
vt 0.396928 0.871569
vt 0.375969 0.854651
s 1
usemtl VstController_250406
f 2/1/1 1/2/2 4/3/3
f 4/3/3 3/4/4 2/1/1
f 6/5/5 5/6/6 8/7/7
f 8/7/7 7/8/8 6/5/5
f 10/9/9 9/10/10 12/11/11
f 12/11/11 11/12/12 10/9/9
f 14/13/13 13/14/14 16/15/15
f 16/15/15 15/16/16 14/13/13
f 18/17/17 17/18/18 20/19/19
f 20/19/19 19/20/20 18/17/17
f 22/21/21 21/22/22 24/23/23
f 24/23/23 23/24/24 22/21/21
f 26/25/25 25/26/26 28/27/27
f 28/27/27 27/28/28 26/25/25
f 30/29/29 29/30/30 32/31/31
f 32/31/31 31/32/32 30/29/29
f 34/33/33 33/34/34 36/35/35
f 36/35/35 35/36/36 34/33/33
f 38/37/37 37/38/38 40/39/39
f 40/39/39 39/40/40 38/37/37
f 42/41/41 41/42/42 44/43/43
f 44/43/43 43/44/44 42/41/41
f 46/45/45 45/46/46 48/47/47
f 48/47/47 47/48/48 46/45/45
f 33/34/34 46/45/45 47/48/48
f 47/48/48 36/35/35 33/34/34
f 1/2/2 34/33/33 35/36/36
f 35/36/36 4/3/3 1/2/2
f 45/49/46 6/5/5 7/8/8
f 7/8/8 48/50/47 45/49/46
f 5/6/6 38/37/37 39/40/40
f 39/40/40 8/7/7 5/6/6
f 37/38/38 18/17/17 19/20/20
f 19/20/20 40/39/39 37/38/38
f 17/18/18 14/13/13 15/16/16
f 15/16/16 20/19/19 17/18/18
f 13/14/14 10/9/9 11/12/12
f 11/12/12 16/15/15 13/14/14
f 9/10/10 26/25/25 27/28/28
f 27/28/28 12/11/11 9/10/10
f 25/26/26 22/21/21 23/24/24
f 23/24/24 28/27/27 25/26/26
f 21/22/22 30/29/29 31/32/32
f 31/32/32 24/23/23 21/22/22
f 29/30/30 42/41/41 43/44/44
f 43/44/44 32/31/31 29/30/30
f 41/42/42 2/1/1 3/4/4
f 3/4/4 44/43/43 41/42/42
f 49/51/49 1/52/2 2/53/1
f 2/53/1 50/54/50 49/51/49
f 51/55/51 34/56/33 1/52/2
f 1/52/2 49/51/49 51/55/51
f 52/57/52 33/58/34 34/56/33
f 34/56/33 51/55/51 52/57/52
f 46/59/45 33/58/34 52/57/52
f 52/57/52 53/60/53 46/59/45
f 45/61/46 46/59/45 53/60/53
f 53/60/53 54/62/54 45/61/46
f 54/62/54 55/63/55 6/64/5
f 6/64/5 45/61/46 54/62/54
f 56/65/56 5/66/6 6/64/5
f 6/64/5 55/63/55 56/65/56
f 57/67/57 38/68/37 5/66/6
f 5/66/6 56/65/56 57/67/57
f 58/69/58 37/70/38 38/68/37
f 38/68/37 57/67/57 58/69/58
f 18/71/17 37/70/38 58/69/58
f 58/69/58 59/72/59 18/71/17
f 17/73/18 18/71/17 59/72/59
f 59/72/59 60/74/60 17/73/18
f 14/75/13 17/73/18 60/74/60
f 60/74/60 61/76/61 14/75/13
f 62/77/62 13/78/14 14/75/13
f 14/75/13 61/76/61 62/77/62
f 63/79/63 10/80/9 13/78/14
f 13/78/14 62/77/62 63/79/63
f 64/81/64 9/82/10 10/80/9
f 10/80/9 63/79/63 64/81/64
f 26/83/25 9/82/10 64/81/64
f 64/81/64 65/84/65 26/83/25
f 25/85/26 26/83/25 65/84/65
f 65/84/65 66/86/66 25/85/26
f 22/87/21 25/85/26 66/86/66
f 66/86/66 67/88/67 22/87/21
f 68/89/68 21/90/22 22/87/21
f 22/87/21 67/88/67 68/89/68
f 69/91/69 30/92/29 21/90/22
f 21/90/22 68/89/68 69/91/69
f 70/93/70 29/94/30 30/92/29
f 30/92/29 69/91/69 70/93/70
f 42/95/41 29/94/30 70/93/70
f 70/93/70 71/96/71 42/95/41
f 41/97/42 42/95/41 71/96/71
f 71/96/71 72/98/72 41/97/42
f 2/53/1 41/97/42 72/98/72
f 72/98/72 50/54/50 2/53/1
f 50/54/50 73/99/73 49/51/49
f 49/51/49 73/99/73 51/55/51
f 51/55/51 73/99/73 52/57/52
f 52/57/52 73/99/73 53/60/53
f 53/60/53 73/99/73 54/62/54
f 54/62/54 73/99/73 55/63/55
f 55/63/55 73/99/73 56/65/56
f 56/65/56 73/99/73 57/67/57
f 57/67/57 73/99/73 58/69/58
f 58/69/58 73/99/73 59/72/59
f 59/72/59 73/99/73 60/74/60
f 60/74/60 73/99/73 61/76/61
f 61/76/61 73/99/73 62/77/62
f 62/77/62 73/99/73 63/79/63
f 63/79/63 73/99/73 64/81/64
f 64/81/64 73/99/73 65/84/65
f 65/84/65 73/99/73 66/86/66
f 66/86/66 73/99/73 67/88/67
f 67/88/67 73/99/73 68/89/68
f 68/89/68 73/99/73 69/91/69
f 69/91/69 73/99/73 70/93/70
f 70/93/70 73/99/73 71/96/71
f 71/96/71 73/99/73 72/98/72
f 72/98/72 73/99/73 50/54/50
