# Blender 4.3.0
# www.blender.org
mtllib L_menuButton.mtl
o L_menuButton
v -0.002319 0.009022 0.050945
v -0.002148 0.008338 0.049981
v -0.002033 0.008004 0.050196
v -0.002212 0.008714 0.051199
v -0.002813 0.009695 0.051864
v -0.002743 0.009401 0.052134
v -0.004587 0.010711 0.053126
v -0.003584 0.010269 0.052604
v -0.003545 0.009989 0.052891
v -0.004575 0.010447 0.053432
v -0.005710 0.010738 0.053716
v -0.005704 0.010984 0.053386
v -0.006836 0.011084 0.053403
v -0.006879 0.010843 0.053734
v -0.007975 0.011043 0.053215
v -0.008057 0.010798 0.053537
v -0.009032 0.010833 0.052802
v -0.009123 0.010571 0.053097
v -0.010710 0.009926 0.051310
v -0.009992 0.010450 0.052146
v -0.010106 0.010175 0.052420
v -0.010853 0.009640 0.051566
v -0.011295 0.009024 0.050624
v -0.011117 0.009320 0.050385
v -0.011400 0.008358 0.049655
v -0.011218 0.008677 0.049450
v -0.011064 0.008014 0.048513
v -0.011243 0.007670 0.048684
v -0.010616 0.007383 0.047662
v -0.010766 0.007031 0.047825
v -0.008698 0.006268 0.046274
v -0.009784 0.006752 0.046851
v -0.009899 0.006382 0.046991
v -0.008779 0.005878 0.046389
v -0.007682 0.005600 0.046105
v -0.007615 0.006005 0.046012
v -0.006544 0.005499 0.046086
v -0.006514 0.005905 0.045992
v -0.005404 0.005941 0.046167
v -0.005395 0.005535 0.046268
v -0.004375 0.006134 0.046567
v -0.004358 0.005743 0.046690
v -0.002619 0.007099 0.048151
v -0.003364 0.006537 0.047263
v -0.003316 0.006163 0.047413
v -0.002538 0.006739 0.048327
v -0.002144 0.007347 0.049241
v -0.002249 0.007700 0.049053
v -0.002304 0.005434 0.051849
v -0.002487 0.006153 0.052863
v -0.007148 0.008269 0.055379
v -0.008339 0.008223 0.055178
v -0.011667 0.005789 0.051307
v -0.011509 0.005092 0.050324
v -0.011093 0.007083 0.053232
v -0.011559 0.006463 0.052288
v -0.006815 0.002934 0.047745
v -0.005651 0.002971 0.047928
v -0.009067 0.003328 0.048061
v -0.007966 0.003036 0.047762
v -0.002833 0.004164 0.049962
v -0.002422 0.004771 0.050882
v -0.004827 0.007864 0.055060
v -0.005965 0.008164 0.055362
v -0.003040 0.006847 0.053798
v -0.003826 0.007417 0.054529
v -0.009404 0.007986 0.054717
v -0.010358 0.007599 0.054055
v -0.011010 0.004454 0.049462
v -0.010157 0.003824 0.048652
v -0.004612 0.003194 0.048367
v -0.003598 0.003607 0.049074
v -0.006673 0.008566 0.049671
vn 0.1679 0.8269 -0.5367
vn 0.9568 0.1190 0.2651
vn 0.9984 -0.0220 0.0521
vn 0.1713 0.8106 -0.5599
vn 0.1559 0.8436 -0.5138
vn 0.8429 0.2553 0.4737
vn 0.1383 0.8575 -0.4955
vn 0.1140 0.8671 -0.4850
vn 0.4506 0.4747 0.7561
vn 0.6682 0.3772 0.6412
vn 0.0873 0.8743 -0.4774
vn 0.2026 0.5468 0.8124
vn 0.0590 0.8759 -0.4789
vn -0.0462 0.5759 0.8162
vn 0.0320 0.8758 -0.4816
vn -0.2839 0.5710 0.7703
vn 0.0047 0.8703 -0.4926
vn -0.5235 0.5225 0.6729
vn -0.0162 0.8628 -0.5052
vn -0.0311 0.8502 -0.5255
vn -0.8680 0.3521 0.3502
vn -0.7127 0.4519 0.5364
vn -0.0426 0.8352 -0.5483
vn -0.9648 0.2298 0.1277
vn -0.9915 0.0940 -0.0896
vn -0.0422 0.8189 -0.5723
vn -0.0407 0.8031 -0.5944
vn -0.9543 -0.0411 -0.2962
vn -0.0282 0.7851 -0.6188
vn -0.8366 -0.2005 -0.5098
vn -0.0122 0.7711 -0.6366
vn 0.0120 0.7623 -0.6471
vn -0.4583 -0.4201 -0.7832
vn -0.6705 -0.3242 -0.6673
vn 0.0404 0.7550 -0.6545
vn -0.1979 -0.4831 -0.8529
vn 0.0475 -0.5125 -0.8574
vn 0.0681 0.7541 -0.6532
vn 0.0942 0.7537 -0.6505
vn 0.2825 -0.5083 -0.8135
vn 0.1228 0.7587 -0.6397
vn 0.5325 -0.4725 -0.7023
vn 0.1446 0.7659 -0.6265
vn 0.1594 0.7796 -0.6056
vn 0.8818 -0.2922 -0.3702
vn 0.7257 -0.4020 -0.5584
vn 0.1682 0.7952 -0.5825
vn 0.9756 -0.1551 -0.1552
vn 0.9956 -0.0599 0.0717
vn 0.9525 0.0850 0.2924
vn -0.0528 0.5417 0.8389
vn -0.3004 0.5336 0.7906
vn -0.9959 0.0588 -0.0694
vn -0.9559 -0.0833 -0.2815
vn -0.8688 0.3259 0.3729
vn -0.9684 0.1982 0.1512
vn 0.0427 -0.5457 -0.8369
vn 0.2827 -0.5431 -0.7907
vn -0.4692 -0.4453 -0.7626
vn -0.2095 -0.5144 -0.8315
vn 0.9701 -0.1971 -0.1418
vn 0.8725 -0.3300 -0.3603
vn 0.4543 0.4443 0.7722
vn 0.2037 0.5129 0.8339
vn 0.8364 0.2266 0.4991
vn 0.6653 0.3480 0.6605
vn -0.5373 0.4886 0.6874
vn -0.7179 0.4219 0.5537
vn -0.8345 -0.2380 -0.4969
vn -0.6728 -0.3539 -0.6497
vn 0.5328 -0.5019 -0.6814
vn 0.7186 -0.4328 -0.5443
vn 0.0640 0.8194 -0.5697
vt 0.369889 0.801670
vt 0.368855 0.804176
vt 0.377137 0.806383
vt 0.377425 0.803684
vt 0.362879 0.797602
vt 0.361239 0.799691
vt 0.357397 0.791887
vt 0.353745 0.784855
vt 0.351196 0.785702
vt 0.355272 0.793388
vt 0.352175 0.777328
vt 0.349518 0.777499
vt 0.352567 0.769916
vt 0.349885 0.769400
vt 0.354587 0.762651
vt 0.352162 0.761451
vt 0.358362 0.756129
vt 0.356314 0.754443
vt 0.363996 0.750461
vt 0.370936 0.746544
vt 0.370009 0.743985
vt 0.362487 0.748322
vt 0.378403 0.744715
vt 0.378156 0.742006
vt 0.386294 0.742160
vt 0.385457 0.744915
vt 0.392780 0.746786
vt 0.394321 0.744256
vt 0.399693 0.750499
vt 0.401350 0.748339
vt 0.405720 0.756678
vt 0.409762 0.764308
vt 0.412352 0.763390
vt 0.407875 0.755102
vt 0.411366 0.771606
vt 0.414082 0.771310
vt 0.413688 0.779185
vt 0.410942 0.778817
vt 0.409063 0.785913
vt 0.411612 0.786932
vt 0.405438 0.792263
vt 0.407656 0.793778
vt 0.399476 0.798231
vt 0.392104 0.802272
vt 0.393102 0.804797
vt 0.401141 0.800269
vt 0.384802 0.803875
vt 0.385176 0.806558
vt 0.892312 0.870885
vt 0.892312 0.851819
vt 0.896217 0.851819
vt 0.896217 0.870885
vt 0.823586 0.870885
vt 0.823586 0.851819
vt 0.827350 0.851819
vt 0.827350 0.870885
vt 0.846333 0.870885
vt 0.846333 0.851819
vt 0.850117 0.851819
vt 0.850117 0.870885
vt 0.838806 0.870885
vt 0.838806 0.851819
vt 0.842612 0.851819
vt 0.842612 0.870885
vt 0.869525 0.870885
vt 0.869525 0.851819
vt 0.873187 0.851819
vt 0.873187 0.870885
vt 0.862264 0.870885
vt 0.862264 0.851819
vt 0.865931 0.851819
vt 0.865931 0.870885
vt 0.884991 0.851819
vt 0.888651 0.851819
vt 0.888651 0.870885
vt 0.884991 0.870885
vt 0.907950 0.870885
vt 0.907950 0.851819
vt 0.911742 0.851819
vt 0.911742 0.870885
vt 0.900229 0.870885
vt 0.900229 0.851819
vt 0.904087 0.851819
vt 0.904087 0.870885
vt 0.819889 0.870885
vt 0.819889 0.851819
vt 0.831047 0.851819
vt 0.831047 0.870885
vt 0.834933 0.851819
vt 0.834933 0.870885
vt 0.853805 0.851819
vt 0.853805 0.870885
vt 0.858034 0.851819
vt 0.858034 0.870885
vt 0.876762 0.851819
vt 0.876762 0.870885
vt 0.880886 0.851819
vt 0.880886 0.870885
vt 0.381268 0.774270
s 1
usemtl VstController_250406
f 1/1/1 4/2/2 3/3/3
f 3/3/3 2/4/4 1/1/1
f 5/5/5 6/6/6 4/2/2
f 4/2/2 1/1/1 5/5/5
f 8/7/7 7/8/8 10/9/9
f 10/9/9 9/10/10 8/7/7
f 10/9/9 7/8/8 12/11/11
f 12/11/11 11/12/12 10/9/9
f 12/11/11 13/13/13 14/14/14
f 14/14/14 11/12/12 12/11/11
f 15/15/15 16/16/16 14/14/14
f 14/14/14 13/13/13 15/15/15
f 17/17/17 18/18/18 16/16/16
f 16/16/16 15/15/15 17/17/17
f 20/19/19 19/20/20 22/21/21
f 22/21/21 21/22/22 20/19/19
f 22/21/21 19/20/20 24/23/23
f 24/23/23 23/24/24 22/21/21
f 25/25/25 23/24/24 24/23/23
f 24/23/23 26/26/26 25/25/25
f 27/27/27 28/28/28 25/25/25
f 25/25/25 26/26/26 27/27/27
f 29/29/29 30/30/30 28/28/28
f 28/28/28 27/27/27 29/29/29
f 32/31/31 31/32/32 34/33/33
f 34/33/33 33/34/34 32/31/31
f 34/33/33 31/32/32 36/35/35
f 36/35/35 35/36/36 34/33/33
f 37/37/37 35/36/36 36/35/35
f 36/35/35 38/38/38 37/37/37
f 39/39/39 40/40/40 37/37/37
f 37/37/37 38/38/38 39/39/39
f 41/41/41 42/42/42 40/40/40
f 40/40/40 39/39/39 41/41/41
f 44/43/43 43/44/44 46/45/45
f 46/45/45 45/46/46 44/43/43
f 46/45/45 43/44/44 48/47/47
f 48/47/47 47/48/48 46/45/45
f 47/48/48 48/47/47 2/4/4
f 2/4/4 3/3/3 47/48/48
f 49/49/49 3/50/3 4/51/2
f 4/51/2 50/52/50 49/49/49
f 51/53/51 14/54/14 16/55/16
f 16/55/16 52/56/52 51/53/51
f 53/57/53 25/58/25 28/59/28
f 28/59/28 54/60/54 53/57/53
f 55/61/55 22/62/21 23/63/24
f 23/63/24 56/64/56 55/61/55
f 57/65/57 37/66/37 40/67/40
f 40/67/40 58/68/58 57/65/57
f 59/69/59 34/70/33 35/71/36
f 35/71/36 60/72/60 59/69/59
f 46/73/45 47/74/48 62/75/61
f 62/75/61 61/76/62 46/73/45
f 63/77/63 10/78/9 11/79/12
f 11/79/12 64/80/64 63/77/63
f 65/81/65 6/82/6 9/83/10
f 9/83/10 66/84/66 65/81/65
f 50/52/50 4/51/2 6/82/6
f 6/82/6 65/81/65 50/52/50
f 64/85/64 11/86/12 14/54/14
f 14/54/14 51/53/51 64/85/64
f 52/56/52 16/55/16 18/87/18
f 18/87/18 67/88/67 52/56/52
f 67/88/67 18/87/18 21/89/22
f 21/89/22 68/90/68 67/88/67
f 56/64/56 23/63/24 25/58/25
f 25/58/25 53/57/53 56/64/56
f 54/60/54 28/59/28 30/91/30
f 30/91/30 69/92/69 54/60/54
f 69/92/69 30/91/30 33/93/34
f 33/93/34 70/94/70 69/92/69
f 60/72/60 35/71/36 37/66/37
f 37/66/37 57/65/57 60/72/60
f 58/68/58 40/67/40 42/95/42
f 42/95/42 71/96/71 58/68/58
f 71/96/71 42/95/42 45/97/46
f 45/97/46 72/98/72 71/96/71
f 47/74/48 3/50/3 49/49/49
f 49/49/49 62/75/61 47/74/48
f 1/1/1 2/4/4 73/99/73
f 5/5/5 1/1/1 73/99/73
f 7/8/8 8/7/7 73/99/73
f 12/11/11 7/8/8 73/99/73
f 13/13/13 12/11/11 73/99/73
f 15/15/15 13/13/13 73/99/73
f 17/17/17 15/15/15 73/99/73
f 19/20/20 20/19/19 73/99/73
f 24/23/23 19/20/20 73/99/73
f 26/26/26 24/23/23 73/99/73
f 27/27/27 26/26/26 73/99/73
f 29/29/29 27/27/27 73/99/73
f 31/32/32 32/31/31 73/99/73
f 36/35/35 31/32/32 73/99/73
f 38/38/38 36/35/35 73/99/73
f 39/39/39 38/38/38 73/99/73
f 41/41/41 39/39/39 73/99/73
f 43/44/44 44/43/43 73/99/73
f 48/47/47 43/44/44 73/99/73
f 2/4/4 48/47/47 73/99/73
f 20/19/19 21/22/22 18/18/18
f 18/18/18 17/17/17 20/19/19
f 55/61/55 68/90/68 21/89/22
f 21/89/22 22/62/21 55/61/55
f 73/99/73 20/19/19 17/17/17
f 8/7/7 9/10/10 6/6/6
f 6/6/6 5/5/5 8/7/7
f 63/77/63 66/84/66 9/83/10
f 9/83/10 10/78/9 63/77/63
f 73/99/73 8/7/7 5/5/5
f 32/31/31 33/34/34 30/30/30
f 30/30/30 29/29/29 32/31/31
f 59/69/59 70/94/70 33/93/34
f 33/93/34 34/70/33 59/69/59
f 73/99/73 32/31/31 29/29/29
f 44/43/43 45/46/46 42/42/42
f 42/42/42 41/41/41 44/43/43
f 61/76/62 72/98/72 45/97/46
f 45/97/46 46/73/45 61/76/62
f 73/99/73 44/43/43 41/41/41
