# Blender 4.3.0
# www.blender.org
mtllib L_thumbStick.mtl
o L_thumbStick
v -0.001617 -0.002264 0.036961
v -0.001257 -0.002506 0.037622
v -0.002562 -0.001604 0.038449
v -0.002808 -0.001433 0.037705
v -0.006305 -0.006866 0.031352
v -0.006485 -0.007637 0.031360
v -0.005161 -0.007801 0.031352
v -0.005127 -0.007026 0.031353
v -0.006078 -0.001262 0.041381
v -0.008106 -0.001439 0.040877
v -0.007653 -0.001144 0.039601
v -0.005879 -0.000986 0.040013
v -0.003731 -0.006945 0.031608
v -0.003616 -0.007700 0.031633
v -0.002185 -0.007240 0.032323
v -0.002446 -0.006538 0.032232
v -0.001462 -0.005895 0.033056
v -0.001093 -0.006525 0.033236
v -0.000399 -0.005503 0.034433
v -0.000840 -0.004973 0.034131
v -0.000685 -0.004086 0.035108
v -0.000224 -0.004519 0.035531
v -0.000517 -0.003489 0.036619
v -0.000954 -0.003149 0.036085
v -0.004169 -0.000994 0.038030
v -0.004089 -0.001113 0.038850
v -0.005729 -0.000929 0.038868
v -0.005633 -0.000824 0.038024
v -0.009521 -0.004721 0.033269
v -0.010108 -0.005302 0.033528
v -0.009187 -0.006386 0.032434
v -0.008709 -0.005710 0.032299
v -0.012207 -0.005605 0.035783
v -0.011835 -0.007012 0.034332
v -0.010939 -0.006037 0.033827
v -0.011284 -0.004806 0.035122
v -0.007986 -0.007142 0.031730
v -0.007654 -0.006404 0.031681
v -0.009653 -0.002844 0.035293
v -0.010278 -0.003216 0.035822
v -0.010430 -0.004242 0.034664
v -0.009800 -0.003766 0.034269
v -0.011340 -0.003171 0.038595
v -0.012045 -0.004300 0.037244
v -0.011127 -0.003636 0.036434
v -0.010492 -0.002635 0.037627
v -0.010048 -0.002175 0.039814
v -0.009346 -0.001786 0.038691
v 0.000910 -0.004842 0.038543
v -0.000221 -0.003377 0.039962
v -0.000711 -0.002836 0.038678
v 0.000210 -0.004045 0.037482
v 0.000027 -0.004151 0.041159
v -0.001549 -0.003058 0.042126
v -0.001764 -0.002321 0.040887
v -0.006253 -0.001918 0.042708
v -0.008444 -0.002124 0.042149
v -0.003931 -0.002178 0.042730
v -0.003924 -0.001516 0.041414
v -0.012870 -0.006587 0.036643
v -0.012458 -0.008099 0.035086
v -0.011953 -0.003986 0.039667
v -0.012694 -0.005210 0.038216
v -0.010569 -0.002894 0.041000
v 0.001283 -0.005755 0.039577
v -0.001465 -0.000910 0.035728
v -0.002641 -0.000101 0.036459
v -0.005522 -0.005439 0.030188
v -0.006988 -0.000950 0.037716
v -0.006813 0.000398 0.036434
v -0.005459 0.000533 0.036771
v -0.002330 -0.005095 0.031001
v -0.003603 -0.005456 0.030429
v -0.000709 -0.003601 0.032868
v -0.001344 -0.004475 0.031814
v -0.000793 -0.001798 0.034845
v -0.000539 -0.002720 0.033858
v -0.003998 0.000370 0.036791
v -0.008397 -0.004233 0.031123
v -0.009180 -0.003304 0.032040
v -0.009475 -0.002384 0.033010
v -0.007374 -0.004899 0.030527
v -0.009363 -0.001494 0.034007
v -0.009159 -0.002061 0.036207
v -0.008899 -0.000725 0.034915
v -0.008278 -0.001426 0.037026
v -0.008059 -0.000080 0.035740
v -0.002159 -0.001844 0.039568
v -0.006827 -0.008797 0.031338
v -0.005256 -0.009029 0.031307
v -0.007259 -0.001075 0.038545
v -0.003487 -0.008947 0.031630
v -0.001783 -0.008441 0.032428
v -0.000485 -0.007626 0.033491
v 0.000350 -0.006429 0.034915
v 0.000546 -0.005236 0.036242
v -0.003984 -0.001206 0.040021
v -0.009911 -0.007287 0.032592
v -0.008515 -0.008209 0.031767
v -0.009720 -0.002337 0.036856
v -0.008723 -0.001618 0.037778
v -0.007253 -0.010197 0.031522
v -0.007554 -0.011491 0.032058
v -0.005554 -0.011829 0.031981
v -0.005414 -0.010508 0.031459
v -0.003441 -0.010447 0.031818
v -0.003467 -0.011756 0.032353
v -0.001310 -0.011176 0.033301
v -0.001447 -0.009901 0.032716
v 0.000060 -0.008991 0.033929
v 0.000304 -0.010207 0.034597
v 0.001406 -0.008728 0.036369
v 0.001057 -0.007612 0.035582
v 0.001281 -0.006186 0.037162
v 0.001661 -0.007172 0.038101
v -0.011257 -0.009585 0.033624
v -0.010710 -0.008419 0.032964
v -0.009512 -0.010777 0.032575
v -0.009105 -0.009519 0.032008
v -0.001518 -0.000021 0.036418
v -0.000896 -0.000508 0.035966
v -0.006288 -0.005740 0.029558
v -0.005593 -0.005877 0.029494
v -0.006299 0.001118 0.037029
v -0.005495 0.001154 0.037178
v -0.002572 -0.005660 0.030122
v -0.003336 -0.005836 0.029828
v -0.000304 -0.004166 0.032035
v -0.000726 -0.004651 0.031446
v 0.000103 -0.002076 0.034383
v 0.000194 -0.002609 0.033806
v -0.004655 0.001102 0.037233
v -0.003814 0.000961 0.037190
v -0.009461 -0.003887 0.031141
v -0.009853 -0.003330 0.031697
v -0.010095 -0.002784 0.032263
v -0.010201 -0.002247 0.032840
v -0.008393 -0.004842 0.030242
v -0.008959 -0.004406 0.030641
v -0.010191 -0.001719 0.033426
v -0.010069 -0.001212 0.034001
v -0.009841 -0.000741 0.034541
v -0.009507 -0.000307 0.035055
v -0.009068 0.000090 0.035546
v -0.008513 0.000445 0.036008
v -0.007830 0.000753 0.036430
v -0.007074 0.000987 0.036780
v -0.007029 -0.005511 0.029705
v -0.007752 -0.005206 0.029933
v -0.003008 0.000731 0.037045
v -0.002242 0.000405 0.036791
v -0.000432 -0.001017 0.035474
v -0.000107 -0.001542 0.034945
v 0.000161 -0.003129 0.033234
v -0.000002 -0.003645 0.032650
v -0.001248 -0.005064 0.030935
v -0.001865 -0.005400 0.030496
v -0.004123 -0.005925 0.029627
v -0.004889 -0.005935 0.029516
v -0.000345 0.000000 0.036049
v -0.001050 0.000542 0.036550
v -0.000825 0.001046 0.036350
v -0.000087 0.000486 0.035831
v -0.001867 0.001016 0.036964
v -0.001683 0.001537 0.036778
v -0.005510 0.001869 0.037419
v -0.006411 0.001824 0.037249
v -0.006415 0.002392 0.037091
v -0.005475 0.002441 0.037267
v -0.007282 0.001673 0.036969
v -0.007326 0.002232 0.036800
v 0.000877 -0.002360 0.033626
v 0.000770 -0.001761 0.034271
v 0.001073 -0.001352 0.033975
v 0.001191 -0.001976 0.033305
v 0.000531 -0.001161 0.034901
v 0.000820 -0.000726 0.034630
v -0.003623 0.001648 0.037422
v -0.004566 0.001810 0.037477
v -0.004490 0.002378 0.037325
v -0.003507 0.002204 0.037264
v -0.010464 -0.003193 0.031248
v -0.010021 -0.003826 0.030617
v -0.010238 -0.003519 0.030130
v -0.010704 -0.002850 0.030798
v -0.009453 -0.004418 0.030048
v -0.009639 -0.004144 0.029530
v -0.010848 -0.001965 0.032549
v -0.010733 -0.002573 0.031893
v -0.010983 -0.002199 0.031480
v -0.011097 -0.001560 0.032173
v -0.010684 -0.000794 0.033861
v -0.010829 -0.001367 0.033213
v -0.011070 -0.000930 0.032871
v -0.010910 -0.000328 0.033551
v -0.010037 0.000225 0.035046
v -0.010419 -0.000263 0.034470
v -0.010628 0.000225 0.034191
v -0.010223 0.000733 0.034796
v -0.008909 0.001070 0.036113
v -0.009538 0.000672 0.035598
v -0.009697 0.001198 0.035373
v -0.009035 0.001611 0.035910
v -0.008136 0.001412 0.036581
v -0.008222 0.001964 0.036396
v -0.008079 -0.005325 0.029245
v -0.007258 -0.005669 0.028986
v -0.007319 -0.005451 0.028406
v -0.008187 -0.005092 0.028678
v -0.006416 -0.005928 0.028820
v -0.006430 -0.005721 0.028232
v -0.002725 0.001384 0.037253
v -0.002574 0.001924 0.037082
v -0.001738 0.002415 0.035579
v -0.000948 0.001947 0.035169
v -0.000778 0.001713 0.035694
v -0.001617 0.002202 0.036121
v -0.000266 0.001413 0.034675
v -0.000053 0.001155 0.035177
v -0.004762 -0.005949 0.028188
v -0.004706 -0.005648 0.027809
v -0.005555 -0.005580 0.027774
v -0.005600 -0.005882 0.028157
v -0.004656 -0.005269 0.027531
v -0.005499 -0.005201 0.027494
v -0.006338 -0.005037 0.027566
v -0.006398 -0.005416 0.027849
v -0.007056 0.003103 0.035637
v -0.006190 0.003235 0.035893
v -0.006304 0.003058 0.036447
v -0.007212 0.002909 0.036171
v -0.005299 0.003264 0.036037
v -0.005369 0.003099 0.036608
v -0.001188 -0.005282 0.029402
v -0.001096 -0.004962 0.029058
v -0.001932 -0.005283 0.028598
v -0.002018 -0.005598 0.028951
v -0.001085 -0.004575 0.028789
v -0.001910 -0.004894 0.028328
v -0.002808 -0.005121 0.027957
v -0.002841 -0.005509 0.028227
v -0.002919 -0.005818 0.028589
v 0.000973 -0.003193 0.031952
v 0.001071 -0.002850 0.031640
v 0.000725 -0.003476 0.030912
v 0.000627 -0.003810 0.031229
v 0.001040 -0.002484 0.031348
v 0.000702 -0.003104 0.030631
v 0.000223 -0.003686 0.029938
v 0.000237 -0.004062 0.030209
v 0.000141 -0.004389 0.030532
v 0.000903 -0.000366 0.034332
v 0.001160 -0.000997 0.033675
v 0.000860 -0.000036 0.033997
v 0.001115 -0.000656 0.033352
v 0.001237 -0.001276 0.032691
v 0.001282 -0.001626 0.033002
v -0.004372 0.003196 0.036084
v -0.004393 0.003031 0.036660
v -0.003450 0.003032 0.036027
v -0.003421 0.002858 0.036599
v -0.009320 -0.002957 0.028677
v -0.009902 -0.002354 0.029255
v -0.010174 -0.002822 0.029495
v -0.009567 -0.003452 0.028892
v -0.010355 -0.001711 0.029894
v -0.010645 -0.002149 0.030164
v -0.010612 -0.001084 0.030554
v -0.010917 -0.001494 0.030853
v -0.010708 -0.000469 0.031226
v -0.011021 -0.000852 0.031553
v -0.008184 -0.004783 0.028301
v -0.008964 -0.004348 0.028682
v -0.008958 -0.004663 0.029050
v -0.008116 -0.004411 0.028014
v -0.008886 -0.003977 0.028398
v -0.009653 -0.003822 0.029173
v -0.010676 0.000139 0.031897
v -0.010989 -0.000217 0.032254
v -0.010519 0.000715 0.032549
v -0.010824 0.000387 0.032935
v -0.010237 0.001238 0.033163
v -0.010533 0.000936 0.033576
v -0.009837 0.001714 0.033741
v -0.010120 0.001438 0.034182
v -0.009324 0.002151 0.034288
v -0.009587 0.001899 0.034755
v -0.008686 0.002537 0.034796
v -0.008921 0.002307 0.035288
v -0.007909 0.002862 0.035258
v -0.008106 0.002651 0.035772
v -0.006232 -0.004481 0.027399
v -0.007097 -0.004226 0.027562
v -0.007238 -0.004769 0.027738
v -0.007938 -0.003883 0.027827
v -0.002571 0.002775 0.035862
v -0.002497 0.002583 0.036421
v -0.000013 0.000849 0.035537
v 0.000526 0.000252 0.034957
v 0.000447 -0.000109 0.035253
v 0.000482 0.000570 0.034608
v 0.001254 -0.002239 0.032330
v 0.001160 -0.002586 0.032637
v 0.001215 -0.001880 0.032028
v -0.000371 -0.004556 0.029593
v -0.000466 -0.004879 0.029926
v -0.000373 -0.004175 0.029324
v -0.002851 -0.004553 0.027789
v -0.003742 -0.004676 0.027526
v -0.003741 -0.005244 0.027688
v -0.004617 -0.004705 0.027370
v -0.001983 0.002402 0.035019
v -0.001264 0.001972 0.034644
v -0.000641 0.001483 0.034192
v -0.004613 -0.004103 0.027495
v -0.005354 -0.004044 0.027459
v -0.005426 -0.004640 0.027331
v -0.006093 -0.003898 0.027520
v -0.006656 0.002839 0.034652
v -0.005934 0.002945 0.034865
v -0.006053 0.003157 0.035306
v -0.006847 0.003041 0.035072
v -0.005192 0.002965 0.034985
v -0.005238 0.003180 0.035438
v -0.001494 -0.003482 0.028618
v -0.002212 -0.003760 0.028210
v -0.001994 -0.004334 0.028148
v -0.001209 -0.004029 0.028592
v -0.002996 -0.003960 0.027881
v 0.000342 -0.001661 0.030868
v 0.000053 -0.002201 0.030241
v 0.000484 -0.002627 0.030361
v 0.000802 -0.002035 0.031043
v -0.000359 -0.002708 0.029632
v 0.000031 -0.003183 0.029698
v 0.000167 0.000460 0.033174
v 0.000391 -0.000076 0.032616
v 0.000859 -0.000298 0.032951
v 0.000615 0.000291 0.033561
v 0.000498 -0.000614 0.032041
v 0.000976 -0.000887 0.032323
v -0.004420 0.002906 0.035024
v -0.004391 0.003115 0.035480
v -0.003653 0.002769 0.034977
v -0.003548 0.002965 0.035429
v -0.008922 -0.002498 0.028689
v -0.009456 -0.001947 0.029220
v -0.009870 -0.001359 0.029806
v -0.009410 -0.001167 0.029855
v -0.009625 -0.000644 0.030406
v -0.010106 -0.000784 0.030411
v -0.009706 -0.000130 0.030966
v -0.010194 -0.000220 0.031026
v -0.007657 -0.003350 0.027912
v -0.008329 -0.002963 0.028252
v -0.008672 -0.003464 0.028200
v -0.009680 0.000376 0.031527
v -0.010165 0.000336 0.031642
v -0.009548 0.000856 0.032073
v -0.010021 0.000863 0.032241
v -0.009762 0.001341 0.032803
v -0.009394 0.001776 0.033333
v -0.008977 0.001688 0.033068
v -0.008549 0.002050 0.033525
v -0.008924 0.002174 0.033835
v -0.008016 0.002370 0.033949
v -0.008339 0.002526 0.034301
v -0.007368 0.002640 0.034336
v -0.007628 0.002822 0.034725
v -0.006886 -0.003664 0.027669
v -0.002921 0.002555 0.034839
v -0.002745 0.002730 0.035278
v -0.002228 0.002256 0.034604
v -0.000170 0.000980 0.033700
v 0.000248 0.000861 0.034137
v 0.000485 -0.001137 0.031463
v 0.000961 -0.001460 0.031692
v -0.000875 -0.003133 0.029091
v -0.000534 -0.003648 0.029109
v -0.003811 -0.004075 0.027639
v -0.000754 0.001413 0.036060
v -0.001614 0.001907 0.036491
v -0.005427 0.002820 0.036987
v -0.006374 0.002773 0.036815
v -0.007292 0.002615 0.036527
v -0.003447 0.002578 0.036980
v -0.004435 0.002754 0.037043
v -0.010736 -0.002509 0.030458
v -0.010263 -0.003188 0.029782
v -0.011125 -0.001201 0.031856
v -0.011015 -0.001848 0.031152
v -0.010929 0.000047 0.033251
v -0.011094 -0.000562 0.032562
v -0.010226 0.001114 0.034510
v -0.010639 0.000604 0.033898
v -0.009020 0.001997 0.035632
v -0.009692 0.001582 0.035092
v -0.008198 0.002349 0.036121
v -0.007301 -0.005144 0.028024
v -0.002509 0.002296 0.036797
v -0.003784 -0.005627 0.027962
v -0.003851 -0.005931 0.028334
v -0.004830 -0.006144 0.028774
v -0.005627 -0.006082 0.028748
v -0.001418 -0.005519 0.029902
v -0.002213 -0.005818 0.029478
v -0.003074 -0.006023 0.029140
v 0.000663 -0.003526 0.032330
v 0.000327 -0.004114 0.031639
v -0.000142 -0.004665 0.030974
v -0.008808 -0.004913 0.029595
v 0.000170 -0.000571 0.035496
v 0.000844 -0.002945 0.032986
v -0.000726 -0.005133 0.030399
v -0.003962 -0.006128 0.028905
v -0.001572 0.001865 0.034263
v -0.001005 0.001420 0.033851
v -0.004622 -0.003667 0.027751
v -0.005297 -0.003613 0.027717
v -0.005970 -0.003480 0.027773
v -0.001781 -0.003101 0.028773
v -0.002435 -0.003354 0.028402
v -0.003149 -0.003536 0.028102
v -0.000110 -0.001443 0.030823
v -0.000372 -0.001935 0.030252
v -0.000748 -0.002396 0.029697
v -0.000269 0.000488 0.032923
v -0.000066 -0.000000 0.032415
v 0.000032 -0.000490 0.031891
v -0.008547 -0.002204 0.028837
v -0.009033 -0.001702 0.029321
v -0.007394 -0.002980 0.028130
v -0.008007 -0.002628 0.028440
v -0.009312 0.001292 0.032585
v -0.006692 -0.003267 0.027909
v -0.000577 0.000961 0.033403
v 0.000021 -0.000966 0.031365
v -0.001218 -0.002783 0.029205
v -0.003892 -0.003641 0.027882
v -0.006589 0.002720 0.034531
v -0.004851 -0.000363 0.031399
v -0.005179 0.002841 0.034852
v -0.003697 0.002653 0.034844
v -0.009241 -0.001137 0.029913
v -0.009526 -0.000138 0.030982
v -0.009374 0.000811 0.032048
v -0.008824 0.001612 0.033006
v -0.007899 0.002269 0.033855
v -0.002325 0.002159 0.034485
v -0.001148 0.001353 0.033760
v -0.004630 -0.003544 0.027887
v -0.005929 -0.003364 0.027908
v -0.001895 -0.002999 0.028871
v -0.003213 -0.003418 0.028225
v -0.000287 -0.001403 0.030844
v -0.000901 -0.002321 0.029761
v -0.000440 0.000457 0.032867
v -0.000150 -0.000485 0.031873
v -0.008410 -0.002136 0.028933
v -0.007300 -0.002883 0.028251
vn 0.7800 0.5309 0.3313
vn 0.5432 0.6843 0.4865
vn 0.4537 0.8906 0.0309
vn 0.6403 0.7634 -0.0850
vn -0.2272 -0.3615 -0.9043
vn 0.0748 -0.4526 -0.8886
vn 0.1004 0.0175 -0.9948
vn -0.1188 0.0428 -0.9920
vn -0.0274 0.9419 0.3347
vn 0.0065 0.9902 0.1393
vn -0.2420 0.9675 0.0730
vn -0.3122 0.9122 0.2653
vn 0.3502 -0.4250 -0.8347
vn 0.6098 -0.3713 -0.7002
vn 0.5079 0.0908 -0.8566
vn 0.3103 0.0300 -0.9502
vn 0.8275 -0.2258 -0.5141
vn 0.9508 -0.0756 -0.3003
vn 0.7635 0.3215 -0.5601
vn 0.6681 0.1978 -0.7173
vn 0.9879 0.1381 -0.0708
vn 0.9340 0.3249 0.1488
vn 0.7504 0.6208 -0.2270
vn 0.7935 0.4696 -0.3869
vn 0.2202 0.9721 0.0808
vn 0.2352 0.7934 0.5614
vn -0.0512 0.8341 0.5493
vn 0.0094 0.9968 0.0797
vn -0.8556 0.0408 -0.5160
vn -0.7108 -0.1438 -0.6886
vn -0.4989 0.2291 -0.8358
vn -0.6130 0.3695 -0.6983
vn -0.8325 0.3753 -0.4075
vn -0.7063 0.4966 -0.5045
vn -0.6547 0.3309 -0.6796
vn -0.7745 0.1904 -0.6032
vn -0.4510 -0.3061 -0.8384
vn -0.3202 0.1113 -0.9408
vn -0.6417 0.6726 -0.3686
vn -0.9032 0.4228 -0.0738
vn -0.9271 0.2414 -0.2866
vn -0.6658 0.5285 -0.5267
vn -0.7096 0.7041 -0.0282
vn -0.5949 0.7855 -0.1704
vn -0.6817 0.6483 -0.3391
vn -0.8106 0.5434 -0.2183
vn -0.5325 0.8354 0.1364
vn -0.4402 0.8974 -0.0303
vn 0.8706 0.4912 -0.0284
vn 0.7942 0.5845 -0.1661
vn 0.6790 0.7339 -0.0180
vn 0.7426 0.6557 0.1362
vn 0.5285 0.7658 0.3663
vn 0.7686 0.5980 0.2273
vn 0.5129 0.8138 0.2732
vn -0.3422 0.8648 0.3675
vn -0.0481 0.8982 0.4369
vn 0.2565 0.8628 0.4356
vn 0.2547 0.9063 0.3372
vn -0.8319 0.0996 -0.5460
vn -0.8899 0.2999 -0.3439
vn -0.7650 0.6418 0.0539
vn -0.8700 0.4723 -0.1414
vn -0.5738 0.7866 0.2281
vn 0.9027 0.4267 0.0548
vn 0.7162 0.1263 0.6864
vn 0.4903 0.2837 0.8241
vn -0.1277 -0.7923 -0.5967
vn -0.3654 0.8042 0.4687
vn -0.1065 0.4247 0.8991
vn -0.4176 0.3985 0.8165
vn 0.2480 -0.8363 -0.4890
vn 0.5459 -0.7617 -0.3490
vn 0.7680 -0.6205 -0.1586
vn 0.8852 -0.4628 0.0478
vn 0.9213 -0.2644 0.2851
vn 0.8650 -0.0710 0.4967
vn 0.1850 0.3857 0.9039
vn -0.9169 -0.3606 -0.1711
vn -0.7675 -0.5398 -0.3458
vn -0.9854 -0.1600 0.0576
vn -0.4706 -0.7260 -0.5014
vn -0.9608 0.0206 0.2765
vn -0.7930 0.5928 0.1406
vn -0.8508 0.1886 0.4904
vn -0.6006 0.7274 0.3318
vn -0.6568 0.3245 0.6806
vn 0.4775 0.8723 0.1053
vn 0.0905 -0.0557 -0.9943
vn -0.1416 -0.0258 -0.9896
vn -0.2226 0.9748 0.0162
vn 0.5287 0.0132 -0.8487
vn 0.3189 -0.0488 -0.9465
vn 0.8114 0.2641 -0.5215
vn 0.7070 0.1254 -0.6960
vn 0.8422 0.4193 -0.3390
vn 0.2370 0.9604 0.1465
vn -0.5344 0.1755 -0.8268
vn -0.3510 0.0493 -0.9351
vn -0.5577 0.8037 -0.2075
vn -0.4097 0.9093 -0.0731
vn -0.1962 -0.2129 -0.9572
vn 0.0626 -0.2517 -0.9658
vn 0.0460 -0.3726 -0.9269
vn -0.2247 -0.3280 -0.9176
vn 0.3277 -0.2424 -0.9131
vn 0.5649 -0.1736 -0.8067
vn 0.5782 -0.2909 -0.7623
vn 0.3265 -0.3637 -0.8724
vn 0.7725 -0.0476 -0.6332
vn 0.8928 0.1201 -0.4342
vn 0.9279 0.0227 -0.3722
vn 0.7988 -0.1592 -0.5801
vn 0.9259 0.2995 -0.2303
vn 0.9629 0.2185 -0.1586
vn -0.6372 0.0143 -0.7706
vn -0.6891 -0.0843 -0.7198
vn -0.4324 -0.1253 -0.8929
vn -0.4735 -0.2314 -0.8499
vn 0.1550 -0.5268 0.8357
vn 0.2159 -0.5381 0.8147
vn -0.1694 -0.8907 0.4219
vn -0.1156 -0.9079 0.4029
vn -0.1716 -0.4565 0.8730
vn -0.1144 -0.4288 0.8961
vn 0.0623 -0.8956 0.4405
vn 0.0272 -0.9146 0.4035
vn 0.2240 -0.8107 0.5409
vn 0.2231 -0.8402 0.4943
vn 0.2627 -0.6693 0.6950
vn 0.2930 -0.6974 0.6540
vn 0.0061 -0.4356 0.9001
vn -0.0587 -0.4557 0.8882
vn -0.3969 -0.7564 0.5199
vn -0.3488 -0.7881 0.5071
vn -0.4189 -0.6858 0.5951
vn -0.3890 -0.7245 0.5691
vn -0.2866 -0.8410 0.4589
vn -0.3426 -0.8170 0.4638
vn -0.4113 -0.6166 0.6714
vn -0.3947 -0.6621 0.6370
vn -0.3815 -0.5456 0.7461
vn -0.3790 -0.5942 0.7094
vn -0.3172 -0.4872 0.8137
vn -0.3377 -0.5362 0.7736
vn -0.2338 -0.4400 0.8670
vn -0.2662 -0.4871 0.8318
vn -0.1890 -0.8670 0.4611
vn -0.2606 -0.8689 0.4208
vn 0.1292 -0.4722 0.8720
vn 0.0551 -0.4747 0.8784
vn 0.2264 -0.5936 0.7722
vn 0.2752 -0.6193 0.7353
vn 0.2621 -0.7413 0.6179
vn 0.2729 -0.7778 0.5661
vn 0.1583 -0.8617 0.4821
vn 0.1305 -0.8888 0.4393
vn -0.0423 -0.8937 0.4467
vn -0.0650 -0.9077 0.4145
vn 0.6047 0.2284 0.7630
vn 0.4109 -0.1877 0.8922
vn 0.4896 -0.2547 0.8339
vn 0.7151 0.1370 0.6855
vn 0.4926 0.2976 0.8178
vn 0.3263 -0.1329 0.9359
vn -0.2658 0.4138 0.8707
vn -0.2400 -0.0518 0.9694
vn -0.1228 -0.0494 0.9912
vn -0.1068 0.4230 0.8998
vn -0.4091 0.3888 0.8255
vn -0.3464 -0.0680 0.9356
vn 0.9059 -0.1511 0.3957
vn 0.6325 -0.4712 0.6147
vn 0.6424 -0.5449 0.5389
vn 0.9213 -0.2540 0.2945
vn 0.8728 -0.0584 0.4846
vn 0.6051 -0.4027 0.6868
vn 0.0501 0.4161 0.9079
vn -0.0083 -0.0547 0.9985
vn 0.1051 -0.0683 0.9921
vn 0.2051 0.3932 0.8963
vn -0.8345 -0.5254 -0.1663
vn -0.6452 -0.7354 0.2069
vn -0.6923 -0.6690 0.2704
vn -0.8988 -0.4323 -0.0732
vn -0.7537 -0.6079 -0.2497
vn -0.5860 -0.7959 0.1522
vn -0.9454 -0.3241 0.0331
vn -0.7249 -0.5947 0.3475
vn -0.7399 -0.5222 0.4240
vn -0.9663 -0.2182 0.1369
vn -0.9645 -0.1192 0.2358
vn -0.7412 -0.4517 0.4966
vn -0.7273 -0.3802 0.5715
vn -0.9416 -0.0239 0.3358
vn -0.8967 0.0674 0.4375
vn -0.6958 -0.3113 0.6473
vn -0.6511 -0.2514 0.7161
vn -0.8334 0.1498 0.5321
vn -0.7506 0.2256 0.6210
vn -0.5928 -0.1962 0.7811
vn -0.5161 -0.1436 0.8444
vn -0.6442 0.2955 0.7055
vn -0.5299 0.3499 0.7725
vn -0.4339 -0.1003 0.8954
vn -0.3987 -0.8111 -0.4280
vn -0.3372 -0.9413 0.0146
vn -0.4237 -0.9048 0.0422
vn -0.5190 -0.7632 -0.3850
vn -0.2783 -0.8453 -0.4561
vn -0.2464 -0.9692 -0.0014
vn 0.3579 0.3531 0.8644
vn 0.2204 -0.0936 0.9709
vn 0.6477 0.7045 0.2901
vn 0.5479 0.8358 -0.0347
vn 0.4597 0.8879 0.0178
vn 0.5383 0.7629 0.3581
vn 0.7481 0.6308 0.2060
vn 0.6214 0.7772 -0.0990
vn -0.1111 -0.6844 -0.7206
vn 0.0563 -0.6974 -0.7145
vn 0.0205 -0.8876 -0.4601
vn -0.1326 -0.8748 -0.4659
vn -0.0757 -0.4201 -0.9043
vn 0.0899 -0.4301 -0.8983
vn -0.2640 -0.6546 -0.7084
vn -0.2227 -0.3928 -0.8922
vn -0.1890 0.8890 0.4170
vn -0.1089 0.9914 0.0726
vn -0.2306 0.9717 0.0505
vn -0.3377 0.8575 0.3881
vn -0.0334 0.9037 0.4268
vn 0.0125 0.9966 0.0812
vn 0.4872 -0.6195 -0.6155
vn 0.6145 -0.5660 -0.5496
vn 0.5514 -0.7760 -0.3062
vn 0.4278 -0.8249 -0.3695
vn 0.4957 -0.3493 -0.7952
vn 0.6141 -0.2958 -0.7317
vn 0.3509 -0.6594 -0.6649
vn 0.3686 -0.3867 -0.8454
vn 0.2950 -0.8605 -0.4154
vn 0.9113 -0.3183 -0.2614
vn 0.9605 -0.2277 -0.1598
vn 0.8849 -0.4611 0.0661
vn 0.8361 -0.5478 -0.0303
vn 0.8845 -0.0559 -0.4632
vn 0.9293 0.0318 -0.3679
vn 0.8384 -0.4063 -0.3633
vn 0.8186 -0.1387 -0.5574
vn 0.7649 -0.6318 -0.1255
vn 0.9781 0.1025 0.1810
vn 0.9414 0.1963 0.2742
vn 0.9383 0.3417 -0.0534
vn 0.9022 0.4299 0.0345
vn 0.9973 -0.0022 0.0728
vn 0.9567 0.2471 -0.1536
vn 0.1137 0.8968 0.4275
vn 0.1249 0.9887 0.0824
vn 0.2593 0.8700 0.4193
vn 0.2371 0.9685 0.0756
vn -0.7877 -0.0513 -0.6139
vn -0.6052 0.2411 -0.7586
vn -0.5442 0.1757 -0.8204
vn -0.7071 -0.1308 -0.6949
vn -0.8580 0.0444 -0.5117
vn -0.6639 0.3209 -0.6755
vn -0.9044 0.1612 -0.3950
vn -0.6997 0.4196 -0.5782
vn -0.9190 0.2670 -0.2900
vn -0.7120 0.5019 -0.4910
vn -0.6589 -0.4802 -0.5790
vn -0.5246 -0.5641 -0.6377
vn -0.6450 -0.6916 -0.3249
vn -0.6064 -0.2207 -0.7639
vn -0.4783 -0.3069 -0.8229
vn -0.7717 -0.3867 -0.5049
vn -0.9140 0.3585 -0.1901
vn -0.7076 0.5741 -0.4120
vn -0.8889 0.4501 -0.0854
vn -0.6832 0.6519 -0.3291
vn -0.8392 0.5435 0.0170
vn -0.6416 0.7277 -0.2424
vn -0.7709 0.6278 0.1075
vn -0.5862 0.7927 -0.1671
vn -0.6850 0.7028 0.1919
vn -0.5150 0.8510 -0.1025
vn -0.5775 0.7694 0.2730
vn -0.4280 0.9030 -0.0382
vn -0.4628 0.8191 0.3389
vn -0.3344 0.9424 0.0129
vn -0.3455 -0.3613 -0.8661
vn -0.2427 0.0047 -0.9701
vn -0.1432 -0.0224 -0.9894
vn -0.3543 0.0506 -0.9338
vn 0.4054 0.8225 0.3989
vn 0.3523 0.9341 0.0573
vn 0.8800 0.3013 0.3672
vn 0.7791 0.4158 0.4691
vn 0.8129 0.0336 0.5814
vn 0.8396 0.5305 0.1169
vn 0.9919 -0.1188 -0.0458
vn 0.9154 -0.3615 0.1773
vn 0.9552 0.1381 -0.2617
vn 0.7352 -0.4937 -0.4644
vn 0.6667 -0.7114 -0.2224
vn 0.7254 -0.2232 -0.6511
vn 0.2354 -0.4151 -0.8788
vn 0.2316 -0.0399 -0.9720
vn 0.3365 -0.0214 -0.9414
vn 0.1134 -0.0461 -0.9925
vn 0.3855 0.8613 -0.3309
vn 0.3316 0.8959 -0.2956
vn 0.4320 0.8239 -0.3668
vn -0.0235 -0.0398 -0.9989
vn 0.0302 0.3365 -0.9412
vn 0.1154 0.3311 -0.9365
vn -0.0428 0.3487 -0.9362
vn -0.0248 0.9639 -0.2650
vn 0.0503 0.8415 -0.5380
vn 0.0017 0.8649 -0.5019
vn -0.1003 0.9541 -0.2823
vn 0.0500 0.9650 -0.2576
vn 0.0741 0.8703 -0.4869
vn 0.4361 0.0110 -0.8998
vn 0.3163 0.3576 -0.8787
vn 0.3761 0.3820 -0.8442
vn 0.5304 0.0536 -0.8461
vn 0.2552 0.3415 -0.9046
vn 0.7374 0.2433 -0.6301
vn 0.5048 0.4948 -0.7074
vn 0.5240 0.5406 -0.6581
vn 0.7702 0.3163 -0.5538
vn 0.6889 0.1759 -0.7032
vn 0.4760 0.4535 -0.7535
vn 0.7731 0.5566 -0.3041
vn 0.5244 0.6887 -0.5008
vn 0.5048 0.7340 -0.4543
vn 0.7425 0.6280 -0.2329
vn 0.7877 0.4833 -0.3820
vn 0.5341 0.6431 -0.5488
vn 0.1194 0.9591 -0.2566
vn 0.1044 0.8400 -0.5325
vn 0.1884 0.9465 -0.2621
vn 0.1421 0.8615 -0.4875
vn -0.3328 0.5048 -0.7965
vn -0.2968 0.4651 -0.8340
vn -0.3632 0.5601 -0.7446
vn -0.3922 0.6177 -0.6817
vn -0.0794 0.7182 -0.6913
vn -0.1259 0.6747 -0.7273
vn -0.4008 0.6677 -0.6273
vn -0.1396 0.7293 -0.6698
vn -0.4633 0.1124 -0.8791
vn -0.2466 0.4288 -0.8691
vn -0.1757 0.3926 -0.9028
vn -0.3976 0.7120 -0.5788
vn -0.0851 0.7501 -0.6558
vn -0.3864 0.7592 -0.5238
vn -0.1298 0.7717 -0.6226
vn -0.3547 0.8076 -0.4712
vn -0.3166 0.8471 -0.4268
vn -0.2779 0.8815 -0.3818
vn -0.0417 0.8118 -0.5824
vn -0.1041 0.8135 -0.5721
vn -0.2235 0.9130 -0.3414
vn -0.0568 0.8453 -0.5313
vn -0.1648 0.9368 -0.3085
vn 0.0004 0.8318 -0.5551
vn -0.1046 0.3657 -0.9249
vn 0.2603 0.9253 -0.2757
vn 0.1565 0.8265 -0.5407
vn 0.2112 0.8356 -0.5071
vn 0.6910 0.7038 -0.1648
vn 0.4738 0.7799 -0.4090
vn 0.7881 0.4008 -0.4672
vn 0.5346 0.5930 -0.6020
vn 0.6179 0.1102 -0.7785
vn 0.4319 0.4150 -0.8007
vn 0.1900 0.3332 -0.9235
vn 0.6631 0.5004 0.5566
vn 0.5451 0.5616 0.6225
vn -0.2426 0.6951 0.6768
vn -0.0756 0.7113 0.6988
vn -0.3952 0.6606 0.6383
vn 0.0874 0.7034 0.7054
vn 0.2482 0.6733 0.6965
vn -0.8581 -0.2999 -0.4169
vn -0.9288 -0.2008 -0.3116
vn -0.9773 -0.0815 -0.1953
vn -0.9959 0.0315 -0.0853
vn -0.9911 0.1313 0.0215
vn -0.9649 0.2284 0.1295
vn -0.9157 0.3255 0.2358
vn -0.8469 0.4141 0.3334
vn -0.7580 0.4940 0.4258
vn -0.6451 0.5651 0.5143
vn -0.5241 0.6188 0.5852
vn -0.3919 -0.6190 -0.6806
vn 0.4058 0.6223 0.6694
vn 0.2072 -0.6869 -0.6966
vn 0.1582 -0.8818 -0.4443
vn -0.1373 -0.9904 -0.0141
vn -0.0285 -0.9995 -0.0111
vn 0.2663 -0.9623 0.0555
vn 0.3613 -0.9269 0.1018
vn 0.1666 -0.9858 0.0219
vn 0.5731 -0.7630 0.2990
vn 0.6113 -0.6989 0.3713
vn 0.5207 -0.8220 0.2305
vn -0.5111 -0.8545 0.0927
vn 0.5590 -0.3318 0.7599
vn 0.6347 -0.6245 0.4552
vn 0.4487 -0.8788 0.1624
vn 0.0674 -0.9977 0.0006
vn 0.2039 0.8029 -0.5601
vn 0.2627 0.8017 -0.5369
vn 0.0724 0.6119 -0.7876
vn 0.1078 0.5654 -0.8178
vn 0.0310 0.5758 -0.8170
vn 0.1780 0.6198 -0.7643
vn 0.2342 0.5895 -0.7731
vn 0.1750 0.5703 -0.8026
vn 0.2470 0.6662 -0.7037
vn 0.3056 0.6625 -0.6839
vn 0.2817 0.6219 -0.7306
vn 0.2581 0.7380 -0.6235
vn 0.2981 0.7564 -0.5823
vn 0.3121 0.7122 -0.6288
vn -0.0570 0.6743 -0.7363
vn -0.0897 0.6322 -0.7696
vn -0.0293 0.6491 -0.7602
vn -0.0335 0.5970 -0.8016
vn -0.0700 0.7847 -0.6159
vn 0.0234 0.6242 -0.7809
vn 0.2371 0.7735 -0.5878
vn 0.2598 0.7033 -0.6617
vn 0.2218 0.6404 -0.7354
vn 0.1327 0.6102 -0.7811
vn 0.0917 0.7347 -0.6722
vn 0.0897 0.7342 -0.6729
vn 0.0911 0.7374 -0.6693
vn 0.0890 0.7344 -0.6729
vn 0.0959 0.7384 -0.6675
vn 0.0950 0.7382 -0.6679
vn 0.0951 0.7364 -0.6699
vn 0.0945 0.7358 -0.6706
vn 0.0937 0.7351 -0.6715
vn 0.0884 0.7345 -0.6728
vn 0.0873 0.7355 -0.6719
vn 0.0925 0.7410 -0.6651
vn 0.0926 0.7409 -0.6652
vn 0.0911 0.7406 -0.6657
vn 0.0917 0.7408 -0.6655
vn 0.0865 0.7367 -0.6706
vn 0.0885 0.7380 -0.6690
vn 0.0865 0.7360 -0.6714
vn 0.0866 0.7367 -0.6707
vn 0.0940 0.7391 -0.6670
vn 0.0918 0.7413 -0.6649
vt 0.943315 0.932807
vt 0.962599 0.932807
vt 0.962599 0.924573
vt 0.943315 0.924573
vt 0.807796 0.932807
vt 0.822223 0.932807
vt 0.822223 0.924573
vt 0.807796 0.924573
vt 0.653089 0.907446
vt 0.653089 0.916817
vt 0.669895 0.916817
vt 0.669895 0.907446
vt 0.839284 0.932807
vt 0.857282 0.932807
vt 0.857282 0.924573
vt 0.839284 0.924573
vt 0.874606 0.932807
vt 0.893383 0.932807
vt 0.893383 0.924573
vt 0.874606 0.924573
vt 0.909544 0.932807
vt 0.926054 0.932807
vt 0.926054 0.924573
vt 0.909544 0.924573
vt 0.980492 0.924573
vt 0.980492 0.932807
vt 0.998308 0.932807
vt 0.998308 0.924573
vt 0.754059 0.932807
vt 0.773304 0.932807
vt 0.773304 0.924573
vt 0.754059 0.924573
vt 0.737159 0.907446
vt 0.737159 0.916817
vt 0.754059 0.916817
vt 0.754059 0.907446
vt 0.790293 0.932807
vt 0.790293 0.924573
vt 0.720604 0.924573
vt 0.720604 0.932807
vt 0.737159 0.932807
vt 0.737159 0.924573
vt 0.705016 0.907446
vt 0.705016 0.916817
vt 0.720604 0.916817
vt 0.720604 0.907446
vt 0.688603 0.907446
vt 0.688603 0.916817
vt 0.926054 0.907446
vt 0.926054 0.916817
vt 0.943315 0.916817
vt 0.943315 0.907446
vt 0.962599 0.900654
vt 0.943315 0.900654
vt 0.962599 0.907446
vt 0.669895 0.900654
vt 0.653089 0.900654
vt 0.998308 0.900654
vt 0.980492 0.900654
vt 0.980492 0.907446
vt 0.998308 0.907446
vt 0.754059 0.900654
vt 0.737159 0.900654
vt 0.705016 0.900654
vt 0.720604 0.900654
vt 0.688603 0.900654
vt 0.926054 0.900654
vt 0.943315 0.949636
vt 0.962599 0.949636
vt 0.815010 0.949636
vt 0.669895 0.932807
vt 0.653089 0.932807
vt 0.653089 0.949636
vt 0.669895 0.949636
vt 0.839284 0.949636
vt 0.857282 0.949636
vt 0.874606 0.949636
vt 0.893383 0.949636
vt 0.909544 0.949636
vt 0.926054 0.949636
vt 0.980492 0.949636
vt 0.998308 0.949636
vt 0.754059 0.949636
vt 0.773304 0.949636
vt 0.737159 0.949636
vt 0.790293 0.949636
vt 0.720604 0.949636
vt 0.705016 0.932807
vt 0.705016 0.949636
vt 0.688603 0.932807
vt 0.688603 0.949636
vt 0.962599 0.916817
vt 0.822223 0.916817
vt 0.807796 0.916817
vt 0.669895 0.924573
vt 0.653089 0.924573
vt 0.857282 0.916817
vt 0.839284 0.916817
vt 0.893383 0.916817
vt 0.874606 0.916817
vt 0.909544 0.916817
vt 0.980492 0.916817
vt 0.998308 0.916817
vt 0.773304 0.916817
vt 0.790293 0.916817
vt 0.705016 0.924573
vt 0.688603 0.924573
vt 0.807796 0.907446
vt 0.822223 0.907446
vt 0.822223 0.900654
vt 0.807796 0.900654
vt 0.839284 0.907446
vt 0.857282 0.907446
vt 0.857282 0.900654
vt 0.839284 0.900654
vt 0.874606 0.907446
vt 0.893383 0.907446
vt 0.893383 0.900654
vt 0.874606 0.900654
vt 0.909544 0.907446
vt 0.909544 0.900654
vt 0.773304 0.907446
vt 0.773304 0.900654
vt 0.790293 0.907446
vt 0.790293 0.900654
vt 0.962425 0.949636
vt 0.943568 0.949636
vt 0.952957 0.957235
vt 0.943568 0.957235
vt 0.807412 0.957235
vt 0.815010 0.957235
vt 0.814982 0.949636
vt 0.670133 0.949636
vt 0.661492 0.957235
vt 0.653089 0.957479
vt 0.857198 0.949636
vt 0.839401 0.949636
vt 0.848283 0.957235
vt 0.839401 0.957235
vt 0.893056 0.949636
vt 0.874788 0.949636
vt 0.883995 0.957235
vt 0.874788 0.957235
vt 0.926148 0.949636
vt 0.909588 0.949636
vt 0.917799 0.957235
vt 0.909588 0.957235
vt 0.980482 0.949636
vt 0.980482 0.957235
vt 0.989400 0.957235
vt 0.754352 0.949636
vt 0.754352 0.957235
vt 0.763682 0.957235
vt 0.737202 0.949636
vt 0.737202 0.957235
vt 0.745609 0.957235
vt 0.790357 0.949636
vt 0.773022 0.949636
vt 0.781798 0.957235
vt 0.773022 0.957235
vt 0.720725 0.949636
vt 0.720725 0.957235
vt 0.728881 0.957235
vt 0.704913 0.949636
vt 0.704913 0.957235
vt 0.712810 0.957235
vt 0.688316 0.949636
vt 0.688316 0.957235
vt 0.696810 0.957235
vt 0.670133 0.957235
vt 0.679249 0.957235
vt 0.799045 0.957235
vt 0.790357 0.957235
vt 0.962425 0.957235
vt 0.971545 0.957235
vt 0.934685 0.957235
vt 0.926148 0.957235
vt 0.901464 0.957235
vt 0.893056 0.957235
vt 0.865944 0.957235
vt 0.857198 0.957235
vt 0.830754 0.957235
vt 0.822553 0.957235
vt 0.952957 0.971212
vt 0.952957 0.964978
vt 0.943568 0.964978
vt 0.943568 0.971212
vt 0.962425 0.971212
vt 0.962425 0.964978
vt 0.661492 0.971212
vt 0.661492 0.964978
vt 0.653089 0.965011
vt 0.653089 0.971174
vt 0.670133 0.971212
vt 0.670133 0.964978
vt 0.917799 0.971212
vt 0.917799 0.964978
vt 0.909588 0.964978
vt 0.909588 0.971212
vt 0.926148 0.971212
vt 0.926148 0.964978
vt 0.989400 0.971212
vt 0.989400 0.964978
vt 0.980482 0.964978
vt 0.980482 0.971212
vt 0.998308 0.971174
vt 0.998308 0.965011
vt 0.763682 0.971212
vt 0.763682 0.964978
vt 0.754352 0.964978
vt 0.754352 0.971212
vt 0.773022 0.971212
vt 0.773022 0.964978
vt 0.745609 0.971212
vt 0.745609 0.964978
vt 0.737202 0.964978
vt 0.737202 0.971212
vt 0.728881 0.971212
vt 0.728881 0.964978
vt 0.720725 0.964978
vt 0.720725 0.971212
vt 0.712810 0.971212
vt 0.712810 0.964978
vt 0.704913 0.964978
vt 0.704913 0.971212
vt 0.696810 0.971212
vt 0.696810 0.964978
vt 0.688316 0.964978
vt 0.688316 0.971212
vt 0.679249 0.971212
vt 0.679249 0.964978
vt 0.799045 0.971212
vt 0.799045 0.964978
vt 0.790357 0.964978
vt 0.790357 0.971212
vt 0.807412 0.971212
vt 0.807412 0.964978
vt 0.971545 0.971212
vt 0.971545 0.964978
vt 0.952957 0.980775
vt 0.952957 0.986845
vt 0.962425 0.986845
vt 0.962425 0.980775
vt 0.943568 0.980775
vt 0.943568 0.986845
vt 0.815010 0.976001
vt 0.822553 0.976001
vt 0.822553 0.971212
vt 0.815010 0.971212
vt 0.815010 0.980775
vt 0.822553 0.980775
vt 0.807412 0.976001
vt 0.807412 0.980775
vt 0.661492 0.980775
vt 0.661492 0.986845
vt 0.670133 0.986845
vt 0.670133 0.980775
vt 0.653089 0.980816
vt 0.653089 0.986836
vt 0.848283 0.976001
vt 0.857198 0.976001
vt 0.857198 0.971212
vt 0.848283 0.971212
vt 0.848283 0.980775
vt 0.857198 0.980775
vt 0.839401 0.976001
vt 0.839401 0.980775
vt 0.839401 0.971212
vt 0.883995 0.976001
vt 0.893056 0.976001
vt 0.893056 0.971212
vt 0.883995 0.971212
vt 0.883995 0.980775
vt 0.893056 0.980775
vt 0.874788 0.976001
vt 0.874788 0.980775
vt 0.874788 0.971212
vt 0.917799 0.976001
vt 0.926148 0.976001
vt 0.917799 0.980775
vt 0.926148 0.980775
vt 0.909588 0.976001
vt 0.909588 0.980775
vt 0.989400 0.980775
vt 0.989400 0.986845
vt 0.998308 0.986836
vt 0.998308 0.980816
vt 0.980482 0.980775
vt 0.980482 0.986845
vt 0.763682 0.980775
vt 0.763682 0.986845
vt 0.773022 0.986845
vt 0.773022 0.980775
vt 0.754352 0.980775
vt 0.754352 0.986845
vt 0.745609 0.980775
vt 0.745609 0.986845
vt 0.737202 0.980775
vt 0.737202 0.986845
vt 0.781799 0.976001
vt 0.790357 0.976001
vt 0.781798 0.971212
vt 0.781798 0.980775
vt 0.790357 0.980775
vt 0.773022 0.976001
vt 0.728881 0.980775
vt 0.728881 0.986845
vt 0.720725 0.980775
vt 0.720725 0.986845
vt 0.712810 0.980775
vt 0.712810 0.986845
vt 0.704913 0.980775
vt 0.704913 0.986845
vt 0.696810 0.980775
vt 0.696810 0.986845
vt 0.688316 0.980775
vt 0.688316 0.986845
vt 0.679249 0.980775
vt 0.679249 0.986845
vt 0.799045 0.980775
vt 0.799045 0.986845
vt 0.807412 0.986845
vt 0.790357 0.986845
vt 0.971545 0.980775
vt 0.971545 0.986845
vt 0.934685 0.976001
vt 0.943568 0.976001
vt 0.934685 0.971212
vt 0.934685 0.980775
vt 0.901464 0.976001
vt 0.901464 0.971212
vt 0.901464 0.980775
vt 0.865944 0.976001
vt 0.865944 0.971212
vt 0.865944 0.980775
vt 0.830754 0.980775
vt 0.830754 0.986845
vt 0.839401 0.986845
vt 0.822553 0.986845
vt 0.952957 0.993176
vt 0.962425 0.993176
vt 0.943568 0.993176
vt 0.815010 0.986845
vt 0.815010 0.993176
vt 0.822553 0.993176
vt 0.807412 0.993176
vt 0.661492 0.993176
vt 0.661492 0.998243
vt 0.670133 0.998243
vt 0.670133 0.993176
vt 0.653089 0.993133
vt 0.653089 0.998243
vt 0.848283 0.986845
vt 0.848283 0.993176
vt 0.857198 0.993176
vt 0.857198 0.986845
vt 0.839401 0.993176
vt 0.883995 0.986845
vt 0.883995 0.993176
vt 0.893056 0.993176
vt 0.893056 0.986845
vt 0.874788 0.986845
vt 0.874788 0.993176
vt 0.917799 0.986845
vt 0.917799 0.993176
vt 0.926148 0.993176
vt 0.926148 0.986845
vt 0.909588 0.986845
vt 0.909588 0.993176
vt 0.989400 0.993176
vt 0.989400 0.998243
vt 0.998308 0.998243
vt 0.998308 0.993133
vt 0.980482 0.993176
vt 0.980482 0.998243
vt 0.763682 0.993176
vt 0.773022 0.993176
vt 0.754352 0.993176
vt 0.745609 0.993176
vt 0.745609 0.998243
vt 0.754352 0.998243
vt 0.737202 0.993176
vt 0.737202 0.998243
vt 0.781798 0.986845
vt 0.781798 0.993176
vt 0.790357 0.993176
vt 0.728881 0.993176
vt 0.728881 0.998243
vt 0.720725 0.993176
vt 0.720725 0.998243
vt 0.712810 0.993176
vt 0.704913 0.993176
vt 0.696810 0.993176
vt 0.696810 0.998243
vt 0.704913 0.998243
vt 0.688316 0.993176
vt 0.688316 0.998243
vt 0.679249 0.993176
vt 0.679249 0.998243
vt 0.799045 0.993176
vt 0.971545 0.993176
vt 0.971545 0.998243
vt 0.962425 0.998243
vt 0.934685 0.986845
vt 0.934685 0.993176
vt 0.901464 0.986845
vt 0.901464 0.993176
vt 0.865944 0.986845
vt 0.865944 0.993176
vt 0.830754 0.993176
vt 0.952957 0.976001
vt 0.962425 0.976001
vt 0.661492 0.976001
vt 0.653089 0.976001
vt 0.670133 0.976001
vt 0.989400 0.976001
vt 0.980482 0.976001
vt 0.998308 0.976001
vt 0.763682 0.976001
vt 0.754352 0.976001
vt 0.745609 0.976001
vt 0.737202 0.976001
vt 0.728881 0.976001
vt 0.720725 0.976001
vt 0.712810 0.976001
vt 0.704913 0.976001
vt 0.696810 0.976001
vt 0.688316 0.976001
vt 0.679249 0.976001
vt 0.799045 0.976001
vt 0.971545 0.976001
vt 0.830754 0.976001
vt 0.830754 0.971212
vt 0.815010 0.964978
vt 0.822553 0.964978
vt 0.848283 0.964978
vt 0.857198 0.964978
vt 0.839401 0.964978
vt 0.883995 0.964978
vt 0.893056 0.964978
vt 0.874788 0.964978
vt 0.781798 0.964978
vt 0.934685 0.964978
vt 0.901464 0.964978
vt 0.865944 0.964978
vt 0.830754 0.964978
vt 0.998308 0.957479
vt 0.952957 0.998243
vt 0.943568 0.998243
vt 0.815010 0.998243
vt 0.822553 0.998243
vt 0.807412 0.998243
vt 0.848283 0.998243
vt 0.857198 0.998243
vt 0.839401 0.998243
vt 0.883995 0.998243
vt 0.893056 0.998243
vt 0.874788 0.998243
vt 0.917799 0.998243
vt 0.926148 0.998243
vt 0.909588 0.998243
vt 0.763682 0.998243
vt 0.773022 0.998243
vt 0.781798 0.998243
vt 0.790357 0.998243
vt 0.712810 0.998243
vt 0.799045 0.998243
vt 0.934685 0.998243
vt 0.901464 0.998243
vt 0.865944 0.998243
vt 0.830754 0.998243
vt 0.952960 0.849659
vt 0.959464 0.848159
vt 0.952716 0.848079
vt 0.964846 0.844186
vt 0.946375 0.807079
vt 0.965558 0.845615
vt 0.971369 0.842083
vt 0.975512 0.836552
vt 0.904223 0.814748
vt 0.905977 0.821456
vt 0.905787 0.814463
vt 0.910148 0.826802
vt 0.908752 0.827562
vt 0.912317 0.833163
vt 0.917658 0.836920
vt 0.926663 0.845315
vt 0.932506 0.847800
vt 0.927394 0.843897
vt 0.939187 0.847853
vt 0.938911 0.849424
vt 0.945919 0.850062
vt 0.976635 0.837688
vt 0.981095 0.832560
vt 0.983269 0.825892
vt 0.984693 0.826618
vt 0.987372 0.819783
vt 0.987404 0.812469
vt 0.926166 0.768831
vt 0.921086 0.771939
vt 0.926918 0.770254
vt 0.917667 0.777097
vt 0.952818 0.764724
vt 0.945866 0.764286
vt 0.952577 0.766300
vt 0.939182 0.766442
vt 0.977232 0.777157
vt 0.971888 0.772630
vt 0.976084 0.778271
vt 0.965104 0.770279
vt 0.988732 0.799456
vt 0.987140 0.793216
vt 0.987157 0.799740
vt 0.983262 0.788090
vt 0.904318 0.799909
vt 0.903725 0.807343
vt 0.905880 0.800175
vt 0.908413 0.786848
vt 0.905840 0.793111
vt 0.909824 0.787599
vt 0.916552 0.838070
vt 0.921340 0.842096
vt 0.916558 0.775940
vt 0.912160 0.781017
vt 0.988988 0.812676
vt 0.989394 0.805922
vt 0.984687 0.787356
vt 0.981441 0.782034
vt 0.965828 0.768856
vt 0.959471 0.766234
vt 0.938904 0.764871
vt 0.932222 0.766431
s 1
usemtl VstController_250406
f 1/1/1 4/2/2 3/3/3
f 3/3/3 2/4/4 1/1/1
f 5/5/5 8/6/6 7/7/7
f 7/7/7 6/8/8 5/5/5
f 9/9/9 12/10/10 11/11/11
f 11/11/11 10/12/12 9/9/9
f 13/13/13 16/14/14 15/15/15
f 15/15/15 14/16/16 13/13/13
f 17/17/17 20/18/18 19/19/19
f 19/19/19 18/20/20 17/17/17
f 21/21/21 24/22/22 23/23/23
f 23/23/23 22/24/24 21/21/21
f 26/25/25 25/26/26 28/27/27
f 28/27/27 27/28/28 26/25/25
f 29/29/29 32/30/30 31/31/31
f 31/31/31 30/32/32 29/29/29
f 33/33/33 36/34/34 35/35/35
f 35/35/35 34/36/36 33/33/33
f 31/31/31 32/30/30 38/37/37
f 38/37/37 37/38/38 31/31/31
f 40/39/39 39/40/40 42/41/41
f 42/41/41 41/42/42 40/39/39
f 43/43/43 46/44/44 45/45/45
f 45/45/45 44/46/46 43/43/43
f 47/47/47 48/48/48 46/44/44
f 46/44/44 43/43/43 47/47/47
f 10/12/12 11/11/11 48/48/48
f 48/48/48 47/47/47 10/12/12
f 37/38/38 38/37/37 5/5/5
f 5/5/5 6/8/8 37/38/38
f 3/3/3 4/2/2 25/26/26
f 25/26/26 26/25/25 3/3/3
f 49/49/49 52/50/50 51/51/51
f 51/51/51 50/52/52 49/49/49
f 19/19/19 20/18/18 21/21/21
f 21/21/21 22/24/24 19/19/19
f 15/15/15 16/14/14 17/17/17
f 17/17/17 18/20/20 15/15/15
f 7/7/7 8/6/6 13/13/13
f 13/13/13 14/16/16 7/7/7
f 54/53/53 53/54/54 50/52/52
f 50/52/52 55/55/55 54/53/53
f 57/56/56 56/57/57 9/9/9
f 9/9/9 10/12/12 57/56/56
f 56/58/57 58/59/58 59/60/59
f 59/60/59 9/61/9 56/58/57
f 61/62/60 60/63/61 33/33/33
f 33/33/33 34/36/36 61/62/60
f 62/64/62 43/43/43 44/46/46
f 44/46/46 63/65/63 62/64/62
f 64/66/64 47/47/47 43/43/43
f 43/43/43 62/64/62 64/66/64
f 57/56/56 10/12/12 47/47/47
f 47/47/47 64/66/64 57/56/56
f 65/67/65 49/49/49 50/52/52
f 50/52/52 53/54/54 65/67/65
f 66/68/66 67/69/67 4/2/2
f 4/2/2 1/1/1 66/68/66
f 5/5/5 68/70/68 8/6/6
f 69/71/69 28/72/27 71/73/70
f 71/73/70 70/74/71 69/71/69
f 16/14/14 13/13/13 73/75/72
f 73/75/72 72/76/73 16/14/14
f 20/18/18 17/17/17 75/77/74
f 75/77/74 74/78/75 20/18/18
f 24/22/22 21/21/21 77/79/76
f 77/79/76 76/80/77 24/22/22
f 28/27/27 25/26/26 78/81/78
f 78/81/78 71/82/70 28/27/27
f 32/30/30 29/29/29 80/83/79
f 80/83/79 79/84/80 32/30/30
f 29/29/29 42/41/41 81/85/81
f 81/85/81 80/83/79 29/29/29
f 32/30/30 79/84/80 82/86/82
f 82/86/82 38/37/37 32/30/30
f 42/41/41 39/40/40 83/87/83
f 83/87/83 81/85/81 42/41/41
f 39/40/40 84/88/84 85/89/85
f 85/89/85 83/87/83 39/40/40
f 84/88/84 86/90/86 87/91/87
f 87/91/87 85/89/85 84/88/84
f 69/71/69 70/74/71 87/91/87
f 87/91/87 86/90/86 69/71/69
f 38/37/37 82/86/82 68/70/68
f 68/70/68 5/5/5 38/37/37
f 4/2/2 67/69/67 78/81/78
f 78/81/78 25/26/26 4/2/2
f 24/22/22 76/80/77 66/68/66
f 66/68/66 1/1/1 24/22/22
f 20/18/18 74/78/75 77/79/76
f 77/79/76 21/21/21 20/18/18
f 16/14/14 72/76/73 75/77/74
f 75/77/74 17/17/17 16/14/14
f 8/6/6 68/70/68 73/75/72
f 73/75/72 13/13/13 8/6/6
f 51/51/51 2/4/4 3/3/3
f 3/3/3 88/92/88 51/51/51
f 6/8/8 7/7/7 90/93/89
f 90/93/89 89/94/90 6/8/8
f 91/95/91 27/96/28 28/72/27
f 28/72/27 69/71/69 91/95/91
f 14/16/16 15/15/15 93/97/92
f 93/97/92 92/98/93 14/16/16
f 18/20/20 19/19/19 95/99/94
f 95/99/94 94/100/95 18/20/20
f 22/24/24 23/23/23 52/50/50
f 52/50/50 96/101/96 22/24/24
f 97/102/97 26/25/25 27/28/28
f 27/28/28 12/103/10 97/102/97
f 30/32/32 31/31/31 98/104/98
f 98/104/98 35/35/35 30/32/32
f 29/29/29 30/32/32 41/42/42
f 41/42/42 42/41/41 29/29/29
f 31/31/31 37/38/38 99/105/99
f 99/105/99 98/104/98 31/31/31
f 45/45/45 40/39/39 41/42/42
f 41/42/42 36/34/34 45/45/45
f 39/40/40 40/39/39 100/106/100
f 100/106/100 84/88/84 39/40/40
f 84/88/84 100/106/100 101/107/101
f 101/107/101 86/90/86 84/88/84
f 86/90/86 101/107/101 91/95/91
f 91/95/91 69/71/69 86/90/86
f 37/38/38 6/8/8 89/94/90
f 89/94/90 99/105/99 37/38/38
f 3/3/3 26/25/25 97/102/97
f 97/102/97 88/92/88 3/3/3
f 1/1/1 2/4/4 23/23/23
f 23/23/23 24/22/22 1/1/1
f 19/19/19 22/24/24 96/101/96
f 96/101/96 95/99/94 19/19/19
f 15/15/15 18/20/20 94/100/95
f 94/100/95 93/97/92 15/15/15
f 7/7/7 14/16/16 92/98/93
f 92/98/93 90/93/89 7/7/7
f 102/108/102 105/109/103 104/110/104
f 104/110/104 103/111/105 102/108/102
f 106/112/106 109/113/107 108/114/108
f 108/114/108 107/115/109 106/112/106
f 110/116/110 113/117/111 112/118/112
f 112/118/112 111/119/113 110/116/110
f 114/120/114 49/49/49 65/67/65
f 65/67/65 115/121/115 114/120/114
f 34/36/36 117/122/116 116/123/117
f 116/123/117 61/62/60 34/36/36
f 117/122/116 119/124/118 118/125/119
f 118/125/119 116/123/117 117/122/116
f 63/65/63 44/46/46 33/33/33
f 33/33/33 60/63/61 63/65/63
f 119/124/118 102/108/102 103/111/105
f 103/111/105 118/125/119 119/124/118
f 55/55/55 59/60/59 58/59/58
f 58/59/58 54/53/53 55/55/55
f 113/117/111 114/120/114 115/121/115
f 115/121/115 112/118/112 113/117/111
f 109/113/107 110/116/110 111/119/113
f 111/119/113 108/114/108 109/113/107
f 105/109/103 106/112/106 107/115/109
f 107/115/109 104/110/104 105/109/103
f 91/95/91 11/11/11 12/10/10
f 12/10/10 27/96/28 91/95/91
f 30/32/32 35/35/35 36/34/34
f 36/34/34 41/42/42 30/32/32
f 40/39/39 45/45/45 46/44/44
f 46/44/44 100/106/100 40/39/39
f 100/106/100 46/44/44 48/48/48
f 48/48/48 101/107/101 100/106/100
f 101/107/101 48/48/48 11/11/11
f 11/11/11 91/95/91 101/107/101
f 2/4/4 51/51/51 52/50/50
f 52/50/50 23/23/23 2/4/4
f 50/52/52 51/51/51 88/92/88
f 88/92/88 55/55/55 50/52/52
f 89/94/90 90/93/89 105/109/103
f 105/109/103 102/108/102 89/94/90
f 92/98/93 93/97/92 109/113/107
f 109/113/107 106/112/106 92/98/93
f 94/100/95 95/99/94 113/117/111
f 113/117/111 110/116/110 94/100/95
f 96/101/96 52/50/50 49/49/49
f 49/49/49 114/120/114 96/101/96
f 59/60/59 97/102/97 12/103/10
f 12/103/10 9/61/9 59/60/59
f 35/35/35 98/104/98 117/122/116
f 117/122/116 34/36/36 35/35/35
f 98/104/98 99/105/99 119/124/118
f 119/124/118 117/122/116 98/104/98
f 44/46/46 45/45/45 36/34/34
f 36/34/34 33/33/33 44/46/46
f 99/105/99 89/94/90 102/108/102
f 102/108/102 119/124/118 99/105/99
f 88/92/88 97/102/97 59/60/59
f 59/60/59 55/55/55 88/92/88
f 95/99/94 96/101/96 114/120/114
f 114/120/114 113/117/111 95/99/94
f 93/97/92 94/100/95 110/116/110
f 110/116/110 109/113/107 93/97/92
f 90/93/89 92/98/93 106/112/106
f 106/112/106 105/109/103 90/93/89
f 67/126/67 66/127/66 120/128/120
f 121/129/121 120/128/120 66/127/66
f 122/130/122 123/131/123 68/132/68
f 70/133/71 71/73/70 124/134/124
f 125/135/125 124/134/124 71/73/70
f 72/136/73 73/137/72 126/138/126
f 127/139/127 126/138/126 73/137/72
f 74/140/75 75/141/74 128/142/128
f 129/143/129 128/142/128 75/141/74
f 76/144/77 77/145/76 130/146/130
f 131/147/131 130/146/130 77/145/76
f 78/148/78 133/149/132 132/150/133
f 80/151/79 135/152/134 134/153/135
f 81/154/81 137/155/136 136/156/137
f 82/157/82 79/158/80 138/159/138
f 139/160/139 138/159/138 79/158/80
f 83/161/83 141/162/140 140/163/141
f 85/164/85 143/165/142 142/166/143
f 87/167/87 145/168/144 144/169/145
f 70/133/71 147/170/146 146/171/147
f 68/132/68 82/157/82 148/172/148
f 149/173/149 148/172/148 82/157/82
f 67/126/67 151/174/150 150/175/151
f 66/127/66 76/144/77 152/176/152
f 153/177/153 152/176/152 76/144/77
f 77/145/76 74/140/75 154/178/154
f 155/179/155 154/178/154 74/140/75
f 75/141/74 72/136/73 156/180/156
f 157/181/157 156/180/156 72/136/73
f 73/137/72 68/132/68 158/182/158
f 159/183/159 158/182/158 68/132/68
f 162/184/160 161/185/161 160/186/162
f 160/186/162 163/187/163 162/184/160
f 165/188/164 164/189/165 161/185/161
f 161/185/161 162/184/160 165/188/164
f 168/190/166 167/191/167 166/192/168
f 166/192/168 169/193/169 168/190/166
f 171/194/170 170/195/171 167/191/167
f 167/191/167 168/190/166 171/194/170
f 174/196/172 173/197/173 172/198/174
f 172/198/174 175/199/175 174/196/172
f 177/200/176 176/201/177 173/197/173
f 173/197/173 174/196/172 177/200/176
f 180/202/178 179/203/179 178/204/180
f 178/204/180 181/205/181 180/202/178
f 169/206/169 166/207/168 179/203/179
f 179/203/179 180/202/178 169/206/169
f 184/208/182 183/209/183 182/210/184
f 182/210/184 185/211/185 184/208/182
f 187/212/186 186/213/187 183/209/183
f 183/209/183 184/208/182 187/212/186
f 190/214/188 189/215/189 188/216/190
f 188/216/190 191/217/191 190/214/188
f 185/211/185 182/210/184 189/215/189
f 189/215/189 190/214/188 185/211/185
f 194/218/192 193/219/193 192/220/194
f 192/220/194 195/221/195 194/218/192
f 191/217/191 188/216/190 193/219/193
f 193/219/193 194/218/192 191/217/191
f 198/222/196 197/223/197 196/224/198
f 196/224/198 199/225/199 198/222/196
f 195/221/195 192/220/194 197/223/197
f 197/223/197 198/222/196 195/221/195
f 202/226/200 201/227/201 200/228/202
f 200/228/202 203/229/203 202/226/200
f 199/225/199 196/224/198 201/227/201
f 201/227/201 202/226/200 199/225/199
f 205/230/204 204/231/205 170/195/171
f 170/195/171 171/194/170 205/230/204
f 203/229/203 200/228/202 204/231/205
f 204/231/205 205/230/204 203/229/203
f 208/232/206 207/233/207 206/234/208
f 206/234/208 209/235/209 208/232/206
f 211/236/210 210/237/211 207/233/207
f 207/233/207 208/232/206 211/236/210
f 213/238/212 212/239/213 164/189/165
f 164/189/165 165/188/164 213/238/212
f 181/205/181 178/204/180 212/239/213
f 212/239/213 213/238/212 181/205/181
f 216/240/214 215/241/215 214/242/216
f 214/242/216 217/243/217 216/240/214
f 219/244/218 218/245/219 215/241/215
f 215/241/215 216/240/214 219/244/218
f 222/246/220 221/247/221 220/248/222
f 220/248/222 223/249/223 222/246/220
f 225/250/224 224/251/225 221/247/221
f 221/247/221 222/246/220 225/250/224
f 222/246/220 227/252/226 226/253/227
f 226/253/227 225/250/224 222/246/220
f 223/249/223 211/236/210 227/252/226
f 227/252/226 222/246/220 223/249/223
f 230/254/228 229/255/229 228/256/230
f 228/256/230 231/257/231 230/254/228
f 233/258/232 232/259/233 229/255/229
f 229/255/229 230/254/228 233/258/232
f 236/260/234 235/261/235 234/262/236
f 234/262/236 237/263/237 236/260/234
f 239/264/238 238/265/239 235/261/235
f 235/261/235 236/260/234 239/264/238
f 236/260/234 241/266/240 240/267/241
f 240/267/241 239/264/238 236/260/234
f 237/263/237 242/268/242 241/266/240
f 241/266/240 236/260/234 237/263/237
f 245/269/243 244/270/244 243/271/245
f 243/271/245 246/272/246 245/269/243
f 248/273/247 247/274/248 244/270/244
f 244/270/244 245/269/243 248/273/247
f 245/269/243 250/275/249 249/276/250
f 249/276/250 248/273/247 245/269/243
f 246/272/246 251/277/251 250/275/249
f 250/275/249 245/269/243 246/272/246
f 253/278/252 252/279/253 177/200/176
f 177/200/176 174/196/172 253/278/252
f 255/280/254 254/281/255 252/279/253
f 252/279/253 253/278/252 255/280/254
f 253/278/252 257/282/256 256/283/257
f 256/283/257 255/280/254 253/278/252
f 174/196/172 175/199/175 257/282/256
f 257/282/256 253/278/252 174/196/172
f 259/284/258 258/285/259 232/286/233
f 232/286/233 233/287/232 259/284/258
f 261/288/260 260/289/261 258/285/259
f 258/285/259 259/284/258 261/288/260
f 264/290/262 263/291/263 262/292/264
f 262/292/264 265/293/265 264/290/262
f 267/294/266 266/295/267 263/291/263
f 263/291/263 264/290/262 267/294/266
f 269/296/268 268/297/269 266/295/267
f 266/295/267 267/294/266 269/296/268
f 271/298/270 270/299/271 268/297/269
f 268/297/269 269/296/268 271/298/270
f 273/300/272 272/301/273 209/235/209
f 209/235/209 274/302/274 273/300/272
f 276/303/275 275/304/276 272/301/273
f 272/301/273 273/300/272 276/303/275
f 273/300/272 277/305/277 265/293/265
f 265/293/265 276/303/275 273/300/272
f 274/302/274 187/212/186 277/305/277
f 277/305/277 273/300/272 274/302/274
f 279/306/278 278/307/279 270/299/271
f 270/299/271 271/298/270 279/306/278
f 281/308/280 280/309/281 278/307/279
f 278/307/279 279/306/278 281/308/280
f 283/310/282 282/311/283 280/309/281
f 280/309/281 281/308/280 283/310/282
f 285/312/284 284/313/285 282/311/283
f 282/311/283 283/310/282 285/312/284
f 287/314/286 286/315/287 284/313/285
f 284/313/285 285/312/284 287/314/286
f 289/316/288 288/317/289 286/315/287
f 286/315/287 287/314/286 289/316/288
f 291/318/290 290/319/291 288/317/289
f 288/317/289 289/316/288 291/318/290
f 231/257/231 228/256/230 290/319/291
f 290/319/291 291/318/290 231/257/231
f 294/320/292 293/321/293 292/322/294
f 292/322/294 226/253/227 294/320/292
f 275/304/276 295/323/295 293/321/293
f 293/321/293 294/320/292 275/304/276
f 297/324/296 296/325/297 260/289/261
f 260/289/261 261/288/260 297/324/296
f 217/243/217 214/242/216 296/325/297
f 296/325/297 297/324/296 217/243/217
f 299/326/298 298/327/299 163/187/163
f 163/187/163 300/328/300 299/326/298
f 301/329/301 219/244/218 298/327/299
f 298/327/299 299/326/298 301/329/301
f 299/326/298 252/279/253 254/281/255
f 254/281/255 301/329/301 299/326/298
f 300/328/300 177/200/176 252/279/253
f 252/279/253 299/326/298 300/328/300
f 302/330/302 257/282/256 175/199/175
f 175/199/175 303/331/303 302/330/302
f 304/332/304 256/283/257 257/282/256
f 257/282/256 302/330/302 304/332/304
f 302/330/302 244/270/244 247/274/248
f 247/274/248 304/332/304 302/330/302
f 303/331/303 243/271/245 244/270/244
f 244/270/244 302/330/302 303/331/303
f 305/333/305 250/275/249 251/277/251
f 251/277/251 306/334/306 305/333/305
f 307/335/307 249/276/250 250/275/249
f 250/275/249 305/333/305 307/335/307
f 305/333/305 235/261/235 238/265/239
f 238/265/239 307/335/307 305/333/305
f 306/334/306 234/262/236 235/261/235
f 235/261/235 305/333/305 306/334/306
f 310/336/308 309/337/309 308/338/310
f 308/338/310 240/267/241 310/336/308
f 224/251/225 311/339/311 309/337/309
f 309/337/309 310/336/308 224/251/225
f 215/241/215 313/340/312 312/341/313
f 312/341/313 214/242/216 215/241/215
f 218/245/219 314/342/314 313/340/312
f 313/340/312 215/241/215 218/245/219
f 317/343/315 316/344/316 315/345/317
f 315/345/317 311/339/311 317/343/315
f 292/322/294 318/346/318 316/344/316
f 316/344/316 317/343/315 292/322/294
f 321/347/319 320/348/320 319/349/321
f 319/349/321 322/350/322 321/347/319
f 324/351/323 323/352/324 320/348/320
f 320/348/320 321/347/319 324/351/323
f 327/353/325 326/354/326 325/355/327
f 325/355/327 328/356/328 327/353/325
f 308/338/310 329/357/329 326/354/326
f 326/354/326 327/353/325 308/338/310
f 332/358/330 331/359/331 330/360/332
f 330/360/332 333/361/333 332/358/330
f 335/362/334 334/363/335 331/359/331
f 331/359/331 332/358/330 335/362/334
f 338/364/336 337/365/337 336/366/338
f 336/366/338 339/367/339 338/364/336
f 341/368/340 340/369/341 337/365/337
f 337/365/337 338/364/336 341/368/340
f 343/370/342 342/371/343 323/372/324
f 323/372/324 324/373/323 343/370/342
f 345/374/344 344/375/345 342/371/343
f 342/371/343 343/370/342 345/374/344
f 263/291/263 347/376/346 346/377/347
f 346/377/347 262/292/264 263/291/263
f 266/295/267 348/378/348 347/376/346
f 347/376/346 263/291/263 266/295/267
f 351/379/349 350/380/350 349/381/351
f 349/381/351 348/378/348 351/379/349
f 353/382/352 352/383/353 350/380/350
f 350/380/350 351/379/349 353/382/352
f 356/384/354 355/385/355 354/386/356
f 354/386/356 295/323/295 356/384/354
f 262/292/264 346/377/347 355/385/355
f 355/385/355 356/384/354 262/292/264
f 358/387/357 357/388/358 352/383/353
f 352/383/353 353/382/352 358/387/357
f 360/389/359 359/390/360 357/388/358
f 357/388/358 358/387/357 360/389/359
f 282/311/283 361/391/361 360/389/359
f 360/389/359 280/309/281 282/311/283
f 284/313/285 362/392/362 361/391/361
f 361/391/361 282/311/283 284/313/285
f 365/393/363 364/394/364 363/395/365
f 363/395/365 362/392/362 365/393/363
f 367/396/366 366/397/367 364/394/364
f 364/394/364 365/393/363 367/396/366
f 369/398/368 368/399/369 366/397/367
f 366/397/367 367/396/366 369/398/368
f 322/350/322 319/349/321 368/399/369
f 368/399/369 369/398/368 322/350/322
f 293/321/293 370/400/370 318/346/318
f 318/346/318 292/322/294 293/321/293
f 295/323/295 354/386/356 370/400/370
f 370/400/370 293/321/293 295/323/295
f 372/401/371 371/402/372 344/375/345
f 344/375/345 345/374/344 372/401/371
f 312/341/313 373/403/373 371/402/372
f 371/402/372 372/401/371 312/341/313
f 375/404/374 374/405/375 314/342/314
f 314/342/314 218/245/219 375/404/374
f 339/367/339 336/366/338 374/405/375
f 374/405/375 375/404/374 339/367/339
f 377/406/376 376/407/377 340/369/341
f 340/369/341 341/368/340 377/406/376
f 333/361/333 330/360/332 376/407/377
f 376/407/377 377/406/376 333/361/333
f 379/408/378 378/409/379 334/363/335
f 334/363/335 335/362/334 379/408/378
f 328/356/328 325/355/327 378/409/379
f 378/409/379 379/408/378 328/356/328
f 309/337/309 380/410/380 329/357/329
f 329/357/329 308/338/310 309/337/309
f 311/339/311 315/345/317 380/410/380
f 380/410/380 309/337/309 311/339/311
f 381/411/381 298/327/299 219/244/218
f 219/244/218 216/240/214 381/411/381
f 162/184/160 163/187/163 298/327/299
f 298/327/299 381/411/381 162/184/160
f 381/411/381 382/412/382 165/188/164
f 165/188/164 162/184/160 381/411/381
f 216/240/214 217/243/217 382/412/382
f 382/412/382 381/411/381 216/240/214
f 317/343/315 311/339/311 224/251/225
f 224/251/225 225/250/224 317/343/315
f 225/250/224 226/253/227 292/322/294
f 292/322/294 317/343/315 225/250/224
f 384/413/383 383/414/384 233/258/232
f 233/258/232 230/254/228 384/413/383
f 168/190/166 169/193/169 383/414/384
f 383/414/384 384/413/383 168/190/166
f 384/413/383 385/415/385 171/194/170
f 171/194/170 168/190/166 384/413/383
f 230/254/228 231/257/231 385/415/385
f 385/415/385 384/413/383 230/254/228
f 327/353/325 328/356/328 238/265/239
f 238/265/239 239/264/238 327/353/325
f 239/264/238 240/267/241 308/338/310
f 308/338/310 327/353/325 239/264/238
f 332/358/330 333/361/333 247/274/248
f 247/274/248 248/273/247 332/358/330
f 248/273/247 249/276/250 335/362/334
f 335/362/334 332/358/330 248/273/247
f 338/364/336 339/367/339 254/281/255
f 254/281/255 255/280/254 338/364/336
f 255/280/254 256/283/257 341/368/340
f 341/368/340 338/364/336 255/280/254
f 387/416/386 386/417/387 261/288/260
f 261/288/260 259/284/258 387/416/386
f 180/202/178 181/205/181 386/417/387
f 386/417/387 387/416/386 180/202/178
f 387/416/386 383/418/384 169/206/169
f 169/206/169 180/202/178 387/416/386
f 259/284/258 233/287/232 383/418/384
f 383/418/384 387/416/386 259/284/258
f 389/419/388 388/420/389 267/294/266
f 267/294/266 264/290/262 389/419/388
f 184/208/182 185/211/185 388/420/389
f 388/420/389 389/419/388 184/208/182
f 389/419/388 277/305/277 187/212/186
f 187/212/186 184/208/182 389/419/388
f 264/290/262 265/293/265 277/305/277
f 277/305/277 389/419/388 264/290/262
f 391/421/390 390/422/391 271/298/270
f 271/298/270 269/296/268 391/421/390
f 190/214/188 191/217/191 390/422/391
f 390/422/391 391/421/390 190/214/188
f 391/421/390 388/420/389 185/211/185
f 185/211/185 190/214/188 391/421/390
f 269/296/268 267/294/266 388/420/389
f 388/420/389 391/421/390 269/296/268
f 356/384/354 295/323/295 275/304/276
f 275/304/276 276/303/275 356/384/354
f 276/303/275 265/293/265 262/292/264
f 262/292/264 356/384/354 276/303/275
f 393/423/392 392/424/393 281/308/280
f 281/308/280 279/306/278 393/423/392
f 194/218/192 195/221/195 392/424/393
f 392/424/393 393/423/392 194/218/192
f 393/423/392 390/422/391 191/217/191
f 191/217/191 194/218/192 393/423/392
f 279/306/278 271/298/270 390/422/391
f 390/422/391 393/423/392 279/306/278
f 395/425/394 394/426/395 285/312/284
f 285/312/284 283/310/282 395/425/394
f 198/222/196 199/225/199 394/426/395
f 394/426/395 395/425/394 198/222/196
f 395/425/394 392/424/393 195/221/195
f 195/221/195 198/222/196 395/425/394
f 283/310/282 281/308/280 392/424/393
f 392/424/393 395/425/394 283/310/282
f 397/427/396 396/428/397 289/316/288
f 289/316/288 287/314/286 397/427/396
f 202/226/200 203/229/203 396/428/397
f 396/428/397 397/427/396 202/226/200
f 397/427/396 394/426/395 199/225/199
f 199/225/199 202/226/200 397/427/396
f 287/314/286 285/312/284 394/426/395
f 394/426/395 397/427/396 287/314/286
f 398/429/398 385/415/385 231/257/231
f 231/257/231 291/318/290 398/429/398
f 205/230/204 171/194/170 385/415/385
f 385/415/385 398/429/398 205/230/204
f 398/429/398 396/428/397 203/229/203
f 203/229/203 205/230/204 398/429/398
f 291/318/290 289/316/288 396/428/397
f 396/428/397 398/429/398 291/318/290
f 399/430/399 272/301/273 275/304/276
f 275/304/276 294/320/292 399/430/399
f 208/232/206 209/235/209 272/301/273
f 272/301/273 399/430/399 208/232/206
f 399/430/399 227/252/226 211/236/210
f 211/236/210 208/232/206 399/430/399
f 294/320/292 226/253/227 227/252/226
f 227/252/226 399/430/399 294/320/292
f 400/431/400 382/412/382 217/243/217
f 217/243/217 297/324/296 400/431/400
f 213/238/212 165/188/164 382/412/382
f 382/412/382 400/431/400 213/238/212
f 400/431/400 386/417/387 181/205/181
f 181/205/181 213/238/212 400/431/400
f 297/324/296 261/288/260 386/417/387
f 386/417/387 400/431/400 297/324/296
f 375/404/374 218/245/219 219/244/218
f 219/244/218 301/329/301 375/404/374
f 301/329/301 254/281/255 339/367/339
f 339/367/339 375/404/374 301/329/301
f 377/406/376 341/368/340 256/283/257
f 256/283/257 304/332/304 377/406/376
f 304/332/304 247/274/248 333/361/333
f 333/361/333 377/406/376 304/332/304
f 379/408/378 335/362/334 249/276/250
f 249/276/250 307/335/307 379/408/378
f 307/335/307 238/265/239 328/356/328
f 328/356/328 379/408/378 307/335/307
f 401/432/401 221/247/221 224/251/225
f 224/251/225 310/336/308 401/432/401
f 402/433/402 220/248/222 221/247/221
f 221/247/221 401/432/401 402/433/402
f 401/432/401 241/266/240 242/268/242
f 242/268/242 402/433/402 401/432/401
f 310/336/308 240/267/241 241/266/240
f 241/266/240 401/432/401 310/336/308
f 404/434/403 403/435/404 159/183/159
f 159/183/159 123/131/123 404/434/403
f 123/131/123 122/130/122 210/237/211
f 210/237/211 404/434/403 123/131/123
f 406/436/405 405/437/406 157/181/157
f 157/181/157 126/138/126 406/436/405
f 126/138/126 127/139/127 407/438/407
f 407/438/407 406/436/405 126/138/126
f 409/439/408 408/440/409 155/179/155
f 155/179/155 128/142/128 409/439/408
f 128/142/128 129/143/129 410/441/410
f 410/441/410 409/439/408 128/142/128
f 411/442/411 206/234/208 149/173/149
f 149/173/149 138/159/138 411/442/411
f 138/159/138 139/160/139 186/213/187
f 186/213/187 411/442/411 138/159/138
f 412/443/412 160/186/162 121/129/121
f 121/129/121 152/176/152 412/443/412
f 152/176/152 153/177/153 176/201/177
f 176/201/177 412/443/412 152/176/152
f 413/444/413 172/198/174 131/147/131
f 131/147/131 154/178/154 413/444/413
f 154/178/154 155/179/155 408/440/409
f 408/440/409 413/444/413 154/178/154
f 414/445/414 410/441/410 129/143/129
f 129/143/129 156/180/156 414/445/414
f 156/180/156 157/181/157 405/437/406
f 405/437/406 414/445/414 156/180/156
f 415/446/415 407/438/407 127/139/127
f 127/139/127 158/182/158 415/446/415
f 158/182/158 159/183/159 403/435/404
f 403/435/404 415/446/415 158/182/158
f 120/128/120 121/129/121 160/186/162
f 160/186/162 161/185/161 120/128/120
f 161/185/161 164/189/165 151/174/150
f 151/174/150 120/128/120 161/185/161
f 124/134/124 125/135/125 166/192/168
f 166/192/168 167/191/167 124/134/124
f 167/191/167 170/195/171 147/170/146
f 147/170/146 124/134/124 167/191/167
f 130/146/130 131/147/131 172/198/174
f 172/198/174 173/197/173 130/146/130
f 173/197/173 176/201/177 153/177/153
f 153/177/153 130/146/130 173/197/173
f 132/150/133 133/149/132 178/204/180
f 178/204/180 179/203/179 132/150/133
f 179/203/179 166/207/168 125/447/125
f 125/447/125 132/150/133 179/203/179
f 134/153/135 135/152/134 182/210/184
f 182/210/184 183/209/183 134/153/135
f 183/209/183 186/213/187 139/160/139
f 139/160/139 134/153/135 183/209/183
f 136/156/137 137/155/136 188/216/190
f 188/216/190 189/215/189 136/156/137
f 189/215/189 182/210/184 135/152/134
f 135/152/134 136/156/137 189/215/189
f 140/163/141 141/162/140 192/220/194
f 192/220/194 193/219/193 140/163/141
f 193/219/193 188/216/190 137/155/136
f 137/155/136 140/163/141 193/219/193
f 142/166/143 143/165/142 196/224/198
f 196/224/198 197/223/197 142/166/143
f 197/223/197 192/220/194 141/162/140
f 141/162/140 142/166/143 197/223/197
f 144/169/145 145/168/144 200/228/202
f 200/228/202 201/227/201 144/169/145
f 201/227/201 196/224/198 143/165/142
f 143/165/142 144/169/145 201/227/201
f 146/171/147 147/170/146 170/195/171
f 170/195/171 204/231/205 146/171/147
f 204/231/205 200/228/202 145/168/144
f 145/168/144 146/171/147 204/231/205
f 148/172/148 149/173/149 206/234/208
f 206/234/208 207/233/207 148/172/148
f 207/233/207 210/237/211 122/130/122
f 122/130/122 148/172/148 207/233/207
f 150/175/151 151/174/150 164/189/165
f 164/189/165 212/239/213 150/175/151
f 212/239/213 178/204/180 133/149/132
f 133/149/132 150/175/151 212/239/213
f 223/249/223 220/248/222 403/435/404
f 403/435/404 404/434/403 223/249/223
f 404/434/403 210/237/211 211/236/210
f 211/236/210 223/249/223 404/434/403
f 237/263/237 234/262/236 405/437/406
f 405/437/406 406/436/405 237/263/237
f 406/436/405 407/438/407 242/268/242
f 242/268/242 237/263/237 406/436/405
f 246/272/246 243/271/245 408/440/409
f 408/440/409 409/439/408 246/272/246
f 409/439/408 410/441/410 251/277/251
f 251/277/251 246/272/246 409/439/408
f 274/302/274 209/235/209 206/234/208
f 206/234/208 411/442/411 274/302/274
f 411/442/411 186/213/187 187/212/186
f 187/212/186 274/302/274 411/442/411
f 300/328/300 163/187/163 160/186/162
f 160/186/162 412/443/412 300/328/300
f 412/443/412 176/201/177 177/200/176
f 177/200/176 300/328/300 412/443/412
f 303/331/303 175/199/175 172/198/174
f 172/198/174 413/444/413 303/331/303
f 413/444/413 408/440/409 243/271/245
f 243/271/245 303/331/303 413/444/413
f 306/334/306 251/277/251 410/441/410
f 410/441/410 414/445/414 306/334/306
f 414/445/414 405/437/406 234/262/236
f 234/262/236 306/334/306 414/445/414
f 402/433/402 242/268/242 407/438/407
f 407/438/407 415/446/415 402/433/402
f 415/446/415 403/435/404 220/248/222
f 220/248/222 402/433/402 415/446/415
f 416/448/416 373/403/373 312/341/313
f 312/341/313 313/340/312 416/448/416
f 313/340/312 314/342/314 417/449/417
f 417/449/417 416/448/416 313/340/312
f 419/450/418 418/451/419 315/345/317
f 315/345/317 316/344/316 419/450/418
f 316/344/316 318/346/318 420/452/420
f 420/452/420 419/450/418 316/344/316
f 229/255/229 232/259/233 324/351/323
f 324/351/323 321/347/319 229/255/229
f 321/347/319 322/350/322 228/256/230
f 228/256/230 229/255/229 321/347/319
f 422/453/421 421/454/422 325/355/327
f 325/355/327 326/354/326 422/453/421
f 326/354/326 329/357/329 423/455/423
f 423/455/423 422/453/421 326/354/326
f 425/456/424 424/457/425 330/360/332
f 330/360/332 331/359/331 425/456/424
f 331/359/331 334/363/335 426/458/426
f 426/458/426 425/456/424 331/359/331
f 428/459/427 427/460/428 336/366/338
f 336/366/338 337/365/337 428/459/427
f 337/365/337 340/369/341 429/461/429
f 429/461/429 428/459/427 337/365/337
f 258/285/259 260/289/261 345/374/344
f 345/374/344 343/370/342 258/285/259
f 343/370/342 324/373/323 232/286/233
f 232/286/233 258/285/259 343/370/342
f 431/462/430 430/463/431 346/377/347
f 346/377/347 347/376/346 431/462/430
f 347/376/346 348/378/348 349/381/351
f 349/381/351 431/462/430 347/376/346
f 268/297/269 270/299/271 353/382/352
f 353/382/352 351/379/349 268/297/269
f 351/379/349 348/378/348 266/295/267
f 266/295/267 268/297/269 351/379/349
f 433/464/432 432/465/433 354/386/356
f 354/386/356 355/385/355 433/464/432
f 355/385/355 346/377/347 430/463/431
f 430/463/431 433/464/432 355/385/355
f 278/307/279 280/309/281 360/389/359
f 360/389/359 358/387/357 278/307/279
f 358/387/357 353/382/352 270/299/271
f 270/299/271 278/307/279 358/387/357
f 434/466/434 359/390/360 360/389/359
f 360/389/359 361/391/361 434/466/434
f 361/391/361 362/392/362 363/395/365
f 363/395/365 434/466/434 361/391/361
f 286/315/287 288/317/289 367/396/366
f 367/396/366 365/393/363 286/315/287
f 365/393/363 362/392/362 284/313/285
f 284/313/285 286/315/287 365/393/363
f 290/319/291 228/256/230 322/350/322
f 322/350/322 369/398/368 290/319/291
f 369/398/368 367/396/366 288/317/289
f 288/317/289 290/319/291 369/398/368
f 435/467/435 420/452/420 318/346/318
f 318/346/318 370/400/370 435/467/435
f 370/400/370 354/386/356 432/465/433
f 432/465/433 435/467/435 370/400/370
f 296/325/297 214/242/216 312/341/313
f 312/341/313 372/401/371 296/325/297
f 372/401/371 345/374/344 260/289/261
f 260/289/261 296/325/297 372/401/371
f 436/468/436 417/449/417 314/342/314
f 314/342/314 374/405/375 436/468/436
f 374/405/375 336/366/338 427/460/428
f 427/460/428 436/468/436 374/405/375
f 437/469/437 429/461/429 340/369/341
f 340/369/341 376/407/377 437/469/437
f 376/407/377 330/360/332 424/457/425
f 424/457/425 437/469/437 376/407/377
f 438/470/438 426/458/426 334/363/335
f 334/363/335 378/409/379 438/470/438
f 378/409/379 325/355/327 421/454/422
f 421/454/422 438/470/438 378/409/379
f 439/471/439 423/455/423 329/357/329
f 329/357/329 380/410/380 439/471/439
f 380/410/380 315/345/317 418/451/419
f 418/451/419 439/471/439 380/410/380
f 73/137/72 158/182/158 127/139/127
f 72/136/73 126/138/126 157/181/157
f 74/140/75 128/142/128 155/179/155
f 77/145/76 154/178/154 131/147/131
f 75/141/74 156/180/156 129/143/129
f 67/126/67 120/128/120 151/174/150
f 76/144/77 130/146/130 153/177/153
f 66/127/66 152/176/152 121/129/121
f 70/133/71 124/134/124 147/170/146
f 78/148/78 132/150/133 71/82/70
f 71/82/70 132/150/133 125/447/125
f 67/126/67 150/175/151 78/148/78
f 78/148/78 150/175/151 133/149/132
f 87/167/87 144/169/145 85/164/85
f 85/164/85 144/169/145 143/165/142
f 70/133/71 146/171/147 87/167/87
f 87/167/87 146/171/147 145/168/144
f 80/151/79 134/153/135 79/158/80
f 79/158/80 134/153/135 139/160/139
f 81/154/81 136/156/137 80/151/79
f 80/151/79 136/156/137 135/152/134
f 82/157/82 138/159/138 149/173/149
f 83/161/83 140/163/141 81/154/81
f 81/154/81 140/163/141 137/155/136
f 85/164/85 142/166/143 83/161/83
f 83/161/83 142/166/143 141/162/140
f 68/132/68 123/131/123 159/183/159
f 68/132/68 148/172/148 122/130/122
f 319/472/321 320/473/320 440/474/440
f 440/474/440 442/475/441 441/476/442
f 323/477/324 342/478/343 442/475/441
f 442/475/441 443/479/443 441/476/442
f 349/480/351 350/481/350 444/482/444
f 444/482/444 445/483/445 441/476/442
f 352/484/353 357/485/358 445/483/445
f 445/483/445 446/486/446 441/476/442
f 363/487/365 364/488/364 447/489/447
f 447/489/447 448/490/448 441/476/442
f 366/491/367 368/492/369 448/490/448
f 448/490/448 440/474/440 441/476/442
f 344/493/345 371/494/372 443/479/443
f 443/479/443 449/495/449 441/476/442
f 373/496/373 416/497/416 449/495/449
f 449/495/449 450/498/450 441/476/442
f 418/499/419 419/500/418 451/501/451
f 451/501/451 452/502/452 441/476/442
f 421/503/422 422/504/421 453/505/453
f 453/505/453 454/506/454 441/476/442
f 424/507/425 425/508/424 455/509/455
f 455/509/455 456/510/456 441/476/442
f 427/511/428 428/512/427 457/513/457
f 457/513/457 458/514/458 441/476/442
f 430/515/431 431/516/430 459/517/459
f 459/517/459 444/482/444 441/476/442
f 432/518/433 433/519/432 460/520/460
f 460/520/460 459/517/459 441/476/442
f 359/521/360 434/522/434 446/486/446
f 446/486/446 447/489/447 441/476/442
f 420/523/420 435/524/435 452/502/452
f 452/502/452 460/520/460 441/476/442
f 417/525/417 436/526/436 450/498/450
f 450/498/450 457/513/457 441/476/442
f 429/527/429 437/528/437 458/514/458
f 458/514/458 455/509/455 441/476/442
f 426/529/426 438/530/438 456/510/456
f 456/510/456 453/505/453 441/476/442
f 423/531/423 439/532/439 454/506/454
f 454/506/454 451/501/451 441/476/442
f 440/474/440 320/473/320 442/475/441
f 442/475/441 320/473/320 323/477/324
f 442/475/441 342/478/343 443/479/443
f 443/479/443 342/478/343 344/493/345
f 444/482/444 350/481/350 445/483/445
f 445/483/445 350/481/350 352/484/353
f 445/483/445 357/485/358 446/486/446
f 446/486/446 357/485/358 359/521/360
f 447/489/447 364/488/364 448/490/448
f 448/490/448 364/488/364 366/491/367
f 448/490/448 368/492/369 440/474/440
f 440/474/440 368/492/369 319/472/321
f 443/479/443 371/494/372 449/495/449
f 449/495/449 371/494/372 373/496/373
f 449/495/449 416/497/416 450/498/450
f 450/498/450 416/497/416 417/525/417
f 451/501/451 419/500/418 452/502/452
f 452/502/452 419/500/418 420/523/420
f 453/505/453 422/504/421 454/506/454
f 454/506/454 422/504/421 423/531/423
f 455/509/455 425/508/424 456/510/456
f 456/510/456 425/508/424 426/529/426
f 457/513/457 428/512/427 458/514/458
f 458/514/458 428/512/427 429/527/429
f 459/517/459 431/516/430 444/482/444
f 444/482/444 431/516/430 349/480/351
f 460/520/460 433/519/432 459/517/459
f 459/517/459 433/519/432 430/515/431
f 446/486/446 434/522/434 447/489/447
f 447/489/447 434/522/434 363/487/365
f 452/502/452 435/524/435 460/520/460
f 460/520/460 435/524/435 432/518/433
f 450/498/450 436/526/436 457/513/457
f 457/513/457 436/526/436 427/511/428
f 458/514/458 437/528/437 455/509/455
f 455/509/455 437/528/437 424/507/425
f 456/510/456 438/530/438 453/505/453
f 453/505/453 438/530/438 421/503/422
f 454/506/454 439/532/439 451/501/451
f 451/501/451 439/532/439 418/499/419
