# Blender 4.3.0
# www.blender.org
mtllib L_trigger.mtl
o L_trigger
v 0.007053 -0.032374 0.035805
v 0.003499 -0.032076 0.036247
v 0.003779 -0.032420 0.036787
v 0.007023 -0.032680 0.036407
v -0.005992 -0.030176 0.046927
v -0.006268 -0.030885 0.049816
v -0.005708 -0.031694 0.049445
v -0.005414 -0.030940 0.046742
v 0.010397 -0.032598 0.037000
v 0.010721 -0.032246 0.036492
v 0.019109 -0.033056 0.049117
v 0.018940 -0.032123 0.046540
v 0.018386 -0.032870 0.046373
v 0.018604 -0.033805 0.048719
v 0.018291 -0.031523 0.043926
v 0.016632 -0.031722 0.040999
v 0.015917 -0.032233 0.041056
v 0.017766 -0.032231 0.043855
v -0.002888 -0.030674 0.040329
v -0.004794 -0.030170 0.043172
v -0.004209 -0.030811 0.043162
v -0.002198 -0.031246 0.040424
v 0.014005 -0.031933 0.038265
v 0.013436 -0.032375 0.038556
v 0.000234 -0.031490 0.037707
v 0.000773 -0.031931 0.038058
v -0.005994 -0.032136 0.052152
v -0.005493 -0.032887 0.051594
v 0.018431 -0.035235 0.052079
v 0.017955 -0.035834 0.051498
v -0.005187 -0.033846 0.054030
v -0.003273 -0.036736 0.055876
v -0.002899 -0.037441 0.055162
v -0.004799 -0.034530 0.053394
v 0.017107 -0.037341 0.054065
v 0.016737 -0.037886 0.053421
v 0.011445 -0.042513 0.056594
v 0.014910 -0.039939 0.055513
v 0.014404 -0.040343 0.054876
v 0.011078 -0.042640 0.055942
v 0.005548 -0.043803 0.057084
v 0.005607 -0.043790 0.056405
v 0.002810 -0.042923 0.056293
v 0.002579 -0.042801 0.056982
v 0.000028 -0.040878 0.056685
v 0.000370 -0.041226 0.055984
v 0.006993 -0.032827 0.037177
v 0.006632 -0.034663 0.043770
v 0.011136 -0.034594 0.044293
v 0.010162 -0.032784 0.037722
v 0.010813 -0.042284 0.055318
v 0.010574 -0.038036 0.050412
v 0.008318 -0.043158 0.055713
v 0.015753 -0.033670 0.045388
v 0.015377 -0.032545 0.041511
v 0.013008 -0.032634 0.039160
v 0.017620 -0.033250 0.046274
v 0.017016 -0.032664 0.043999
v 0.015773 -0.034938 0.048162
v 0.010875 -0.036101 0.047505
v 0.017836 -0.034183 0.048490
v 0.015340 -0.036916 0.051019
v 0.017223 -0.036091 0.051124
v 0.014015 -0.040156 0.054247
v 0.016077 -0.037983 0.052859
v -0.002502 -0.037478 0.054412
v -0.002440 -0.035145 0.050646
v -0.004790 -0.033373 0.051210
v -0.004159 -0.034884 0.052805
v 0.006482 -0.036206 0.047271
v 0.002248 -0.033990 0.044390
v 0.002176 -0.035339 0.047575
v 0.003950 -0.032590 0.037529
v 0.006281 -0.038281 0.050371
v 0.002111 -0.037192 0.050384
v -0.002288 -0.032744 0.045730
v -0.002416 -0.033777 0.048393
v -0.004678 -0.031448 0.046686
v -0.004963 -0.032222 0.049216
v 0.000699 -0.040999 0.055305
v 0.003043 -0.042546 0.055660
v 0.001126 -0.032171 0.038712
v -0.001720 -0.031593 0.040942
v -0.003505 -0.031293 0.043386
v 0.008596 -0.043597 0.056999
v 0.008427 -0.043600 0.056327
v 0.005681 -0.043330 0.055793
v 0.006841 -0.022063 0.039152
v 0.003285 -0.022169 0.039532
v 0.018499 -0.024806 0.045782
v 0.016474 -0.023742 0.043108
v -0.002944 -0.023367 0.042763
v -0.005085 -0.024337 0.045338
v 0.013694 -0.022864 0.040983
v 0.019615 -0.025940 0.048743
v -0.006394 -0.025570 0.048480
v 0.019362 -0.028402 0.055137
v 0.019925 -0.027116 0.051831
v 0.017987 -0.029494 0.058027
v 0.012823 -0.031192 0.062522
v 0.015795 -0.030449 0.060548
v -0.006791 -0.026732 0.051589
v -0.006429 -0.027857 0.054565
v 0.002777 -0.031455 0.063514
v 0.006185 -0.031682 0.063996
v 0.010401 -0.022296 0.039642
v 0.009621 -0.031590 0.063654
v -0.000322 -0.030936 0.062263
v -0.000031 -0.022604 0.040751
v -0.005315 -0.028928 0.057359
v -0.003251 -0.030033 0.060083
vn -0.2120 0.2469 -0.9456
vn 0.0412 0.2534 -0.9665
vn -0.0219 -0.9431 -0.3318
vn -0.1861 -0.9271 -0.3254
vn -0.9848 -0.1566 -0.0747
vn -0.9662 -0.0530 -0.2522
vn -0.7113 -0.6578 -0.2475
vn -0.7613 -0.5980 -0.2507
vn 0.2955 0.2447 -0.9235
vn 0.1539 -0.9221 -0.3551
vn 0.9765 -0.0710 -0.2034
vn 0.9851 -0.1721 -0.0052
vn 0.7325 -0.6176 -0.2863
vn 0.6651 -0.6666 -0.3366
vn 0.7636 0.1299 -0.6325
vn 0.9085 0.0521 -0.4146
vn 0.6299 -0.6959 -0.3449
vn 0.4258 -0.8355 -0.3472
vn -0.8767 0.0632 -0.4768
vn -0.6791 0.1589 -0.7166
vn -0.4983 -0.8129 -0.3014
vn -0.6155 -0.7317 -0.2930
vn 0.3228 -0.8766 -0.3570
vn 0.5594 0.2017 -0.8040
vn -0.4631 0.2110 -0.8608
vn -0.3481 -0.8842 -0.3114
vn -0.9665 -0.2227 0.1279
vn -0.7921 -0.5698 -0.2188
vn 0.9442 -0.2623 0.1993
vn 0.7131 -0.6482 -0.2669
vn -0.7236 -0.3857 0.5724
vn -0.8899 -0.2890 0.3530
vn -0.8058 -0.5761 -0.1369
vn -0.7689 -0.6378 -0.0447
vn 0.8260 -0.3516 0.4406
vn 0.7025 -0.6844 -0.1954
vn 0.6310 -0.4481 0.6333
vn 0.4260 -0.5052 0.7505
vn 0.3901 -0.8634 -0.3200
vn 0.5482 -0.8070 -0.2197
vn -0.0665 -0.5296 0.8456
vn -0.2877 -0.5051 0.8137
vn -0.3883 -0.8782 -0.2792
vn -0.0997 -0.9412 -0.3227
vn -0.6463 -0.7245 -0.2395
vn -0.5415 -0.4628 0.7018
vn -0.0630 -0.9481 -0.3115
vn -0.0216 -0.9655 -0.2596
vn 0.0950 -0.9591 -0.2665
vn 0.1494 -0.9323 -0.3294
vn 0.2160 -0.7418 -0.6348
vn 0.0717 -0.7421 -0.6664
vn 0.1511 -0.7734 -0.6156
vn 0.2314 -0.9355 -0.2671
vn 0.2825 -0.9207 -0.2692
vn 0.2879 -0.8926 -0.3470
vn 0.3922 -0.8697 -0.2997
vn 0.3934 -0.8429 -0.3670
vn 0.2963 -0.8369 -0.4603
vn 0.1621 -0.8645 -0.4758
vn 0.4129 -0.8020 -0.4316
vn 0.2867 -0.7734 -0.5654
vn 0.4115 -0.7684 -0.4902
vn 0.2878 -0.7354 -0.6135
vn 0.4189 -0.7338 -0.5348
vn -0.5131 -0.6823 -0.5207
vn -0.6787 -0.6487 -0.3443
vn -0.6130 -0.6852 -0.3934
vn -0.4663 -0.7483 -0.4718
vn -0.0755 -0.8739 -0.4802
vn -0.2876 -0.8444 -0.4519
vn -0.2618 -0.9179 -0.2983
vn -0.1670 -0.9540 -0.2490
vn -0.0733 -0.7592 -0.6467
vn -0.3114 -0.7392 -0.5972
vn -0.4225 -0.8561 -0.2976
vn -0.4447 -0.8025 -0.3978
vn -0.5516 -0.7875 -0.2749
vn -0.5809 -0.7442 -0.3299
vn -0.4476 -0.6558 -0.6079
vn -0.2375 -0.7117 -0.6611
vn -0.3730 -0.8976 -0.2349
vn -0.2923 -0.9279 -0.2316
vn -0.4522 -0.8663 -0.2121
vn 0.1682 -0.5277 0.8326
vn 0.1569 -0.9338 -0.3217
vn -0.0775 -0.7334 -0.6753
vn 0.0218 0.3094 -0.9507
vn -0.2326 0.3039 -0.9239
vn 0.7243 0.1799 -0.6655
vn 0.8830 0.0845 -0.4616
vn -0.6878 0.2217 -0.6912
vn -0.8725 0.1202 -0.4736
vn 0.5216 0.2510 -0.8154
vn 0.9708 -0.0267 -0.2385
vn -0.9642 -0.0020 -0.2652
vn 0.9494 -0.2271 0.2169
vn 0.9911 -0.1330 -0.0072
vn 0.8363 -0.3196 0.4455
vn 0.4588 -0.4521 0.7649
vn 0.6639 -0.3980 0.6331
vn -0.9939 -0.1010 -0.0437
vn -0.9630 -0.1998 0.1809
vn -0.0268 -0.4936 0.8693
vn -0.2665 -0.4801 0.8358
vn 0.2735 0.2939 -0.9159
vn 0.2182 -0.4833 0.8478
vn -0.5129 -0.4379 0.7384
vn -0.4760 0.2741 -0.8356
vn -0.8648 -0.3032 0.4003
vn -0.7142 -0.3782 0.5890
vt 0.597100 0.165408
vt 0.615565 0.152247
vt 0.612531 0.148971
vt 0.595842 0.160960
vt 0.488722 0.157532
vt 0.504132 0.168795
vt 0.508246 0.163846
vt 0.493816 0.152814
vt 0.631714 0.133145
vt 0.627363 0.131604
vt 0.638206 0.047571
vt 0.628611 0.032727
vt 0.623731 0.037060
vt 0.632813 0.050717
vt 0.645634 0.085911
vt 0.645147 0.063995
vt 0.639869 0.066505
vt 0.640334 0.088338
vt 0.527786 0.177734
vt 0.549981 0.178890
vt 0.552710 0.173679
vt 0.530774 0.172888
vt 0.636904 0.111123
vt 0.642009 0.110496
vt 0.576030 0.174262
vt 0.576790 0.169226
vt 0.478418 0.143889
vt 0.484290 0.140044
vt 0.609371 0.018239
vt 0.605714 0.023418
vt 0.471043 0.102173
vt 0.472302 0.127733
vt 0.478297 0.124777
vt 0.477584 0.099460
vt 0.590364 0.010442
vt 0.587517 0.015807
vt 0.566463 0.008463
vt 0.538057 0.012365
vt 0.537667 0.017335
vt 0.564107 0.013937
vt 0.503212 0.030920
vt 0.489270 0.048221
vt 0.494009 0.049479
vt 0.506279 0.034232
vt 0.485907 0.067459
vt 0.480337 0.068325
vt 0.577941 0.111618
vt 0.609009 0.145167
vt 0.623001 0.128832
vt 0.598815 0.089736
vt 0.539291 0.022129
vt 0.523487 0.028320
vt 0.565664 0.056290
vt 0.631930 0.109667
vt 0.635239 0.088008
vt 0.620593 0.065854
vt 0.634423 0.068537
vt 0.628182 0.054052
vt 0.607930 0.050363
vt 0.582258 0.072710
vt 0.619386 0.041018
vt 0.590776 0.035182
vt 0.602322 0.028006
vt 0.564523 0.018963
vt 0.585556 0.021217
vt 0.483194 0.099931
vt 0.484077 0.122563
vt 0.489391 0.136471
vt 0.502568 0.121591
vt 0.560454 0.092735
vt 0.538571 0.112901
vt 0.554199 0.129824
vt 0.593272 0.156488
vt 0.543377 0.074293
vt 0.523988 0.095761
vt 0.527269 0.148101
vt 0.513832 0.134845
vt 0.511852 0.159115
vt 0.498312 0.148489
vt 0.490801 0.069197
vt 0.498382 0.052178
vt 0.552374 0.168473
vt 0.575315 0.164281
vt 0.532846 0.167490
vt 0.519353 0.019638
vt 0.520912 0.023980
vt 0.509722 0.037951
vt 0.326241 0.942818
vt 0.326241 0.998691
vt 0.339959 0.998691
vt 0.339959 0.942818
vt 0.603662 0.942818
vt 0.591041 0.942818
vt 0.591041 0.998691
vt 0.603662 0.998691
vt 0.367026 0.942818
vt 0.367026 0.998691
vt 0.379375 0.998691
vt 0.379375 0.942818
vt 0.617361 0.942818
vt 0.617361 0.998691
vt 0.579158 0.942818
vt 0.579158 0.998691
vt 0.393239 0.998691
vt 0.393239 0.942818
vt 0.552605 0.942818
vt 0.552605 0.998691
vt 0.567182 0.998691
vt 0.567182 0.942818
vt 0.539771 0.942818
vt 0.539771 0.998691
vt 0.510859 0.942818
vt 0.510859 0.998691
vt 0.526224 0.998691
vt 0.526224 0.942818
vt 0.405457 0.998691
vt 0.405457 0.942818
vt 0.417052 0.998691
vt 0.417052 0.942818
vt 0.485085 0.942818
vt 0.472039 0.942818
vt 0.472039 0.998691
vt 0.485085 0.998691
vt 0.631120 0.942818
vt 0.631120 0.998691
vt 0.498106 0.998691
vt 0.498106 0.942818
vt 0.459486 0.942818
vt 0.459486 0.998691
vt 0.645244 0.998691
vt 0.645244 0.942818
vt 0.353208 0.942818
vt 0.353208 0.998691
vt 0.428604 0.998691
vt 0.428604 0.942818
vt 0.443070 0.998691
vt 0.443070 0.942818
s 1
usemtl VstController_250406
f 2/1/1 1/2/2 4/3/3
f 4/3/3 3/4/4 2/1/1
f 6/5/5 5/6/6 8/7/7
f 8/7/7 7/8/8 6/5/5
f 1/2/2 10/9/9 9/10/10
f 9/10/10 4/3/3 1/2/2
f 12/11/11 11/12/12 14/13/13
f 14/13/13 13/14/14 12/11/11
f 16/15/15 15/16/16 18/17/17
f 18/17/17 17/18/18 16/15/15
f 20/19/19 19/20/20 22/21/21
f 22/21/21 21/22/22 20/19/19
f 16/15/15 17/18/18 24/23/23
f 24/23/23 23/24/24 16/15/15
f 25/25/25 26/26/26 22/21/21
f 22/21/21 19/20/20 25/25/25
f 12/11/11 13/14/14 18/17/17
f 18/17/17 15/16/16 12/11/11
f 20/19/19 21/22/22 8/7/7
f 8/7/7 5/6/6 20/19/19
f 27/27/27 6/5/5 7/8/8
f 7/8/8 28/28/28 27/27/27
f 29/29/29 30/30/30 14/13/13
f 14/13/13 11/12/12 29/29/29
f 32/31/31 31/32/32 34/33/33
f 34/33/33 33/34/34 32/31/31
f 35/35/35 36/36/36 30/30/30
f 30/30/30 29/29/29 35/35/35
f 38/37/37 37/38/38 40/39/39
f 40/39/39 39/40/40 38/37/37
f 41/41/41 44/42/42 43/43/43
f 43/43/43 42/44/44 41/41/41
f 32/31/31 33/34/34 46/45/45
f 46/45/45 45/46/46 32/31/31
f 38/37/37 39/40/40 36/36/36
f 36/36/36 35/35/35 38/37/37
f 48/47/47 47/48/48 50/49/49
f 50/49/49 49/50/50 48/47/47
f 51/51/51 53/52/52 52/53/53
f 49/50/50 56/54/54 55/55/55
f 55/55/55 54/56/56 49/50/50
f 54/56/56 55/55/55 58/57/57
f 58/57/57 57/58/58 54/56/56
f 54/56/56 59/59/59 60/60/60
f 60/60/60 49/50/50 54/56/56
f 57/58/58 61/61/61 59/59/59
f 59/59/59 54/56/56 57/58/58
f 62/62/62 52/53/53 60/60/60
f 60/60/60 59/59/59 62/62/62
f 63/63/63 62/62/62 59/59/59
f 59/59/59 61/61/61 63/63/63
f 52/53/53 62/62/62 64/64/64
f 64/64/64 51/51/51 52/53/53
f 65/65/65 64/64/64 62/62/62
f 62/62/62 63/63/63 65/65/65
f 66/66/66 69/67/67 68/68/68
f 68/68/68 67/69/69 66/66/66
f 70/70/70 72/71/71 71/72/72
f 71/72/72 48/47/47 70/70/70
f 48/47/47 71/72/72 73/73/73
f 73/73/73 47/48/48 48/47/47
f 70/70/70 74/74/74 75/75/75
f 75/75/75 72/71/71 70/70/70
f 31/32/32 27/27/27 28/28/28
f 28/28/28 34/33/33 31/32/32
f 76/76/76 71/72/72 72/71/71
f 72/71/71 77/77/77 76/76/76
f 72/71/71 75/75/75 67/69/69
f 67/69/69 77/77/77 72/71/71
f 78/78/78 76/76/76 77/77/77
f 77/77/77 79/79/79 78/78/78
f 77/77/77 67/69/69 68/68/68
f 68/68/68 79/79/79 77/77/77
f 66/66/66 67/69/69 75/75/75
f 75/75/75 80/80/80 66/66/66
f 80/80/80 75/75/75 81/81/81
f 83/82/82 82/83/83 71/72/72
f 71/72/72 76/76/76 83/82/82
f 83/82/82 76/76/76 78/78/78
f 78/78/78 84/84/84 83/82/82
f 85/85/85 41/41/41 42/44/44
f 42/44/44 86/86/86 85/85/85
f 52/53/53 74/74/74 70/70/70
f 70/70/70 60/60/60 52/53/53
f 49/50/50 50/49/49 56/54/54
f 74/74/74 52/53/53 53/52/52
f 53/52/52 87/87/87 74/74/74
f 49/50/50 60/60/60 70/70/70
f 70/70/70 48/47/47 49/50/50
f 85/85/85 86/86/86 40/39/39
f 40/39/39 37/38/38 85/85/85
f 2/1/1 3/4/4 26/26/26
f 26/26/26 25/25/25 2/1/1
f 73/73/73 71/72/72 82/83/83
f 81/81/81 75/75/75 74/74/74
f 74/74/74 87/87/87 81/81/81
f 88/88/88 1/89/2 2/90/1
f 2/90/1 89/91/89 88/88/88
f 91/92/90 90/93/91 15/94/16
f 15/94/16 16/95/15 91/92/90
f 92/96/92 19/97/20 20/98/19
f 20/98/19 93/99/93 92/96/92
f 94/100/94 91/92/90 16/95/15
f 16/95/15 23/101/24 94/100/94
f 90/93/91 95/102/95 12/103/11
f 12/103/11 15/94/16 90/93/91
f 93/99/93 20/98/19 5/104/6
f 5/104/6 96/105/96 93/99/93
f 97/106/97 29/107/29 11/108/12
f 11/108/12 98/109/98 97/106/97
f 99/110/99 35/111/35 29/107/29
f 29/107/29 97/106/97 99/110/99
f 100/112/100 37/113/38 38/114/37
f 38/114/37 101/115/101 100/112/100
f 101/115/101 38/114/37 35/111/35
f 35/111/35 99/110/99 101/115/101
f 96/105/96 5/104/6 6/116/5
f 6/116/5 102/117/102 96/105/96
f 102/117/102 6/116/5 27/118/27
f 27/118/27 103/119/103 102/117/102
f 105/120/104 104/121/105 44/122/42
f 44/122/42 41/123/41 105/120/104
f 106/124/106 94/100/94 23/101/24
f 23/101/24 10/125/9 106/124/106
f 105/120/104 41/123/41 85/126/85
f 85/126/85 107/127/107 105/120/104
f 104/121/105 108/128/108 45/129/46
f 45/129/46 44/122/42 104/121/105
f 44/42/42 45/46/46 46/45/45
f 46/45/45 43/43/43 44/42/42
f 10/9/9 23/24/24 24/23/23
f 24/23/23 9/10/10 10/9/9
f 10/125/9 1/130/2 88/131/88
f 88/131/88 106/124/106 10/125/9
f 11/108/12 12/103/11 95/102/95
f 95/102/95 98/109/98 11/108/12
f 19/97/20 92/96/92 109/132/109
f 109/132/109 25/133/25 19/97/20
f 27/118/27 31/134/32 110/135/110
f 110/135/110 103/119/103 27/118/27
f 31/134/32 32/136/31 111/137/111
f 111/137/111 110/135/110 31/134/32
f 37/113/38 100/112/100 107/127/107
f 107/127/107 85/126/85 37/113/38
f 32/136/31 45/129/46 108/128/108
f 108/128/108 111/137/111 32/136/31
f 25/133/25 109/132/109 89/91/89
f 89/91/89 2/90/1 25/133/25
f 82/83/83 26/26/26 3/4/4
f 3/4/4 73/73/73 82/83/83
f 83/82/82 22/21/21 26/26/26
f 26/26/26 82/83/83 83/82/82
f 21/22/22 22/21/21 83/82/82
f 83/82/82 84/84/84 21/22/22
f 78/78/78 8/7/7 21/22/22
f 21/22/22 84/84/84 78/78/78
f 7/8/8 8/7/7 78/78/78
f 78/78/78 79/79/79 7/8/8
f 28/28/28 7/8/8 79/79/79
f 79/79/79 68/68/68 28/28/28
f 34/33/33 28/28/28 68/68/68
f 68/68/68 69/67/67 34/33/33
f 33/34/34 34/33/33 69/67/67
f 69/67/67 66/66/66 33/34/34
f 80/80/80 46/45/45 33/34/34
f 33/34/34 66/66/66 80/80/80
f 43/43/43 46/45/45 80/80/80
f 80/80/80 81/81/81 43/43/43
f 42/44/44 43/43/43 81/81/81
f 81/81/81 87/87/87 42/44/44
f 86/86/86 42/44/44 87/87/87
f 87/87/87 53/52/52 86/86/86
f 51/51/51 40/39/39 86/86/86
f 86/86/86 53/52/52 51/51/51
f 39/40/40 40/39/39 51/51/51
f 51/51/51 64/64/64 39/40/40
f 65/65/65 36/36/36 39/40/40
f 39/40/40 64/64/64 65/65/65
f 63/63/63 30/30/30 36/36/36
f 36/36/36 65/65/65 63/63/63
f 61/61/61 14/13/13 30/30/30
f 30/30/30 63/63/63 61/61/61
f 13/14/14 14/13/13 61/61/61
f 61/61/61 57/58/58 13/14/14
f 58/57/57 18/17/17 13/14/14
f 13/14/14 57/58/58 58/57/57
f 17/18/18 18/17/17 58/57/57
f 58/57/57 55/55/55 17/18/18
f 56/54/54 24/23/23 17/18/18
f 17/18/18 55/55/55 56/54/54
f 9/10/10 24/23/23 56/54/54
f 56/54/54 50/49/49 9/10/10
f 4/3/3 9/10/10 50/49/49
f 50/49/49 47/48/48 4/3/3
f 3/4/4 4/3/3 47/48/48
f 47/48/48 73/73/73 3/4/4
