# Blender 4.3.0
# www.blender.org
mtllib L_upperButton.mtl
o L_upperButton
v 0.018508 -0.004089 0.038627
v 0.018686 -0.005040 0.037637
v 0.018037 -0.007376 0.039624
v 0.017859 -0.006424 0.040614
v 0.012206 -0.000861 0.040407
v 0.013501 -0.000911 0.040712
v 0.012852 -0.003246 0.042699
v 0.011557 -0.003197 0.042394
v 0.010094 -0.006434 0.033743
v 0.009196 -0.005514 0.034499
v 0.008547 -0.007850 0.036486
v 0.009445 -0.008769 0.035730
v 0.008671 -0.004639 0.035310
v 0.008520 -0.003719 0.036272
v 0.007870 -0.006054 0.038259
v 0.008022 -0.006974 0.037297
v 0.008655 -0.002853 0.037255
v 0.009180 -0.002090 0.038232
v 0.008530 -0.004426 0.040219
v 0.008006 -0.005188 0.039242
v 0.014979 -0.007935 0.033450
v 0.013714 -0.007875 0.033165
v 0.013064 -0.010211 0.035152
v 0.014330 -0.010270 0.035437
v 0.012465 -0.007637 0.033081
v 0.011276 -0.007155 0.033281
v 0.010627 -0.009491 0.035268
v 0.011815 -0.009973 0.035068
v 0.017259 -0.007308 0.034765
v 0.016115 -0.007739 0.033977
v 0.015466 -0.010075 0.035964
v 0.016610 -0.009643 0.036752
v 0.017128 -0.002300 0.040200
v 0.017926 -0.003137 0.039506
v 0.017277 -0.005473 0.041493
v 0.016479 -0.004635 0.042187
v 0.009961 -0.001475 0.039119
v 0.011041 -0.001072 0.039855
v 0.010392 -0.003407 0.041842
v 0.009312 -0.003810 0.041106
v 0.018540 -0.005891 0.036667
v 0.018076 -0.006643 0.035717
v 0.017427 -0.008978 0.037704
v 0.017891 -0.008227 0.038654
v 0.014784 -0.001157 0.040800
v 0.016013 -0.001651 0.040600
v 0.015364 -0.003987 0.042587
v 0.014134 -0.003492 0.042787
v 0.017671 -0.003609 0.037812
v 0.017820 -0.004356 0.037038
v 0.017212 -0.002858 0.038507
v 0.016565 -0.002183 0.039066
v 0.015672 -0.001657 0.039393
v 0.014694 -0.001263 0.039552
v 0.013679 -0.001064 0.039489
v 0.012659 -0.001031 0.039243
v 0.011724 -0.001200 0.038802
v 0.010853 -0.001524 0.038208
v 0.010224 -0.002024 0.037488
v 0.009808 -0.002627 0.036713
v 0.009691 -0.003308 0.035937
v 0.009823 -0.004032 0.035182
v 0.010248 -0.004736 0.034532
v 0.010962 -0.005469 0.033930
v 0.011905 -0.006047 0.033559
v 0.012857 -0.006437 0.033394
v 0.013846 -0.006634 0.033452
v 0.014843 -0.006673 0.033685
v 0.015757 -0.006513 0.034113
v 0.016668 -0.006169 0.034742
v 0.017320 -0.005635 0.035504
v 0.017701 -0.005033 0.036265
v 0.013784 -0.003746 0.036404
vn 0.9996 0.0264 -0.0051
vn 0.9614 0.2076 0.1806
vn 0.9382 0.0324 0.3447
vn 0.9782 -0.1467 0.1472
vn 0.0046 0.8093 0.5874
vn -0.2306 0.8245 0.5167
vn -0.2868 0.6658 0.6888
vn -0.0416 0.6541 0.7552
vn -0.7570 -0.0264 -0.6528
vn -0.5969 -0.1742 -0.7832
vn -0.6676 -0.3660 -0.6483
vn -0.8303 -0.2088 -0.5167
vn -0.9046 0.3116 -0.2910
vn -0.8651 0.1506 -0.4785
vn -0.9410 -0.0254 -0.3374
vn -0.9782 0.1473 -0.1465
vn -0.7804 0.6186 0.0912
vn -0.8737 0.4762 -0.0993
vn -0.9487 0.3111 0.0556
vn -0.8527 0.4552 0.2563
vn 0.0753 -0.4662 -0.8815
vn 0.3074 -0.4727 -0.8259
vn 0.2695 -0.6664 -0.6952
vn 0.0319 -0.6528 -0.7568
vn -0.3963 -0.3083 -0.8648
vn -0.1608 -0.4064 -0.8994
vn -0.2148 -0.5976 -0.7725
vn -0.4586 -0.4984 -0.7357
vn 0.5369 -0.4424 -0.7183
vn 0.7258 -0.3675 -0.5815
vn 0.6987 -0.5663 -0.4372
vn 0.5070 -0.6360 -0.5818
vn 0.8651 0.3735 0.3347
vn 0.6941 0.5445 0.4709
vn 0.6617 0.3706 0.6518
vn 0.8385 0.1986 0.5074
vn -0.4482 0.7958 0.4073
vn -0.6278 0.7318 0.2652
vn -0.6977 0.5668 0.4381
vn -0.5096 0.6354 0.5802
vn 0.8812 -0.2597 -0.3951
vn 0.9715 -0.1216 -0.2034
vn 0.9504 -0.3071 -0.0503
vn 0.8581 -0.4496 -0.2479
vn 0.4739 0.6768 0.5634
vn 0.2511 0.7612 0.5980
vn 0.2096 0.5992 0.7727
vn 0.4370 0.5093 0.7414
vn 0.3603 0.7223 -0.5903
vn 0.3583 0.6905 -0.6284
vn 0.3386 0.7545 -0.5622
vn 0.3133 0.7906 -0.5262
vn 0.2632 0.8131 -0.5192
vn 0.2211 0.8317 -0.5093
vn 0.1745 0.8361 -0.5201
vn 0.1277 0.8430 -0.5226
vn 0.0869 0.8333 -0.5460
vn 0.0431 0.8240 -0.5649
vn 0.0214 0.7966 -0.6041
vn 0.0004 0.7689 -0.6394
vn 0.0051 0.7368 -0.6761
vn 0.0011 0.7034 -0.7108
vn 0.0257 0.6694 -0.7425
vn 0.0465 0.6328 -0.7729
vn 0.0945 0.6152 -0.7827
vn 0.1387 0.5943 -0.7922
vn 0.1853 0.5926 -0.7839
vn 0.2306 0.5827 -0.7793
vn 0.2735 0.5932 -0.7572
vn 0.3185 0.5980 -0.7355
vn 0.3409 0.6299 -0.6979
vn 0.3600 0.6569 -0.6625
vn 0.1833 0.7251 -0.6638
vt 0.866828 0.875732
vt 0.871062 0.875732
vt 0.871062 0.895105
vt 0.866828 0.895105
vt 0.789342 0.875732
vt 0.793638 0.875732
vt 0.793638 0.895105
vt 0.789342 0.895105
vt 0.824234 0.875732
vt 0.828262 0.875732
vt 0.828262 0.895105
vt 0.824234 0.895105
vt 0.815098 0.875732
vt 0.819611 0.875732
vt 0.819611 0.895105
vt 0.815098 0.895105
vt 0.806848 0.875732
vt 0.810976 0.875732
vt 0.810976 0.895105
vt 0.806848 0.895105
vt 0.840572 0.875732
vt 0.845216 0.875732
vt 0.845216 0.895105
vt 0.840572 0.895105
vt 0.832391 0.875732
vt 0.836443 0.875732
vt 0.836443 0.895105
vt 0.832391 0.895105
vt 0.849959 0.875732
vt 0.854106 0.875732
vt 0.854106 0.895105
vt 0.849959 0.895105
vt 0.875409 0.875732
vt 0.879560 0.875732
vt 0.879560 0.895105
vt 0.875409 0.895105
vt 0.797928 0.875732
vt 0.802445 0.875732
vt 0.802445 0.895105
vt 0.797928 0.895105
vt 0.858364 0.875732
vt 0.862551 0.875732
vt 0.862551 0.895105
vt 0.858364 0.895105
vt 0.883795 0.875732
vt 0.887957 0.875732
vt 0.887957 0.895105
vt 0.883795 0.895105
vt 0.785079 0.875732
vt 0.785079 0.895105
vt 0.013993 0.048133
vt 0.006332 0.051252
vt 0.011088 0.059467
vt 0.017547 0.054272
vt 0.012279 0.041003
vt 0.004075 0.041826
vt 0.012172 0.033886
vt 0.004010 0.032614
vt 0.006931 0.023861
vt 0.014452 0.027154
vt 0.011648 0.016019
vt 0.018045 0.021178
vt 0.023009 0.016581
vt 0.018220 0.009904
vt 0.028984 0.013212
vt 0.026192 0.005447
vt 0.035647 0.011632
vt 0.034871 0.003409
vt 0.042862 0.011453
vt 0.044200 0.003268
vt 0.052965 0.005638
vt 0.049655 0.013358
vt 0.061008 0.010057
vt 0.055768 0.016709
vt 0.067335 0.016495
vt 0.060524 0.021551
vt 0.064052 0.027463
vt 0.072036 0.024381
vt 0.065681 0.034122
vt 0.074173 0.033013
vt 0.065729 0.041887
vt 0.074159 0.043161
vt 0.071242 0.052658
vt 0.063446 0.049171
vt 0.066725 0.060270
vt 0.059999 0.055043
vt 0.060341 0.066234
vt 0.055180 0.059549
vt 0.049380 0.062888
vt 0.052634 0.070680
vt 0.042889 0.064461
vt 0.044245 0.072757
vt 0.035305 0.064610
vt 0.034344 0.072900
vt 0.025027 0.070268
vt 0.028174 0.062520
vt 0.017391 0.065771
vt 0.022286 0.059084
vt 0.039091 0.038084
s 1
usemtl VstController_250406
f 2/1/1 1/2/2 4/3/3
f 4/3/3 3/4/4 2/1/1
f 6/5/5 5/6/6 8/7/7
f 8/7/7 7/8/8 6/5/5
f 10/9/9 9/10/10 12/11/11
f 12/11/11 11/12/12 10/9/9
f 14/13/13 13/14/14 16/15/15
f 16/15/15 15/16/16 14/13/13
f 18/17/17 17/18/18 20/19/19
f 20/19/19 19/20/20 18/17/17
f 22/21/21 21/22/22 24/23/23
f 24/23/23 23/24/24 22/21/21
f 26/25/25 25/26/26 28/27/27
f 28/27/27 27/28/28 26/25/25
f 30/29/29 29/30/30 32/31/31
f 32/31/31 31/32/32 30/29/29
f 34/33/33 33/34/34 36/35/35
f 36/35/35 35/36/36 34/33/33
f 38/37/37 37/38/38 40/39/39
f 40/39/39 39/40/40 38/37/37
f 42/41/41 41/42/42 44/43/43
f 44/43/43 43/44/44 42/41/41
f 46/45/45 45/46/46 48/47/47
f 48/47/47 47/48/48 46/45/45
f 33/34/34 46/45/45 47/48/48
f 47/48/48 36/35/35 33/34/34
f 1/2/2 34/33/33 35/36/36
f 35/36/36 4/3/3 1/2/2
f 45/49/46 6/5/5 7/8/8
f 7/8/8 48/50/47 45/49/46
f 5/6/6 38/37/37 39/40/40
f 39/40/40 8/7/7 5/6/6
f 37/38/38 18/17/17 19/20/20
f 19/20/20 40/39/39 37/38/38
f 17/18/18 14/13/13 15/16/16
f 15/16/16 20/19/19 17/18/18
f 13/14/14 10/9/9 11/12/12
f 11/12/12 16/15/15 13/14/14
f 9/10/10 26/25/25 27/28/28
f 27/28/28 12/11/11 9/10/10
f 25/26/26 22/21/21 23/24/24
f 23/24/24 28/27/27 25/26/26
f 21/22/22 30/29/29 31/32/32
f 31/32/32 24/23/23 21/22/22
f 29/30/30 42/41/41 43/44/44
f 43/44/44 32/31/31 29/30/30
f 41/42/42 2/1/1 3/4/4
f 3/4/4 44/43/43 41/42/42
f 49/51/49 1/52/2 2/53/1
f 2/53/1 50/54/50 49/51/49
f 51/55/51 34/56/33 1/52/2
f 1/52/2 49/51/49 51/55/51
f 52/57/52 33/58/34 34/56/33
f 34/56/33 51/55/51 52/57/52
f 46/59/45 33/58/34 52/57/52
f 52/57/52 53/60/53 46/59/45
f 45/61/46 46/59/45 53/60/53
f 53/60/53 54/62/54 45/61/46
f 54/62/54 55/63/55 6/64/5
f 6/64/5 45/61/46 54/62/54
f 56/65/56 5/66/6 6/64/5
f 6/64/5 55/63/55 56/65/56
f 57/67/57 38/68/37 5/66/6
f 5/66/6 56/65/56 57/67/57
f 58/69/58 37/70/38 38/68/37
f 38/68/37 57/67/57 58/69/58
f 18/71/17 37/70/38 58/69/58
f 58/69/58 59/72/59 18/71/17
f 17/73/18 18/71/17 59/72/59
f 59/72/59 60/74/60 17/73/18
f 14/75/13 17/73/18 60/74/60
f 60/74/60 61/76/61 14/75/13
f 62/77/62 13/78/14 14/75/13
f 14/75/13 61/76/61 62/77/62
f 63/79/63 10/80/9 13/78/14
f 13/78/14 62/77/62 63/79/63
f 64/81/64 9/82/10 10/80/9
f 10/80/9 63/79/63 64/81/64
f 26/83/25 9/82/10 64/81/64
f 64/81/64 65/84/65 26/83/25
f 25/85/26 26/83/25 65/84/65
f 65/84/65 66/86/66 25/85/26
f 22/87/21 25/85/26 66/86/66
f 66/86/66 67/88/67 22/87/21
f 68/89/68 21/90/22 22/87/21
f 22/87/21 67/88/67 68/89/68
f 69/91/69 30/92/29 21/90/22
f 21/90/22 68/89/68 69/91/69
f 70/93/70 29/94/30 30/92/29
f 30/92/29 69/91/69 70/93/70
f 42/95/41 29/94/30 70/93/70
f 70/93/70 71/96/71 42/95/41
f 41/97/42 42/95/41 71/96/71
f 71/96/71 72/98/72 41/97/42
f 2/53/1 41/97/42 72/98/72
f 72/98/72 50/54/50 2/53/1
f 50/54/50 73/99/73 49/51/49
f 49/51/49 73/99/73 51/55/51
f 51/55/51 73/99/73 52/57/52
f 52/57/52 73/99/73 53/60/53
f 53/60/53 73/99/73 54/62/54
f 54/62/54 73/99/73 55/63/55
f 55/63/55 73/99/73 56/65/56
f 56/65/56 73/99/73 57/67/57
f 57/67/57 73/99/73 58/69/58
f 58/69/58 73/99/73 59/72/59
f 59/72/59 73/99/73 60/74/60
f 60/74/60 73/99/73 61/76/61
f 61/76/61 73/99/73 62/77/62
f 62/77/62 73/99/73 63/79/63
f 63/79/63 73/99/73 64/81/64
f 64/81/64 73/99/73 65/84/65
f 65/84/65 73/99/73 66/86/66
f 66/86/66 73/99/73 67/88/67
f 67/88/67 73/99/73 68/89/68
f 68/89/68 73/99/73 69/91/69
f 69/91/69 73/99/73 70/93/70
f 70/93/70 73/99/73 71/96/71
f 71/96/71 73/99/73 72/98/72
f 72/98/72 73/99/73 50/54/50
